<mxfile host="65bd71144e">
    <diagram id="_jDHMa9dmVDO8wudJEu3" name="第 1 页">
        <mxGraphModel dx="1215" dy="1732" grid="1" gridSize="10" guides="1" tooltips="1" connect="1" arrows="1" fold="1" page="1" pageScale="1" pageWidth="827" pageHeight="1169" math="0" shadow="0">
            <root>
                <mxCell id="0"/>
                <mxCell id="1" parent="0"/>
                <mxCell id="2" value="" style="shape=image;imageAspect=0;aspect=fixed;verticalLabelPosition=bottom;verticalAlign=top;image=data:image/jpeg,/9j/4AAQSkZJRgABAQAAAQABAAD/2wBDAAMCAgICAgMCAgIDAwMDBAYEBAQEBAgGBgUGCQgKCgkICQkKDA8MCgsOCwkJDRENDg8QEBEQCgwSExIQEw8QEBD/2wBDAQMDAwQDBAgEBAgQCwkLEBAQEBAQEBAQEBAQEBAQEBAQEBAQEBAQEBAQEBAQEBAQEBAQEBAQEBAQEBAQEBAQEBD/wAARCAHxAf0DASIAAhEBAxEB/8QAHwAAAQUBAQEBAQEAAAAAAAAAAAECAwQFBgcICQoL/8QAtRAAAgEDAwIEAwUFBAQAAAF9AQIDAAQRBRIhMUEGE1FhByJxFDKBkaEII0KxwRVS0fAkM2JyggkKFhcYGRolJicoKSo0NTY3ODk6Q0RFRkdISUpTVFVWV1hZWmNkZWZnaGlqc3R1dnd4eXqDhIWGh4iJipKTlJWWl5iZmqKjpKWmp6ipqrKztLW2t7i5usLDxMXGx8jJytLT1NXW19jZ2uHi4+Tl5ufo6erx8vP09fb3+Pn6/8QAHwEAAwEBAQEBAQEBAQAAAAAAAAECAwQFBgcICQoL/8QAtREAAgECBAQDBAcFBAQAAQJ3AAECAxEEBSExBhJBUQdhcRMiMoEIFEKRobHBCSMzUvAVYnLRChYkNOEl8RcYGRomJygpKjU2Nzg5OkNERUZHSElKU1RVVldYWVpjZGVmZ2hpanN0dXZ3eHl6goOEhYaHiImKkpOUlZaXmJmaoqOkpaanqKmqsrO0tba3uLm6wsPExcbHyMnK0tPU1dbX2Nna4uPk5ebn6Onq8vP09fb3+Pn6/9oADAMBAAIRAxEAPwD7Tooor+Lz9VCiiigAooooAKKKKACiiigAooooAKKKKACiiigAoopQMnnpQAmD6GjB9DU3y+tBAPAp2YEOD6UYPpU20epo2j1NaeyAhopShHakrNqwBRRSAg9DUXJ5haKDnHAzXH+I/iXbaAStt4N8Xawynax0/R3dVb0LMVH410UMPVxEuWmrkzqKB2FFeE65+1VaaHzc/CrxSgBIKzXNhDIfojXG4/TAp2j/ALQfxW8T2H9reF/2RfiXe2RJ2SzLBb+YPVNzfN+FfS0OC86xC5oUdPVHFLMsND4pHulFeB337QPx0sEeW4/Yu+I6ovcyxE/oDXHar+2/408P5/4SD9lH4hWSg4JIDY/8cA/Wuj/ULPX/AMuf/Jl/mRLOsHH7R9W0V8av/wAFMfAentjxB8IPHWmgHBLwRHH/AH0y1t6X/wAFLf2br0A6i/iXTCf+e+mhgP8AvhzWNbgfPKNr0G/Rp/kXDNcJP7Z9X0V4Pov7cn7LevBfs/xUs7Vj/De280GPxZcfrXo/h34y/CPxdsXw18S/DeoyOMiODUIy/wD3yTn9K87EcOZlhNatGSX+FnRHG4abtGdzshjvR8tNjZJUEkLrIh6MpBB/GlrzalCpS/iRa9TaNWEvhCiiiucsKKKKYBRRRQAUUUUAFFFFABRRRUAFFFFABRRRQAUUUUAFFFFABRRRQAUUUUAFFFFABRRRQAUUUUAFFFFABRRRQAUUUUAFFFFABRRgmmvIkKtJLIqoqli2eFx/ePRR7mrhTlP4UDaW46ivK/Ev7VH7O3hGZ7bXfi94eSZPvR21x9pYf9+gw/Wuci/bl/ZYllMa/FezA/vNaTgf+gV7MOGs3qLmhh5Nej/yOX67QXxTS+Z7uDg5qYMvHrXkemftXfs36sVNj8ZPDeT2uLgwf+hgV6DoXjfwZ4qjEnhrxZomrLjObLUIZv8A0FqylkuYYVXrUJL1ixrF0J6Ka+83aKauMAUoIPSuK3kbXTFoXk8UoUnoKsW+n39z/qbcmurD4XEYqXLSptkVK8KduZpEOwVna3qWmeHrI6nruoWunWa/euLmZY4x9SxAqxrXhv4qarG1h4L0rTrEycf2nq3zpF7rbryx9mI+lclp/wCwR4A8T6zF4s+O/ivX/iTrCkN5epz+Vp8R/ux2keECegOa+yybgbEZjJrEpxjp0/4KPJxmbwoO1NpnCXf7XHwYkv5tH8IajrHjTVIJPKa08N6PcX3z/wC+q7Me+a0Y/EH7WHjZjb/D/wDZqj8O20uCl/4w1eKEBT/EbeItJ+BxX1f4W8BeDvAunRaT4N8LaXo1nCoRIrK1jhUAdOgroQDiv0nL/DzJ8JrUi5+r/wAjwMRnmKqW5XY+VdL/AGa/2kfFKCb4l/tFQ6Iki4ax8JaNHHtB6j7RNlv/AB2ur079ij4PCZZ/F994v8ZOo/5jviG5kTPc+XGyJz6Yr6BpAoHQV9Xh8jy7Cr9zRivkeVUxuIqv35NnAaD8Dvht4ThaLwV4R0fwy54+1aVp0EVyfcysjMT7msjU/wBnTwrr1y914j8a+PdT8w5aJ/ElxDEfbZCUFer0V6dOnGmrRRg6je547D+yR+z+rebP4Ee8kPV7vV76cn675iKe/wCyP+ziwO34T6RGxOS6PMrfmHB/WvX6K0uLmZ4Br37Cn7NOvw+XL4JurUkklrbV7sfo0jD9K808Qf8ABKr9mrWgz2194sspTkqRqKTKp/3XQ/zr7KoqYuxqnc/PTUf+CO3wyDCTS/iBd3Hzbiuo6chbA7B4WTH5Vx3in/gjXpV3DJJ4R+JF1pV5GCyBgZ4HbsOQrJ+Zr9PKKdk90NTa2Pxd8Rf8E+v+CgXwfnaf4ceJLrxBbRH5ZND10xHH/XGZlOfoDXFS/tZ/tyfAS+j0r4o6ZqQW3fYYvEGlcP7CVQu767jX7qFWySO9ZniHwxoHivTpNM8TaJYapayLtMN5bpMhB9mBrhxOU4LGK1elGXqkdFPF1qT92TPyR8G/8FT9OvDHbfEb4cXNk/RrzR7jcFPr5UmAR7A89K978Bft5/s4+MLiLTrnxt/ZFzLgR/2jayQqx7hmwVQ/U4967H49/wDBNX9nf4k6ffXfhLwFfeENfdHNvf6IUFuJMcGS3LYZc4yFAbGcHOK/HL4v/B34hfBHxfdeD/iBoV9pd7AxMRuIGjW5iyQJY8/eU4/DocV8pj/DrJMa+aMHB/3WehDO8RFWZ+6ug+KPDfii1+2+G9e07VrfAJlsbpJkGexKng+xrTr8AvCHxL8eeAL9NT8F+K9T0a5Q532l08e7HqAcEfWvqj4Wf8FOfjR4XaKx8fabpnjCyTALzp9nutvf96g5/EGvhM08KsRQi54CqpeT0f8AX3HrUOIYSsqsbedz9VaK+afhR/wUA+AHxKdLLUtXn8JahIQqQauAIWf0FwvyY92219IW11b3ltBe2dxDcW9zGssU0UgdHU91I4I96/PcyyLH5S7Yqm0e3QxdLEK8GiaikBB4FLXjnUFFFFMQUUUVABRRRQAUUUUAFFFFABRRRQAUUUUAFFFFABRRRQAUUUUAFFFFABRRRQAUUUUAFFFYHinx/wCBvBFs134x8ZaJosKgkm+vUiY47Kh+Zj9BXTRwWIxMuSjByZnKtCHxM36MEcEV4VL+1/8AD7XLr+zPhH4X8YfEq+JIC+H9GlaAH1aZwFUe54rZ02L9uD4gtG2g/B3wh8PbEnJuPE2pteXioehEMBAB68EivqMBwHnWO1dPlXmzgq5vhaTs5HrwX2NfAP7VHxF8Z/Hn4+W/7MPgPxva+GfDGloG8R6pdXQgtw4AMskrZGVQFQsefmYdDnj7C1v9mz4hJ4V1PxP8Yv2mvEn2bTrSa8uLTwtaw6XahY0Z2BcrJJjC4zuFeN/8E1f2YfAniv4f638dvif4Kt9d1LxXrc82jSa2n2qSOwUjYxD5DFmySTnO0V+l8HcBzyXFPFY5qTtot0n3/wAjwMzzmOKp+zo6dzrPhF/wS1/Y6n8Mafrd3Nq3j0zgMdSk1J4bec92jWHb8vplmr0z/h2V+xcf+aPJ9Rq15/8AHK+nbGwstPtYrOxtIbeCFQscUSBERR0AUcAVYwPSv1OyPnbs+PdU/wCCUf7GuoMzW/gzWtOY9Daa3ONv03lq5W6/4JAfs6w3K3vhvxx8RtGnQ5V7fV4Syn2Jhz+tfdtFJxi90NSktmea+CPgp4b8CeENK8G6Xd6jd2+lQeQl1fXHnXM3JO6R8AE8+grXPgaOM/uihA/vLnNdhSYFfP4nhXKsVU9pOkrnVDMsTH7RzUHhCxGPMAB77VrbtdNtbSMRQRKqgY471bAA6Ciu7B5NgcBrh6aTMKuKrV/jkNSIKOBTsU7HajAr0lFIyG7c9qcFA6UtFVYBp60lFFBAUUUUAFFFFADhzSEULTqCkMop9NIoGJRRRQAV5r8cv2efhX+0L4Ubwl8S/CtrqMCgm1uQgS6s3IwHglxlD7cqehBFelUU7jufgr+2D/wT5+Jv7NN9P4m0iG78U+BZDuh1eGE+ZaAk4juUHKkD+MZB/CvkzJXgEjn/AD/nNf1J6lplhq9lNpupWcF1aXKGOaCZA6SKeoKng1+YH7bP/BLOzktdV+Jn7NmnSLMpN1eeFgdyN1LtanqD/sZOe2Ke4NXPyqLYPX/P517B8F/2qfjL8Db2J/Bviq4bTlbL6VeMZbRx3AQ/d+qlT715Leabc6bdTWV9bPb3FvIYpoZAQ8bjhlYHoQePwqLzMHp+lYYjDUsXTdKvFSi901cunUnSfNB2P2C+AH7e/wAKPjEtvoniNl8JeJ3wn2W7kzb3DdP3UxwMnrsbB5xk19PV+AtlpdlqUCSaZqJt9RGC9tNJgMf70bf48j6c19U/s+/t1/FL4G3OneEfivaXOueFCQkbzNvurdPWGXOJE/2WPfgivyTijw1jNPE5Ro9bw7+j6ddD6XAZ/wAtqeJWnf8AzP1Rorlvh38TfA3xX8PxeKPAPiG11bT5AAzRP+8hc9UkQ8ow9DXU1+NYrCVsHUdKvFxkuj3Pp6NaNePPDYKKKK5DUKKKKACiiigAooooAKKKKACiiigAooooAKKKKACiiigAooooAKKKqx6nYy69YeF0nDapqccs1vbD7xijxuc+ijNa0KFTE1FSpK7ZnVqqlHmlsch4++OHwr+GlzJp3i7xhawamoAXS7dWub6ViCVVLeIM7E44wK5+z8cftGfEVVb4R/s6X9jZSr+71jxzdjSoMHowtV3XDA9vlXIqv8B9E8PfD/8Ab7+J/gOWztZJ/E3hLTPEVtNOPOnWVGKTqsj5YA+aSVzj5BxX22kMeAFQYH5fl0r99yHw9yyhh6dfExcptJtPZabWR8hi88ryk4w0R8h2n7Jn7Qnj9vM+M37Tl7ptqw+bSvA9itgig9UNy+ZGH1AzXeeBv2Df2Y/A9yupn4dw+I9TB3Pf+I55NTmZv7374lVP+6or6DEYHQClxzzX3+Dy3CYOPLRpqPokeLVxdeq9ZFHStF0nQrRLHR9Ot7K3jAVY4IwigD2FXc0EDPFFdlraIx31Z4J+1RNceMPDunfAbRL5otU+Idz9ju5A3zWejx4e/uSP7ojwnu0qDqc16n8OPCOk+DvBej+HNFs47SysYFjhgjGFSMfcGP8Ad21mDwFplh4m1HxNJJLqGta4EtHnmAPkWKOG8mMdFQZJY9WYjJ4UDvFUKMAYqkJjqKKKYgooooAKKKKACikpaACiue8TfEDwT4MtpLzxX4q0vSIYvvPe3SRY/AnP6V5rc/tUeDtRLw/Drwl4u8dzRsVJ0PSZGtx7m4k2xgH1zQB7XSHpXhMnj/8Aaq8RDd4b+CPhrw5A5+SfxJ4i3yoPV4bRHwfbdVebwh+2Prqg3fxj8A+HI2zvXTPDU96cezTzJ/KgD3lpQDinK2a+fv8AhnP4na0c+Nf2q/iHdA/fj0i2stLVvYMkbNj0G78aen7GPw2u23+IvGPxO13PUaj41viG+qxOgoFY97nube2XfcTpEvq7YFUZPE3h2IkPrtgCOoNyg/ma8ch/Yj/ZmiO6T4aC6fOTJdaxfzsfqXnNX4f2N/2X4Rj/AIUh4ZlJ6meBpv8A0MmgLHqH/CW+Gf8AoPaf/wCBUf8A8VU0fiHw/L/q9c09iewuYz/WvL1/ZC/ZiQ5X4EeDAf8AsFxf4VIv7Jf7NScx/A/wih9U09EP5qBQFj1Zby1cBobiOQHujA/yp4nBryRv2Tv2fgd1t8OLSzPb7JdXEGPp5ci1paT+zt8KdDnSfTdG1SIoQQv9v6iyEjplGnKn6EGgLWPTh0oPSmwxJBDHBECEjUKoJzgAYHNOPSgY2iiigAo6c0VynxJ+Ifgv4a+Er/xR468UWWgaVaxkyXl0+AvBPyjqzccKOTTQ0dQxOcZpmK/M3w7+338Yfjp8bx8K/wBnm4g1m2itZ7q11HULaCxkvBGMsrQyOQw6bTvQnnIFd9d/8FEfiT8LdZPhf42fCPyNQgxut0ZtNu5xgZaJZswzdc/u5WGPQ8VRRqft3/8ABOvQf2gLG8+I/wALLS00j4hW8bSyoAI4NYwPuSY4WUgfK+MZzuOK/FfxD4f1vwprd94b8SaVc6bqmmzvbXdpcxlJYZVOGVlPQg1++fwu/wCChv7MnxLv49CPjGXwvrMjCM6d4khNk4k/uLIcxu3+6xrzf9v79hTQP2kfC8vxT+F9raxfECwtvMj+zYEetxAZ8tiODIABsbr2PUEAH4hCVlORwR3zW5ZeKdQfy7TUz/aNip+a1uXJTB67cEFT3yvOazdS0290jULnStUs5bW8s5XguIJV2vFIpwysD0IIIqukTu2I0dv90ZoA734V/Gz4hfBjxQniX4ea7NpsiSbmgB3wzJn7kiNw64455r9Rf2bP27fhz8aI7bw54vkg8L+LmAT7PNJi1u3/AOmMp6E/3GI6Cvx+ORng59KmgN2kiyQpOJkO5WUkFSO49K+Yz7hTAZ/BqtG0+kluv8zvweY1sHL3Xp2P6GgSO9Ffj78Jv+ChHx5+FuiW/hma7svEenWskfljVkaSeKNTzGJAwOCOOc47ccV9g6f/AMFQPgI3hm11TUtJ8QxaxLHmbS4rUP5b+0xIVh+vtX4tmnhzm+CqJUl7SL2cf1V9D6qlnmFqRvJ2PsHBor4E1v8A4Ky+GreVl0D4T6jMMn/j81FIuPoin+dcTff8FYPiDJcM+nfDLw7FB/Cs1zLIw+pGB+lYU/DjPZq7ppf9vL/MuWd4SKupXP0xor86vhh/wVK8Qaj4zsbH4keC9HtNAvJVhnudN8wTWwJ/1mGJDKOMjFfofZ3lpqNlBqVhcpcWt1Ek8EyHKyIwBVgfQg14uecL5hw+19dikns073OrCY6ljf4fQmooor507QooooEFFFFABRRRQAUUUUAFFFHQ+lCV9gbsFFea/EH9pL4GfC9bhPGfxI0i1urcfNZxS+fcE+gjjy2fqK+b/GX/AAVO+GGkiW38FeA9a11+iz3Mi2kLe4I3P+aivpsDwhnGYWdKhK3d2S/FnFWzChQ+Jn21Xi3hrxLc/wDDxrw54Z/5Y/8ACuro+X/vSrJur5LT/gon+0p8Qb0W/wAMPgjYz4O2OO3sLq/mHpgqwGfwr1f9gLxh8RvjR+2P4s8dfG7R4LPxZ4W8KxaXHapa/Zvsm6UAq8ZJIfaOc1+m8GcCYvKcW8ZjkmkrJb6s+dzbNoYil7Okzqvjp8RtJ+En/BVP4ca1eyGO01zwrb6Nesv8AuHuERz7BthPsDX6MRMDwDX5Wf8ABQltM8L/ALePwW8ZakPN0a/t7Oyvm++mxb+WG4T/AICj8/lX6oQqVGTX6ukloj5mLclqT0UmR60tWA0jvSU+qd1qFva7RK6qXYIm5sbmPQUDTJioDZA59aXJ9aM55pKCh9FFFWQKDS5FNrC1bxVaaVO1pHb3WoXh+5aWcfmSn+SqPdiAO+KBpXN/IrlvGfxQ8B/D63W48YeJrLTDL/qIZpB59we4ihGZJD7KprFudG+JXjGVoNW1xPCelyDm20l/NvpF9GuWAWL3EaMf9urvhT4T+BvBt7LqWjeHIG1OYfvtUuma5vpT/tzylnP0zgdgKAsci/xZ+JvjEE/C/wCEN8lk5/d6t4rkOmwH/aW2Aa4I/wB5Yyaj/wCFP/FDxfIk/wATfjLqoj+8dO8Kp/ZdsAf4TLlp3H1cfSvY1jOQ2MH17/nUo4FAjzrQfgB8HtCmF9B4C0y7vV/5fdRjN7cv7tLNucn8a9Ait0jjSJI1SNAFVFAAUDoABwBUuBnNLQAgAHSjpS0UAJgUtFFACYFGB6UtFACYHpRgelLRQAmBRgUtFABRRRQAUUUUAeQfFv443Pg6VfCfw68KXXjbx5eZWz0azOILUkYE17cfdtohnJDfO2CFUnmvn3VP2DvHPx2vz45/as+Klz4k1sgPZeGNNZ4NC0z0QKDulA43Hjd34r7aW0ijdnhjjjZ/vMqAE/U1Iibe+aAPGvgH+yZ8H/2d0uLvwT4bsv7ZviftWqPbIs7Kf+WaED93H6IvHc5Neg+Ovhr4A+JmkPoHxB8H6R4h09wR9n1GzjnVc8ErvB2n3GDXT0UAfnB+0R/wSN8LeJYbnWfgL4rk0O7AZl0XV2a4sicZ2xyHLwjsByo9BXyHoXxJ/bq/4J++JItP8QWOuW+gpLs/s7VGe90a6QEgCKTJVCQONpVunAr92sD0rM17w3ovifSZ9D8Q6XZ6lYXKlJrW6gWWKRT2ZGBUj6g07jufjH+074f8AftnfCnUP2wfgb4bm0nxR4aaODx/4cjQMwDKSt8pX74AU5bGWUEnBU5+F7S+vdM3vZ3csDzRmJ/LbG6M9QfY1+2nxC/YP174TapqfxN/Yy1i10G+1KFo9a8D6pmXRddtyDvh2t/q2ILbR0BPBTrXyD+wl8EvhL4r/ak8Y/C39oD4JLYajHp73OlaJrDy7LOZXHmxCMsPMBRiyE7sAZHamho+CLOw1DUJDFYWVzdyDkrDEzt+Qr03QPg/+0d8StStz4b+GHjDU7iO2W0imh0maNVhC4C+YVC4A4yT061/QN8LPgT8IPgtYXGj/C74f6RoFndv5s628GXlb/adsswHYE8dq9ASCGIYiiRP91QKYz8F/Df/AAS7/bI12eOG5+HNro8cihjcajqtuqqD/eEbO4Pttr3Pwl/wRU+I90I5PGvxg0LTAcGaHTrJ7hx7B2Kj9K/XfHqTS4FS/UR+d3hT/gjD8C9OKS+LPiD4s1lzyUi8m2Rv++VJxXpl7/wSs/ZKHgzVPDOj+D7q21G+tmig1e4vZJ7i1lwdsi7jjg4OMYPSvsXAFBAPWlYND+ar4v8AwN8afA/4j6z8MPHEH2bVNMc/Z3VD5V/GcGN4j6OpyPyNfZP/AATx/aySCNPgZ8RtZKo77vD97cvgISebZmPQd19OR34+9f22/wBjXw9+1h4Ait7eW20rxroQabQtUZeMkEtbTEDcYnODkcq2GH8St+Evj3wT42+FnjLUPCHjHS7nRtf0a6Mc0UhIkVwcrIpHUHhlYHkcivJzrJsPnmElhcQt9n2fdHVhMVPCVVVh0P3zBDAMOh5pa+Vv2Ef2nrb40+BY/BPiS9Q+L/DkQSVnb5r+1HCzD/aXow6d6+qC+TnFfy3nWUVskxksJX3W3mujR+g4bFU8XBVKYtFFFeSdAUUUUAFFFFABRRRQA2SWKJHlmfYiKXZiPlVR1JPavy++Kvxx+OX7XHx7uPgZ8FPEr2uk3t1NaaZbW90LRLqONSXkklGCwKqTgntX6R/EGyu9R8A+J9PsXKT3OjXkMZXqGaJgMfnX5Uf8E3IJD+214Ahkzuimv2ZD6izmzX7L4V5VhMV7TF1Ipyhayett9fXsfOcQYqpSgoQdr3/Q+q/hH/wRiBki1T45/FSaaRsSSafoUWMk9QbiTkkeyc19e/Dn9gH9k/4XCKbRPhLp2oXcYH+l6yPt0jEd8PlQfoor6K6HPSkPPWv2pWWiPj05btnlfxt8deGP2d/gh4o+IEFhbafZ+H9Okktre2hWFXnI2wxqAOMuVFfnb/wR61nUPFfxv+LHinWLqW61DUtOgu55pDlnkkuXZifzqD/grJ+2H4f8cNB+zf8ADnUvtlnpN8t34ivoX/dPcopCWyEcOF3FmOcBgBzgkUv+CK9wIPix48t93/H5oUEuP7uydh/WmUfN/wC254+8VXH7QPjPwLcaiZNM8JeM9buNJQr89ubm4V3UN125iQhegJYjrX7gfs0eObr4k/AXwF43vrs3V1q+gWdxczE5Lz7NsufcOrA+9fg/+2v/AMnbfFn/ALGq+/8AQ66j4Bf8FAv2if2eNBg8H+EtcsdS8PWpzb6bq1t56Q5O47GyGXJJOAayIWh/QBk1Ir8deK/n4+IP7fn7QfjywS3g8UXeh38l8NR1C/0y5ljlu5VwIU+/iOKMD5Y1AGSSc19QfBz/AIK9eOYPBXiOz+KvhPTr3WNM0o/2JqFiGja8v2cLFFOhyMEFnLjAxG3c1Q9z7m/aZ/bE+G/7OkUWj3UkviDxhqEW+x8P2DEylDwJJSOI0J4BPJJ4BrS+Anh34pa9b/8AC1vjjcQxeJdWjD6boVv/AMeug2rfdUL0edlxvkOT2GBxXxd+wn+zt4k+KXxVvfjj8b3k1nWre4TVdTmuWLNHfyqr21nz08tGErIPu7oVPcV+ncUeRknLHkmgLDxTgO9IB2p1NIGFFFFUSFRQWtvb7jDCiFuTtHWqWreI9C0Nd+r6xY2aYLFri5SIAD/eIrH8IfEzwL451PU9M8H+KbDW5dKKC8ewk8+GFmztQyrlC+BkqCSO9BR1tJgUtFBIUUUUAFFFFABRRRQAUUUUAFFFFABRRRQAUUUUAFFFFABRRRQAUUUUAFFFFABRRRQAyvK/HfwF8IeO/i54F+Lmq2NsNU8EyXLwTBSkr+ZEVQb1wSFY52k7cEjHJz6vSFVPVQfwoAhVVzkPmpKdtHpSEU7juOooopCCiiigBlfIH7f/AOxPon7TPguXxT4Us4bP4i6BA76dcA7f7RiGSbWT1yfuH+Fj2BNfX9NKgnNBV7n8zfhHxV47+BPxHh1fTzeaJ4k8O3jJNbyAxvHKjFXikU/eU/MpB4OTX7M/s9/Hnwp+0J8P7fxl4cdYbuILDqunlsyWdxjke6HBKtxkfSvNv+Cm37CK/EjS7r4+fCbRwPFGmQmbXNPgT/kJ26DmYKOsyKOg5ZeOoFfmp+zr8f8AxP8As7/ES28W6S7y2crCDVLBmIS7ts4ZSOxHJB6ggdK+N4w4Wp8QYRypq1aPwv8AQ9LLMwlgqlnsz9xDRXL/AA78f+FPil4PsPHHg++W80rUog6YPzQv/FGw7Op3cd+3HNdRgDgZr+acThauErSo1laSdmffUqka0FOOzCiiiucsKKKKACiiigAYA5BGQeCPWvzU/wCCffhKC3/4KMX9jHGAmgSa6yeihA0Y/wDQq/Szv+KV8A/8E1I11X9u/wCImtswaSOx1mZB3Yvdx5/Q/rX7L4QtqWJ7afqfNcRJOjFvzP14JyK/OP8A4KT/APBQJfh1Bd/Ab4Mav/xVdxE0WuatbPkaZEw5hiYf8tmHU8bB9a9B/wCCi/7dEP7Ofhn/AIVx8P7iOXx/4htHxKJB/wASe3bjz2XnMh5CKfTNfjX4q0TWNDii1bxhLPLrviCNr1o7gkzxxuciSXPO585APIGD3r9q3Z8jDY5aeea5kM1xK8jsSSzsSSScnk+5J/Gvvv8A4IzaiLb9onxHYs3F54bk49Ssqn/GvkT4E/Arx5+0L8QbH4e+AdOea6unBuLllPk2cP8AFLKeyj8yeBX7x/srfsp/D39l7wJbeG/D9rBqGuSL5mqa5JAFmu5iBux12IMYCg9KZbPxT/bogNv+198VotuN3iO5lHbIc7h+hrkvhPqPg7wH8ZtL1/xK8OsaD4bujqbRNGCl+YVLRxFTkYdsAj0zXoP/AAUUtv7N/bN+JSFT+8v4Zv8Avu3jb+tfOwBlf7OAZTIf+WY3Hj+7/nms7EdC/wCIvEV/4m8Q6l4o1Pyxd6rdSXUojQIoZ2JwAOAOa+jv2KvgRdePNZu/ivrOkrqGjeGby2stI06YZTWfEMzD7FaEd41OZZTxiND61wnij9kv4w+EvFfw/wDBGs6VANf+IkMNxpukxybru3SRiAbiMDMfALHPOAT2r9iv2afgHoPw5m0fwTpMJk0L4TW72yXHlADUvEt3ErXl4QPveTGwhXrgvIM5WmgR7p8Jfh7bfDPwPYeGI7pry6Xdc6heuPnvL2Qlp52/3nJwOy4HQV2qfLmmDn2/z/n6U8ccf1oGPooooA4f4j/ESDwHpUuranqekaNZwR+bLd6jOxAH+zFGCz/mK+brzx78ePjPq8Fv8LPD3jGfw60nmPrWof8AFM2FzFu+7AuDdlPWUHJXgL3r6+ubS1u4zBdW8MqF9xV0DDI5Bwe4PPrVpVCgADAHQVVxHzfoP7I1prs/9r/F/XotVlkO59G0WJ7LTlY8lZJdxuboDOMySAHHK17x4Z8NaB4Q0yHQfC+h2OkafbjEdrZ26wxL77V4z6nqe9bOKDz1pXGKDTqZSg00yWh1FFFMQUUUUAFFFFABRRRQAUUUUAFFJkVy/jvxpY+BtCl1u+DTOZEtrO1jP7y7uZDtihT3Zu/YZJ4FAHU0VieGV18aXHN4lmibUJyZZo4B+6gJ/wCWSk8naMDcevXvW0OlAC0UUUAFFFFABRRRQAUUUUAFFFFABRRRQAUh6UtIelAC0UUUAFFFFADSKSn00igBkkayKVZQQwwQehHpX5Af8FPf2GU8AahdfH74U6QB4e1GcyeINPt14065kYk3CKOkUhPIAwrDP8VfsDWVrnh/TfEelXug63YW9/YajC8FzbzpujlRhhlYehH5YFBSZ+B37Ff7U17+z945/snxFczS+DdbdYNQhByLVyRsuYx/eXHODyK/YDTtRsNXsLbVNLvIbq0vIlngmifcrxtyGB9DX5P/ALfH7E2rfst+NP8AhIfDUcl58P8AxDcOdMucZaxlYlvskpBOcKflb+Ie4Net/wDBOL9qdgbb9nrxrdgkl28O3cz42n7zWhz2PzMv4gdFFflviDwnHH0nmOFj78fiS6rv6r8T6DJ8wlTmqM3oz9DqKKK/AT7MKKKKACiiigA5Nfkt+zb8dNY/Z08ffFr4waVpMd7qDaFexaYkwJiE0moRR72wRwpBOO9frFqNz9i0+5vM4MEM0v8A3yhP9K/MP4vfCp/D/wAD/Cp02xjkvte+Gmp+Ib/zjteKFdcW6WTHclJUUeymv2jwjjZYp+n6nzPET/dRXqfKOsfEvxT4x8f33xI8b6g+ua3eTm7ea9JdTLn5cr02DoE+7jAxitHwX4K+J37SfxXt/Degw3OveKvEl0XklfoozmSaVuiIo5J9PwzwTjHbGa/aL/gkp8EPCvhj4Ap8Xm04P4l8Yz3CtcygF4bSKV4kiQ44U4LH1JHoK/Z0fIwPf/2Uv2WPh7+yd8OV8OeH4VvdXuEE+u65IgEt7MBzjusa8hV/E5JJr2jTdS0/VLODUtNnFxb3MazRSL91kPIIrmfix4y0rwB4B1HWtYMghkCWKeX186ZhHH/48wrC/ZkumvvgH4GnZ2cvpERLMeSQSP6UpMp9j8bv+CqGgy6T+2h4suZl+TVbTT7yLjqPs0aH9UNex/8ABNb9n3UPiz8BviQ+gajb6Hqut6tZ6SNfeATXOn2KAvcC2BxiRwVXOeOKr/8ABZ7wO+lfGfwb48jjIh17QvsbH/ptBM5Iz7LKlfUX/BI/wRqXhb9m661a9u7SWHXdTa4t0gfcUCgA7/Q5IGP9moEcx+yP+xhr3wW+NnxH+LPjU3WtS+HJJND8Dm+lkle5Ei8zFpMk/fCccA+YRxX3Z4G8Lw+EfC1loRfzbhFM11MTkzXUh3zSknn5nZjz2OK2jb5B4P3t3/Aqk2nOSOaoZh+MIfFK6R9s8ISxNqVk4nW1lIWO9VfvQFj9wt2boDjPGSK/gTxto3j3RBrWjSyAJK9tdW8yGOa1uYztkhkQ8qytkEGumryTx/4J8ReF/FJ+L3wuhjbU5NkfiLRPuRa3ap0kX+7dxJnY/wDGv7tuNpUA9bHSn1zvg3xr4c8d6NHr3hfVYb61djG5jPzQyr9+J1PKOp4KkAg1v5FAGXqNneQTf2npimaRf9ZbFtomHbBPAYetTaRrljrNoLqxdmAJSRHUpJE4+8jqeVYdweR6VerkvFPhjVo7h/FHgq4WDWVC+fbSEC31KNekcuOjgcLJ1HQ/L0AOvByM0tc34M8aaZ4vsZJ7RZLe7s5DbahYzcT2dwPvRuP5N0YdK6TrQA+iiirICiiigAooooAKKKKACiiigApD0paQ0AMJOa8V8HO3xh+Jt38RJ1aTwt4Nmn0jw0uCYrq/UmO81AA/eCkGCI8gbZiOSDWz+0F4u1rQ/Cdn4T8HXBi8WeOb5PD2jOOts0oJnuyPSCBZZenVVHeu18G+FdH8DeGNJ8G+HYPI0vRrOKztkJy21Bjcx7sepPUkk96ANxFHAHQVJSAYFLQAUUVS1bUbXSrCfULyYRQ2yb5GPYf40AXaKq2kxmhjlkGzIzj69vwFWqACiiigAooooAKKKKACiiigApD0paQ9KAFooooAKKKKACkPSlpD0oAWkIzwaWigDi/ip8LvBvxi8Eap8PfiBo8eqaLqsZjmhbhkP8MkbdUkU8hh9O9fgn+1V+zj42/ZC+Lx0Rby4l09pvt2g6wow0sYbKFiPuyKfvCv6Ha8c/ab/Zq8BftN/D288E+NNPjW7EbPpepomZrGfHyyIe46AqeCKTSasy02ndHzp+yP+0bYftDfC+DV7u5iTxJo/l2etWykA+YflScD+5IB16buK9xr8b/C2tfE/wDYM/aRutA8UWMkR02f7NqloWPk6jYOciRCOGDLh1YdDx2Ir9efCvinRfGnh3TvFPhy9S80zVLdLm2mUj5kI6H0Ixgj1Ffzlx/wy8nxn1rDx/c1PwfY+5yjHrE0uSb95GvRRRX56eyFFFFAFfVLH+0tNu9PE7QfaoJIPNUfMm9SuR9M18weIfCPgl/BmgeLfHevWGk6H4r0XxF4BsdQ1GVYEg0aLS3h08Dd2eS1aUY5LzrjnFcB+09/wUZ8K6Ba6p4C+DEaa3qM0Mtnca22VtbUspVjEMfvSMnB+79a8X/Zq/Z5+K/7V2saN8R/jXca7e/DbQb6w0gm5meJJ1eRIFhtlXAVUBUuwwBjBJY5r+gfDnh3MMrU6+KXKqnTqfIZ3jKNZeyjq0fMvin4dR6L8PvDPxA0zVxqFrrMt1Y3qBMfYr6Bhuiz3Vo3R1PGcn0r9dP+CVHxo03WP2WrXw1rd5HDc+EdcOgxIAAZFuXElv8A99M7Ln1FUNa+B/wY+FH7TulfBzwpoVrpdh44hh8RWGml1e0guLEGGdEUjKme2lk7nmLNfFfwJ+Kvg/4N+Ofjd8PfCmsPLodxcxa54ZuZJCnmXGj6j9piTawyGeFZV5wTtA5yBX6g48p81DRn6X/8FFfGVv4K+AUGoXO7ZL4i0tcKcE7Zw39K6D9iHxxo3iD9nL4faRHej+1l8OxX0tseXSB55UVifcqa8E/4K1eIrbXf2QfDniHR5t9pqmuabeQSqeGjeCSRT+QBrzf9ij4+aN8OPAc+v6laTXj+F/hnpaC0jlVZLueXVbhIoUJ4DMZEAzwOpwKiQ3ue/f8ABTf9nHXfj78C49V8IpDJrvge5k1eKOQ7TLa+WfPQH1wqtg9dteGf8EavjgLnQfFPwG1e7Bk02Ua3o8bHDPG5IuFHqd3ltjsCa73/AIKWftBa5ZeHfCv7MngJpoPFXxRa3h1JYjultbCZxGIjj/nq5Kk/3Y36ZGfHfij+xV4r/YGtvC37TXwV8Tal4ln8L6kW8QW8kATFhIqK2FXnZkOrH0dTxioGfrEHDDOKMd65b4Z/Ebwv8VvA+jePvB2oR3ula3aJdW8iNnGR8yN6MpypBwQQa6mmhCEA0hT2Bp1B6Uxni3xJ+Gfifwrr8/xg+CMKJrxw+ueHTIYrLxFCuM5A4jugB8kwGSQA24Guv+FfxT8M/Fjw2Nf8OzSxzW8rWmpadcp5d1p12n+st50PKup/Aj5gSK7Ygk1438Uvg14jPiYfGD4J6pa6J46gjWK7tboH+zfENquT9lvFUEhuTsnUb0J7jIoA9lHSivOPg78Z9F+KVrqGlzWFzoXivw9KLXX/AA7f4W706YjjIBxJEw5SVco45UmvR6AOG8dfDY65KPEnhG/GheKrRQbfUUXMc6r92C6QYE0R6YPI6qRVfwD8U18QaxN4D8Wac/h/xnp0QkudMlO6O6izj7TaSf8ALeAnqcbkJ2sB1PoJ6EVx3xG+GPh34laZDa6s1zZX9i/n6Zq1i/lXunT9pYJOqt6jlSOCDQB2ntSg1434X+JfiPwFrlp8O/ja8cdxdP5OjeKYo/LsNZI6Ry9ra6xjMZOxz9xjnbXsSurgMpBB5BFVe5Nh+RS0ylBpiHUUmRRkUALRSZFGRQAtFJkUZFAAelRknNSEjFeNftFfGa6+FGgTvpESzatc6bONNhOD519I8cFqmO/72ZWI9FNAGT4EuW+Kfx/8W/ESRpJdE8CA+EvD4b/VveEh9RuFHQkOsUIPpG3rXu0K5G49+a4b4J/DmL4WfCzw/wCCGl8+6sbbfe3B+9cXchMk8rHuWkZm/Gu+UYAFAC0UUUAIxwCfSvDdb8TTfFb46xfDbRZ2Ph34frFqviaZDmK41N8NZWTd/wB2N07r0J8odiDp/tJ/G+1+B3w+utcUJNrV8WtdHtm58yfaSWP+yg+Zj6Cm/sufCe7+Fnwps7HxBI1x4l12eXXfEFy5y81/cne+4/7OQoHQAUAetxorEAD5E4A9fep6QAAYAwKWgAooooAKKKKACiiigAooooAKTrzQfSloAKKKKACiiigApD0paQ9KAFpD0paQ9KAFpCAeopaKAPln9uP9jLw7+1F8P5ZdOht7LxxoiNLomplBl8Ak20rdTG56E/dPPrn4O/YH+O+ufCrxzf8A7MHxcjn0uZr2SKxjviVayvxjdAQeivj5e24jHUZ/ZSvhj/goX+wzL8b7IfGb4SWy2nxH0GEFooj5Y1eKI7lUek6kEoT94cZ6V5eb5VRzjCTwldaS28n0Z04XEzw1RTiz2sjHPX/P9KTGOM5968A/Y7/aFf42/D1tK8Txm28aeE9lhrlvL8krEfKk5Q8gsVKt6MDnqCff6/lfOcrrZPjJ4WstUz9BwmKjiaSnEKKKK8o6k7nxD+xd/wAEsrm9n0/4kftOWLx2kqJc2vhcsVkkfJx9rI6LjkxggnPPHFfpzL4V0YeHP+ESsbGCx0uOBbe3t7WIRx26qRt8tRwuMAj0NbYTJ3OMseg9KgvruDTrSa+un2QwI0kjH+EAEn+Vf2rtZI/LIp297c/GH9v39oHVfCn/AAUCs/F2gXLPJ8N2sIYkRuN6/vJlH++sm0/jXlP7efwttvhz8YYPiD4GYf8ACIfE2wTxLos0B+RVnUGaEMP7rk8ejD1rznxZqF78f/2mtRvrZmnn8ZeMJBb+vky3G2P8Fjx+VfWX9kWn7Rf7H/xG+FFjGbzxb+z3rtzqWgKeZX0RpCJI1K8ELskx/wBc0olqBtfFXxyPip/wSR8J6pcymW88J61a6LdZOWRoXaOLP/bF46+ZP2PL/wAQeL/2gfh/4MjvTHpT31lNqu9yI/sVgXuWLnsgAYn3xXNfDv4yXWh/BL4j/A3VJ3fSfFcdnq1jkn9xqFrMr7hxwXQbe33Vrl/hX8TZvhevie+06yd9U1vQ7jRLS5D4FoLjCyybcfMTHvQezmsZaop9z74/ZPvb79r3/gpH4o+O2owNc6B4PE95p4k+ZUiQG2sEHboWl+qk1+r2q6Tp2uaZdaPq1nFdWV5E0E8MihkkRhgqR6EE1+ff/BHv4Lal4Q+EmtfGLUdRuBH44uFhsdOJ/dJBaSSKJj6sZGccHgIO/T9DwcjNQB8C+ArTWv8Agnf8Z5/BviGaZ/gD8Qb95tK1WZt0fhvUHOVhnb+CJ87dxOD8p65r76ilSVFkQhlYZDA5BH1rF8a+C/DHxE8Lal4K8Z6Pb6ro2rQNbXdpOm5JEP8AIjqD2Ir59+Gms+Iv2UfENh8FPibq91qXw41OdbTwP4su3LtYOeI9Jv3P3SAMQzH5WACnBFAH0/RR060ZHrVAIMk9KR2K9qjmuRFggUyO6WbtQB4/8cPgBdeO9W034nfDLxO3g74l+H42j0/WUQtBe255axvo1wZrZjj/AGkPzIQay/hb+03Hqeur8M/jjog+HnxBh2wixv5VFlqzZx5thcnCToePkHzrkZHNe9Z4yK4n4pfCD4e/GXw43hj4ieG7fVLDO+MsCstvJ2khkHzRuPVSMc+poA7UHPB60pGa+KPEOr/tU/sZQSPb2F78bfhTbcQTSEnX9Ct1HCyMMtdRqoA343AD5sAZPtH7PH7YvwR/aUsxH4H8Rrba5GrG50LUMQ3sRXG4qh4kUZ+8hI9cUAeqeJvCGgeNdGvPDfivSbfU9Lvk2T21wm5GHbjrkdQQQQeQQa8fgv8A4ifs63f2XV01Pxp8N9xEV+qtc6toQJGFuMZa4t1AwJAN6j72Rg1715i54NIQp7E0AUNA8R6L4o0i18QeHNXs9U0y9jEtvd2kyyxSKe4ZeD/Q5BrUzXh3in4QeKfAOtXfxB/Z8nt7S6u5PP1fwjdNt0vVzyWePH/Hrcn/AJ6rwxwGGOa6v4WfGfwz8S4b2xtob7SfEGkFI9W0HVIvKvrGRs43L0eNsEpKhKMOhzkCkwPRqKBnAyMGimQFFFFABRRRQAV8WX17afG3/goSng2RhNpHwv0WLVLtVfchvN2I0x0HMqNjn7tfXfjDxRpPgrwrq/i7XLlLew0axmvrmRjgLHGhZj+Qr4m/4JcaPqPjXSvif+034jhxqPxE8SzLbMwIZLSE5C+43MAP+udAH3eB8qj2qWogc7fepaACql7qljptrPe39wkFvaxNNNI5wqIoyzE+gAyat18Mf8FHvjdqK2fh79lD4fX7ReKvihdJbajLGwzY6SX2yM2DkCT5sn/nmkhoAzvBGqP+19+0JB4ymhkm8I211JLpERBEX9h2c2BcEHqby7Cgesds46E197qoUYFfPX7Gnw/03wv8NP8AhK9Otfs9vr4hg0lGGDFo1ovkWWP+uiq05Pc3BNfQq9OaAFooooAKKKQ0ALWVq/iLT9He3hupB5t05SOMH5mA+8QPQZHPTJA6kAv1jXNP0LTbzV9YuFs7Gxhe4uLiQ/LHGilmY/QAn/6/FeQ/DW81b4keK9S8ZahA8VlaybYoJBjyj1itiP70akSS4PMsm3nyhQB7YDmnjpTF6U8dKAFpDxS0nWgApaKKACiq8F9a3FxcWkMyvLalRKoOdpYZGasUAFFFFABRRRQAUh6UtIelAC0UUUAMoPPWiigD8+f2zfhHqn7O/wAVNN/bR+Eeis9n5otfH2lWwOye3cgG7CjpwTuPQMFbP3s+5eFPFWh+NvDmneK/DN6l7peqQLcW06EEFCOh9GByCOoNfQevaLpviDSrrRtZsYbyxvYXt7iCZAySxMMMrA9QQa+I/hF8PJf2b/iP4k+Bct3cLoV6za14UEzFo5rRmxJGhPKyw5CMAcMuxsdTX5d4kZDDG4T69TXvx0+X/APeyPFOlV9nJ6M9wooor8CsfbnvjHaM14F+3P8AE3/hVP7LHj/xPDceVez6Y1jZsDhhPOREhH0LZ/CvenG4nHevy0/4LH/tDaRNp+hfs4aFcie/WePXNfMb5WBAGEEDf7RJ8z2G31r+0T8tPgD9m34kaB8G/i9pfxO8S6TPqieHUnurSziKgT3hhdYQ+7ooZwxIyRjoa9e/YB+NFn4A/aji1nXt8lp4xD6JeWmxpVuPtl1FgFR94qTnn+HdXytFFPe3UdtawyTTSuEjjjUszuxwFUDknoABX7Nf8E7f2CYPgrp1r8Y/ippkE3j7UYxJY2csYYaJCwOcdvtDDAJ/g5XGcmq3IPzW/bH+Btp+z98bfE3gSzimtobbUZLnTg6HZNps6iS3df8AdJkiPvGK8u+GPgjUviV8QPD3gDRh/pev38NlGTyFLsAWP0GTX6ff8FgfhNb+IPC+kfGPTrUvf+ErhNK1ZVHzPYXWWt5SepCzK6+xY+tfOn/BJr4dw+KP2mrXxdfQq1t4ZtJ5oy65Xz3iZR+O1mI9xWbRR+j3wv8ADEv7Hl/4X+G093LL8OPFDR2Nlczn/kD68Yxvic4wsN06syEn5Zdyn7ylvqVRtAFc18RPA/h/4meDNW8CeKrQXOl6xbtBMvRlPVHU9VdWAZWHIKg15b8CPiZ4h0fxNffs5/Fu+EvjHwzbLNpmpv8AKPEWkg7Y7pQf+WqDakq5PID9GIXOSGeveMNffwv4dv8AxCLaSdNOiE8qRjnywwLt/wABUMx9gaq+IvD/AIT+JnhG78PeItOtNc8P63ahJopB5kM8TjIII49wRyCARjg10Lxq6sCoYMMMCMgj0I9K8Lh1e/8A2bNVj0jxCZLj4WX90VstVbk+GHkbi2uD/wA+hc4jk48rcEb5QGqRDPD/AIg8S/s+axa+A/iLrVzq/gW9kS18PeKLuQvNp7E4jsNQfv8A3Y7g/ewqsd2CfdkbcoYHqM1Q1XTNE8TaTcaRqVlbahp1/CY5oJ1EkM8bDGCOjAg1meCPBaeBtPOh6dqV3caZE3+hwXT+Y9rH2iWQ/MUHYNkj1poZ0RQMOVBrOu9JuC5udNvGtrg/e3DdHJ/vD+orWwKMCmBzFh4xtobxNG8RR/2XqchIihkbMdxjvFJ0b3HBHpXTjkA4rO1zw/pHiGybTtY0+G6tpOWSRc4I6EH+E+45HYiuLmtvHnw8iL6VJN4v0hXytlPIqahboP7kp+W4x2Vtrdtx4oA9AkhBBAUFW4ZT0P8An/Oa+Tf2kv8Agnf8LfjRfP8AEDwFezfDv4gwHzoNa0dTDHNKBwZo4yp3E4/eIQ31r6T8JfELwr44t5JNB1NJJrchbuzlHl3VpJ3SaJvmRgeORj0JroPegD8xdG/bT/av/Yz8RweAP2w/BN34y8NFvKsfE9gF8+SMZw6yhQk/b5X2uB1JNfcHwQ/ak+B/7QekrqHwx8dWeoXAUGbTZSYby3bONrxNhh25GQexNd3468BeDvib4avPB3j3w7Za3o1+hS4tLuIOj+h55VgeQwwQa/NP9oX/AIJOeJfCF7cfET9lLxbfC4tpPPh0Ga4aG6hA5K290GG7norgfWgD9TQTjpg15n8Vvgf4f+Jk1j4gtNTu/DHi/Rwx0rxJpQCXVsxIJRgflmhJHzRPlT7V+cPwK/4KX/HD4Q64PhV+0p4Yk1S9sXFuz36/2dqMRHQMzAxy+xIXIx83Nfoh8Hf2l/hT8a7NV8Na9FZ60iK1zomousN9BnoTHn51PZ03KfWgDkdG/aF8T/CvW7b4f/tM6VBpV5O4g0vxhYKx0XWD2D97ScjOYnypIJViOK990vXNJ1uEXGlahBcoQDmNw2Pris7xN4X8OeN9Bu/DHinR7TVdK1BDFdWl1EJIpVPqp4yOoPUEAivlbxf8E/i/+z2Z/EPwXvNX8Y+FLbMi6FHdCLXdJi7razvlL2IYGIZgWwAA3AppiPsiivmL4VftXXXiLw62uRaUfGmj2DeVq15osHkatpEo+8l9pTnzI2X+IxswJU4B6D3jwL8SfA/xL0xtW8EeJLPVYYm2TrE+Jbd/7ksbYeNuvDAHiqFY6Wik3c4xRu7YoCx+ev8AwVy/aMvPBXgDTvgD4bZW1Dx9bs9+wb5o7NJUCrxyPMZWH0Br60/Zc+F6/CH9n7wT4A8tY5tP0iBrtQMEXMiiSbPqd7kfhX5lfEExftef8FUbLw3GftXh7wtqkNi/8SfZNNBkn56YaXzP++hX7ESy21pDvllSKNe7MAP1oBkiqARin1StdUsbtitrdwTEDJEcqsQPcA1a81fRvyoEcz8SfiJ4c+FvgbXPH/iu5EGl6BZSXty2QCVUcKue5JAHuRX5Cfs6SeLv2p/jl4w+OfiZZft/jDWE8IaGSxP2IXaO108fotvpsU44xhpUPU16x/wWD/aXWOLTf2Z/C14Q8jR6t4jaN+ijm3t2Hv8A6wjv8npXr/8AwT6+CH/CGQadb3caifwPoaxXZMfL6/qypdXpJ/vQW4tLf6bvU0AfbulaXZaRp9npGm26Q2lhAlvDGgwqooCqAPYAVfFMiXAyfp/jUlABRRRQAUlGRXG/Ff4n+G/hN4RvPFniWdlhto2aKFP9ZcSY+WJB3Zm2qPdhQB4x+0v431fxH4o0T4NeEk825vJ4Z7xFORLKx3W8L4H+rXYbiQdCsSqfv17z4O8Laf4J8M6f4Y08lksogskrHLTynl5WPUszEkk+tfPn7JvhLVfFPiHxD8bvGxM2sz3txZxKfmSG5bZ9q2H0j2x2wIAH7hyPvGvp4Q9+fzoAkAp1IBgYoJxQAGlopM0ALXnvxN8f3ujS6X4L8J28V14r8TTPBp0TN8lrEgzPeyjtHEpBx/E5RRya6Lxz4z0LwD4X1Pxf4kvVtdN0i2e6uZOrbVHCoOrOxwqqOSWAFcD8GvB+uTSah8XPHVq1t4p8XJERZN8w0jTlJMFih9QDvkIA3SN6KoAB33g/w1b+FtGTS7a5muXDF57qY7pbqY8vK5HG4k9BwAABgAAb46UxVCjjipKACiiigAooooAKKKKACiiigAooooAZXnfxj+Een/FTRrWE3p07WdIuVv8AR9TjTMlpcLx0yNyMuVZe4Nej0w9KwxOHp4ulKjVV4suEnB8yPnq2+327SaVq8aRahaELcxp93cRncn+we1WACea6j41aDdWelP4/0W1ea50KIyXltGuWu7IcyIP9pRlxjk7dveuL07WdM1XTrTVNP1CKe0vIEnt5k+ZJo2GVdT6HP6V/MvF3D08ixjsvclsfd5bmH1mik3qj1D4y/FXQfgr8L/E3xL8STqlp4e097sIWwZpMYjjHu8hVPxzX86HxV8XeJvHPjbW/G3j6R21/X71tQu0b/liJPmVAOw2FAAPugAe1frX/AMFJ/ibpmreFbrwukpuPDngZotY8SCNsLeamxZdO0osODl980q84SIZGcV8E/sUfssax+1v8bbi68WieTwvotyt/4kvQdrXBZ9wgQ9N0h3cDoAeOK/qRI+DZ9H/8EsP2Jhqd1Z/tK/E3SoJtOQlvC1jcoSXlViDduhGMDH7s5PPPpX6uwQiNRxzVbR9I03QtMtNH0iyhs7GxhS3treFdqRRqMKoHoBV05xweabZJ8Y/tlWsT63P4e8THHhzxjFF4T1CRh8tvDqEbfZph2BivreHByOJcZHfw3/gkb4Z/svXfGfh66szFqPhG4uYNULjBM8jiJAB7LCf++jX0z+3r8H/GvxZ+GF9pHgF4RrUlst3B5jFd8llPHdKikA/MfLbH0NeVf8ExvEem+NfG3xl8aaeFDaxNolxeADGy8+x4uEPv5weoZR9/BVI6V4r+078Dbz4reGrLxB4K1MaL8QfCMx1PwvqyD5o7kDm3kx96GUZR19D7V6V4W8a6b4qv9e0q1jaG98O6h/Z97A5+ZWMayI3+6yOpB+tdCRmkB4/+zT+0Nonx+8EyagLJtH8T6JO2neJNBnP7/Tb1OGUjqUbG5W6EH2Neqalp1hq1jPpeqWcF3ZXcbQ3EE8YeOVGGCrqeGUgkEH1r5I/ag+GPi74I/EGL9s34F6Y91fafCtv488P242rrmlggvPtHBnjAzuxnAyeM19LfC/4l+EfjD4D0j4i+CdRS80fW7dbi3cH5lyBuRx/CynII9RWbVhnj91Z+Jf2USL7R4NU8T/CIyYuNLhVrjUPCwOT51vjLXFmB1iHzxhsruUbR6xovxb8Ba3YaVq+m+I7S40rXFU6XqMcga2uyf+WaP0Eg4yjYbPGCQcdjtUgcV8z/ABZ/Zt1vQZtZ8XfAXTdKkt9bzJ4l8A6iNujeIOctJHgH7Jdf3ZUwC2MjPzUrgfTasGAwQR2x3pa+APh5+074++HMt7a6Bpuv+NtB8PrjxF4J1pfL8ZeEVDfM0RIxqVqNp2svzBQASxya+uPg1+0H8Kvj54eXxF8M/FNtqiqo+1WhJjurOTAzHNC2GRhkZyPpmqEejMe1Rsue1KGJPNPAzQM4Txp8JPDPjG8i12Ka90LxDag/Ztb0iQQXkeezHBWRD3RwwNcevxE+IPwiTyvjHpS614fjO3/hLtDtWPkR54a/sl3SREDBaSLemMk7BXtNFAHPeFvH3gvxtaJf+EfFGmaxbSoJI5rK5SVHU/xKVOCM8ZHpW/Xzr8XP2KfAnjSebxT8MNa1D4ZeMQxnh1Pw+5it5Jv701sCEYk9XXaxzklq8Xn/AGkP2wv2Tpk0/wDaY+GS/ETwXbuI4/GHhaM+cinoZoj0OAeWCn0JoA+m/jx+y98Fv2jtFOk/E/wdbXk6KRbalABFe2xIAzHKOew4ORwOK/Oj4n/8E/v2jP2ZPE+n/FH4F6lD8TNF0C4FxbadqNuHvbZFZWCPHnEwJHWMqR/dFfe3wQ/be/Zy+P0jWHgnx5DbashAOl6uptLo+6o/LjOOhNe6qY5EDqQVPRlOR+lAHzD+yp+3b8PP2iVTwdr9qfBfxEtl8u58O6g4Vp5FHzm2ZgC+O6EBh6HBI+mTc2rXAtXni80dEfqa8s+MP7KXwK+OjJe+OvBUB1aFleHV9PY2l9Ey9GWaPDZGTjOcVl+G/hl8RvAFtb+BtU1O4+I/g6NwtjqWp34i1/Sx28ybCrcAdBICjjgEMCSACn8Y/wBk3w74314fEj4a6/ffDj4k2yn7P4i0UhGuTx8l5F9y5jOMEPzjvXzn8RdH+Pmj+Zf/ABb+Ft1o/jDTwf7P+Kfw0d2+0bRx9usY8SsrZO4bHA5ITANfWeo3/wAXvhwBJBor/EDw8hOWtmWHWrdOvKNiO5+qlWOehxzoeHvi98I/ifa3Ggx63aNMwMd5o+qp9lvIucFZIJgGB/D3B6GmB8M+Gv8Agon8X/h3ZInjfTvDPxE02FyJrm2uBpOpjHQEgNbTMO64jk6hkBrZh/4LE/DXXPDviiCH4c+JtF1q00m5k0qaXy7qB7sIREJdmDGm8r83INdh+0l/wTX0P4k/aPE/wi8TyaFq7oWS0vHaSCVuu0THL7Tk/LJ5iem3nP5w/tJeA/HvwE8MwfCf4k/DDwxpOv6lcrfQa5p6Fbu5s4yVMb7GMLqz4OVwSQBimgPqv/gjL4Aude8bfEb426wpnkggi0i2mkGS01y5nnYH1+RQf96v1WktklBVwGVuqsMg/hXyV/wS5+HP/Cvv2QvDF5JBsu/Ftxca/O5GGZZH8uL8PKijI+ue9fXWM0yWcF4l+B3wu8WZbWPBlgZj/wAvEANvMP8AgcW1v1rx34qfCTSfgp4H1v4jeGvjz8RvB9n4fspbwQtq51S0Z1BIUwXgkBz0CgjrX08/TFfnF/wVx+NbaX4Msfg9pV0Y/NEeqatsblizFbOIeuWWSUj0jFAj89PBGp/EL9oT9pE/EjxD4X1D4hX1tef8JLrdhDLFbSXNhZ7WkBLDYihEVcAc9AK/VD9k39tT9nyTRm8G+NvEcngnx5qWo3uraxZ+JYDYCW8uZmkYRyN8hUZCKCVO1BhRwK8U/wCCQfwIgn8F+OPirr9ir/2+B4bsnZRnyFO65xkdC7BT/u193/GD9mT4I/HzQ10f4peAtP1Zo4hHb3oTyry3wMDy51w4x6EkeoNAHpdjqNlqFvHdWN1DcQyqHjkikDqynoQQSCDVneD2r86dZ/ZA/a5/ZMkbXf2PfiveeKvDFuxlfwfrzCRlUHIWMN+7c89V8t+Biu1+Cv8AwU3+Hmv60vw/+P8A4avPhT4xiYQyJqSMtjNJnGRIwBjyf74A9GNAH3EDnpQelU9L1Ow1azh1DTb2G6trhA8U0Lh0dSMghhweCKu0ARE4r8+P2kPidqvxe/aci+F3g+JrrTvh/wDZbJef3cviO8P+joy/3YUzKw5/4936dvq34+fGmy+Emi3Osz3Eccei6TeeI7/c2D9mt0CxxH0aa4kijX1wx7V8h/8ABMbwNqXjS71X40eLCbu7N5darJPICTJq+oAmVsnqIrYhQD0+1NQB98eAPCGk+AvB+keDtD3Gz0i1S2R3+/Iy/ekf1d23Mx7ljXR1FEuwYqWgAppOaU8U2gB9QTzeWM/5/wA+tSu20cdTwK+dv2nPjHqmj6LdeA/AMJvdfu3trRvLb5Bc3LhLa2J673O52XqIo3PpQBY1O/tPj18YYPC+nA3PgX4c3MeoavIrfu9Q1zaHtrfqcrb7hKw6b2QEfLz78eTmuC+CnwwsvhL8O9K8GWz+dcQobjUro/fu76T5ppWPclyfyA7V39ACgd6dRRQAUUUUAFFFFABRRRQAUUUUAFFFUb/VI9PubKCaMlLyXyBJnhXxlQfrz+VAFug80UUARmDNfAPxS+LGn/sU+PtW8E+J/DWrat4K8RSf234Qaxj3iySRmN5Zng4WOUqyDskoHav0FrlPGPw48F+PWtT4v8PWuqfYfM+zecufK37d2PrsX8q8zM8pwebU1SxcU0tTehiJUJXifjJ/wUJ+Kl/rOueEvgra6BJoF1pFj5viHSY1Cwz6zLMf9JDf8tt6bWV23cSY5r9VP2P/ANnzSP2cfgfoPga3t0OrSxC+1q6x8097IoL59l4RR2VR71+Dvxu8TfEfxZ8Vph41a6vPFOirb6FIQN8ryWi+UuAByfkzwO9fr5+wb+3z4O/aA8IW3g7xzf2+kfELRbRY7u3dsLqkSDm7g9TzmROqnLcqTj14uM4KcXe5k0faYGTiqtvqFtdzXMED5e1k8qQeh2hv5GlW8intWurV1ki2bo5FOVb6V51YeJk0345DwyxJh8V+Hl1K2P8ACJrSUxzjHqUlgNISIf2j/iTpvwd+FmrfFPV45JLbw7BJL5cYyzySIYkUfjIK+Nv+CMczax4M+Knii5jVbnUvElu8oXoCYWkwPxc19Sftr6EvjH9lX4kaNGQJP7JnkTIz80I8zP8A47Xyf/wRPu1HgH4kaaDymt2k2PY25X+lSxn1949Zvhh8ZfDfxL84RaF4tMfhTxKcfIlwzE6ddEdFAkZ4Gf8A6eI8nC8e21zXxI8DaX8RvBWseDNXU/Z9VtXtyy8NGxHyuvoysFYH1UVzHwB8dap4x8DfYPFRVPFfhe6k0DxDGBgm9t8AzAHnZKhSVf8AZkHpikB6NPDFcRPDPGskcilXRhkMD1BFfB/iiHVv+CenxhPjrSI7if8AZ78eX3/E7tEzKPDOrTHH2mMckRSEfdHHVeu3P3mRnINYHj7wL4X+I/g/VPBHjDSYdR0nV7Z7S6gkUHdG4wcHse4I6EChjNPStY03XLC21XSL2G8sryFLi2uIXDJNGwyGUjggg9auV+eH7OfxT8VfsX/Gx/2OPjrrE0/g3U3Nx4A8TXWdmyRiVtnfpgklO21x2DAD9DUcOuQQfp0rJgeR/G/9mP4ffGqS38RzLc+HfG2lDOkeKtHkNvqFm45ALr/rE9UcEEcV+e/xJ+Fuq/Bf4gx3Pxx1XWPAPiG8mB0f4yeCoGTTb6Q8JFqtkgCJJu5YqFyDnDdv1nwayfEvhfQPF2jXfh/xLo9pqem30ZiubS6iWWKVD2ZW4NAHwtoP7VH7Vf7PdpZ6j+0D4Kg+KfgG9VXtfHvgtUmJi6b5Y4xtIGMZIXP97tX1X8Gv2m/gn8e9LTUfhb4+0zVZdivNYNL5N5BkZIeBsPkeoBHvXzx4i/Zo+Nn7Lt/eeMv2PrtfEPhG4maXVPhnrUxeF0/i+wyScof9k+vGa5Dw54C/Yl/bV1Ke50fRNT+E3xdsXMl9ZWTtpGsWtwBzJ5ZAScBurBcgYztppgfoP15p2a+Kv+Ee/wCChn7Oo3+G/EmgfHrwjZcxWesZ0/XEiHQeb0d8ZGWZ8nHy9q6Twh/wUU+Eg1FPDXxu8OeJ/hF4kztez8T6fIlszDqUuVGwr6FgtMD6xIJGKY9qkqNFKqujghlZcgg9QRWT4Z8beEfG2mxav4Q8S6ZrNnMoZJ7G7WVCD05U1tq34fjQB8o/G/8A4Jt/s8fF+aXW9M0d/B3iFyXF9pGY42k7M0IIQc9Sm0+9fOOseE/+ChH7IbqPCPxCufF3hSDiJL60fU4BGvZ2w1xCMY5G8e9fp0xJH1phAIwQCD60Afnx8Nf+CselWpi039oP4YX3h9lfyZtc0SQX1iW6ZZR8ye43Fhn7or7T+GXxq+FXxm0ldX+GXjvSPEEOwPIlrOPOiz/z0ibDp/wJRXL/ABI/ZP8AgH8VhLL4t8AWf22YEPf2Ra1uW/3njI3/APA91fKXir/gkR4f0rU28T/AL45eJfBWtxuJbYyqHRGHIxJCY3H1+agD9DOn8q5fxp8M/h/8QoFi8ZeENL1Zox+6muLcGaI+qSDDp/wEivkPwdrX/BS34EyJpHjfwZ4d+M/huFxEL/TtRjt9TSHs537S/GeCrH1Ne/Wf7TPhRIoT4h8FfEPQp5FANve+Eb9nD9wDFEysPRgeaANWx/Z18AaRLGdG1DxXZW6uGNpH4kvWgPttaQ/zr8Yv2/fHV78cP2w9Z0TRZjd2um30HhbSlU7gxjZUYD1Bldj+NfsR4y/aJ0vT/h34o8ZaJ4V8UG20LR7zUGvL/SpdPgTyoWYZa4CE8joqnpzivxZ/Yu8MXvxc/bK8BLrStcG51t/EF7u5+WIPcZP1KKKpAfvd8O/CNl4C8A+G/BOnxhLfQdKtdOjAGBiKJUz+OM10lNJ5zTYpVlUsOMHFMgq6xqVjo2mXmsandJbWdjBJc3Mz/diiRSzsfYKCfwr8Bv2x/ibrHxW+NNxcXSs1xcSnV7i3PDRvKq/ZoD7x232dcdnaX1r9iP2y/G9j4e+GieGbu5aGHX3ml1JlOCmkWcZub457Bo0WD3NwB3r8i/2R/hvqX7Q/7UmiXniG03nXdfn1jUImHypbW/7+VPYZMaD6YoA/Yz9kf4Vj4O/s5+B/As0SxX1vpqXd8AOftNxmWXPvucj8K9kX7lRxqoxhQoxgAcADsKkoAK8y+Mn7N3wY+PenGw+KXgPT9ZYACO6KmG6iGMfLNHhx9M4r02igD8+r79l39rX9kW7l1r9kL4gTeM/CKOZp/AuvSI7quc7YZHIA6/wsrcfxV73+zx+2Z4O+NGoHwH4u0XUPAHxGtFKXPhjXUME1wyD53tWYATrwxwvIAzyOa+ivevn79trRvAVx8DdavvF3h/T768byrPTrueL9/ZzyyKolhlXDxugJfIP8GKAPz/8A+Chfx1uPEem3PhTQppLi58f6okzQp9/+xbNjBpsIH/TecXF0T3GzqDX6U/su/CO2+CXwQ8LeBREov4LJLjVJB/y1vZBulJ+hO0f7KrX4yeDjpUH7W/hR/idqWrap4b8I3tpqWpzize5ns7C2AkiW4VAcxRkRK7AAKu4881+7vh3xLoXijSLHXvDWpW2paZfwLPbXdtIHilRuhVhwaANgdKWkHSloAQ9KbT6wPGvi3Q/AnhfUvF/iS+Wz0vSbZ7q6mIyQijoB1ZicAKOSSAOTQgRynxg+I9/4V02x8O+ELNL/AMZeJrg2Gg2bjKCUANJdS+kECfO7dOi/eYCvD/gF4HtvG/xi1PxYmoz6v4f+Gl7cWFrqU/XXPFEsYXUdRcdCIkYQRr0Tnb0qj8SPFXjrwf4Avvi3e2UkXxc+LU9v4R8D6S48w6LbXDnyIAvGXRDJczv3ZNvRFr6O+DHw10r4Q/DbQvh5o7ebDo1okEtwxy91cn5p52PcvIWY+5psbO3UdvSn0gGBS0hBSHpS0UARk4PJ4p46VxnxV1ybQvCwe2LedfahZ6fHtOCWmmVP65/Cu0oAKKKKACiiigAooooAK434pzzWPgXVtWgVmn01FvYNpwVeJgwP6EH2JrsqzNe0lNb0e+0mQgLe20tucjgb1xmgBvhzXbPxLoWn69YsDBqNtHdR4P8AC4yK0q8F/ZK8cR6r8P38K3W43egalcaduY8sp/eRjHsGdfrC1e9UAFFFFQB/PH411b7N+3Fca8P+Xf4iQzf983yV9Y/8FEv2GdX+GGtN+05+z5p81lYxzfb9b0/S90baZLnd9rhCYKRliSwHCnkYXgfDms6vc6/8c7fxZLbNbNrXiODUo4y+/Ystwsi/Nxk1/R7NaQahCbK9iSa2niMc0bqCsiHIKkHqCO1LBpxw9NPsjWtJSqux+cX/AATd/bxsPG2pSfBb4qGCy8Q6ntbS9QEhS3v5lGGjKHiKVuuFwjHOACTn3r9uPxJqXwT8A+Evj5pVtdX83gLWpIJYIpArNYX0LwON2D91xbn3Kjpmvzm/4KIfs06T+zB8cdL1/wCENzdWVjrMD+IILW0DBtIlhmAyhAyse912k5xX1v8ADr9oBP2+P2KPHfwnnhgb4pad4fZLnTd237fJCQ8NxCO3mFACOzHjjp07mex2Gs/tERfHb9k7XviH4VvbSxk8WeD7+zktppFC2muWURMttgkcNExcY6qorwH/AIIj3F63iL4n2ZuD9mWy06fy/wDbLyjP5DFfLvwI1PxPqfwo+JHwXka80/VUtT4r8PxsGRxe2IZLyBQe727TIydSVGele6f8Eb9TvtL+L3i3bIV06/sYLSQZ/wCWpLtF+ges2M/ZIc814P41aX4OfHnSPiQWEXhX4gLD4c1/H3LfUF40+4bPChtzQk57p6V7uvKiuX+KHw/0n4oeAta8DaypEOq2rQrKrFWhk6pIrDkFWCsCPSkB09GDXln7OvxPvfiP4ASHxCPJ8VeGbmXQvEdqRhor6BipYj0kULID6NXqo6UAeE/tdfsueF/2o/hfceEdUdLHWbBje6HqYX57S7AOOeuxgSGHuD1ArwL9hv8Aau8V6H4guP2Rf2oPM0b4heHGNvpF3qEm0arAv3U3nhn2gFGGfMU5HPFfedfGf/BQr9mnwd8W/Dul+LNO1i08K/EbS5hH4b1mQmCK6nB3JZTT/djZ2/1TMRh+mehmSGfZqEMoOPrSV8EfsQ/8FBo/FV/H+z3+0gZfDvxH0ib+zIrzUF8ldRljAXy5d2NlzkHIPDnkHPFfe5qBDCcfMe1eB/Hz9lX4U/tHxRa7e2l14d8X6cxOm+J9KDWuoW8q8AllwZFHTBJOOhFe/wCM9qTaODgcdKBnxFo/7QXx/wD2SriHwn+1R4WvfFngeD9zafEjQ7VpRHCPum/iUEq20ctx+NfTdhqHwZ/aF8HRahYv4W8d+G7tSVZViu4eRyCDnY3TIIBru72xtNRtZbHULSG6tpl2yQzRh0cehU8GvkPx/wDsS694C8UXHxU/Y68bx/DvxHK/n3WgzM50HVWzlllhGRFn1QYHYUAbHib/AIJ4/BF9SPiT4R6t4n+FOuBt63fhPU5YImb/AG4GLIy/7IwPYVQtvh//AMFA/hLH5fg34teEPivpURJS38T2R0++2+nnRfIfqc1Y+F/7btvB4og+E/7UXg2X4UeOpMRW0l85Okao/Tdb3R+VcngKxPPGc8V9UW9yrokkEiujqGQqdysp6EEcEe4ouI+VrX9sH40eDpmtfjb+yF4803ylzNqPhpF1izUDqf3fz4+gNdb4T/bx/Zi8VX8WjTfEa38OapK2xbLxLBJpUm7+7+/VRnkcZ719BfeG4xqc+3NcV8Qfgl8JvizatafEbwBoutowIzd2iGQH1D/ezTuM37PxRod6YVh1G3P2hQ8DeapSZT0MbA4atYZBz3r5lg/Yw1L4cQzW/wCz58X9b8NaXLnPhvWkXWNH57LFL+9j9AUkXAJx1rj9X8bftsfBUM1z8IIfGml23Jk8MXhv4gn94Ws7Jcxn/ZSRlHvTA+y1+9SuiO2WUNg8ZGcV8S+Gv+CrHwKj1Q+HPitoHiXwLq0OEnW+sJGRG77l2iRRn/YI9zX0p4C/aL+BvxPhjm8CfFXwxrDTD5IYNSiE5P8A1yYh/wBKAPGv+CnHjlfBP7IHi+NJds2v+RoyIDgss0ih8f8AAQfzr4X/AOCS/h6y1n9rDXtfjh3weH/CjrG2OFkkeGPP/fIlH417l/wWo8UC2+GXw+8IxS4fUdamvHXP3kihKjj2ZxXK/wDBGjwTqljH8Ufie1hLcWsklro1sIyqvLKgaSULvYDpJH1IHvVID9S+vNNXC8AVxmnfF/wTdaynhjUb+TRNbnLC20/VojbSXRA58lm+Sbv9xmPBOK6TXdE07xJpF1omqxNJa3abJAjlG6gghhyCCAQR3FMD4t/a3lj+JHjXV/DIk3WLyW3hSR85ENpBF/a+sy+wEUNlAx9WI71xn/BKz4UpZav4w+JWo2eHsLS20K1Yj7txcZvLwD3Uywxn/cNQal/wkXgabVNT+IsuqXvw+1DwrqtjL4nNi0snh6812VmE11/FPGIooYmkTlQQDgnFfRX7Kev+AfB3gyy8B6dqEL6t4gluvEtr5bL5WqRTzEl7aTO2UxJ5aug+ZduSMHNBB9Kr0z60tZcHiLTbi6awhmH2lAMwPlJMdztYAnHsDWpQA+iiigBCMjFfF/7Z/im18X/FrwN8GJbsLpWkW914w8RMucJa20UjhH/31RgPc19ntX5X/FnxhL4j8B/tTftIvM2L25h+H/hvJ6wiaKObaffDD/gRoA5f/glxoOq/FP47fFz4wym3jZdPkt4pbmISQYvZ95ikQ8MpjjAxxXomueNfiJ+wZ8TrzXfDHha/l+Gur3T3WueDA3mppzNjzL7SnJAaHqWVcbDgOq8Guz/4I4eA10H9njxD4wnjzL4l8RSrFIR1ht0WID6bw9fZvxU+EPg34xeDrjwb4zsTLBIfMt7mI7Z7ScD5ZYnHKsPyI4ORQA74T/FrwJ8avBNj8QPhz4httX0e/UbZYm+aKTALRyL1R1JwVPIrsg1fjlqur/GP/glz8elu47d9Y+HXiiXfdW8AKWuooDzLEvSG5UHkdD/usAP1g+GnxP8ABnxc8EaT8Q/AOswapomswia3miblePmR16o6tlWU8gigDrScivn6aWT9oX4qC0W2M3w7+HuoLJJK4Jh1rXYzxGp6PFankkZBl452V0nx08da1BHpXws+Ht6IvGfjN2t7eVQGGmWK/wDHzfyegjXhc/ed0FY3xl8a6B+yZ+zPqepaBEPM0DTo9P0aDG+W91KUiOHPd5HlbexPLYY00NHC+Dpbj49/tm6/41j23Pg34JW0nh/R5BzDP4guVH2uVeoYwxkRZHTPavq6JHQYYivGP2R/hHd/BP4F+GvBmqN5utSxNquuXDctNqV0xlnYnqcMwX6KB2r2odKQhaKKKACiikoA8j+M9zJqPjr4WeDraU+Ze+JTqcqdmgs7eWZiR6bxGPqwr12vEY5v+Er/AGqdv3rfwR4TkOf7tzf3OFH18m1f/vuvbQcjNAC0UUUAFFcj8VvFEvg3wBrXiS35m0+2MyKOrEMOB9a6m1uEu7aK6i+5MiyL9CMj+dAEtFFFABRRRQB8Q+Cteb4b/tSeIvC+7y4L/wAUzWvlAYSPzwl7Cw7cxajP+EeO1fbh61+df7Xdy/g79orxF4gieREtdH8L+NflPHlWGoG0vAPXdbTnPshr9Eg6sAQwIbBHuD0oAWiioIb22nup7OKUNLbhDIvoGGVP44P5VAH86Hh7xHd/Hf8AaT8EyxeGdO0l9T1rSNP+x6bF5cCLHJFGzhecZAZz7k1/RjEo3dPuqK/mx+D3ju7+BPxp8N/EO90BL648JaylzcWE4wSUYrInfDjnB7Mor+hGy+MngzWvg+PjboOpxXXh6bRX1yKTzApaBYfMKnrtccqR2INaQSS02sipRam7nwnpPjfS/jB/wVW8TeDdfC6r4bsPDt54U+xz4eGRNiPMuCOjPvB/3QeoFeB/tVfs/eOv+Cf3xX0z4ufBW4uLbw/dX3naLqhLM+mTbgZNPuR9yWF1PAYEEKcchqs/8Ezb6/8AiZ+2NrXxH1B2e9vJrrVZyedrXDSE/wAxX66fFL4Y+EPi/wCBdX+HfjrTI7/R9ZgaC4jYDcmekiH+F1OCrdiKpvlQz8UPHHxC8O+N/G2h/tl/DLR7bT76xv7c+PfDEGf9Eunyst0i5+e1uUyCQMB+G5YE/Rv/AAT3+HMWgfEj46aL4SK3Ulmuj634edjsM0DNJdW4Hs8TeWfqe4zXw1+05+zv43/ZR+Ker/DrWL+eWymjL6ZqMQMaajZO3y5AODjGHTkBh9K+pv8Agkh8VZpf2hG8G6lCqy33hR7GOUPzMtrN5kQOe6JIyjn7qih6q6Efr34a1m28QaJZ6xakeXdRLIBnOCRyPwNaZ4FcDoly3hHx/deD3jK6frsb6rprFgFSZSBdQKPTLLKB6O+OAK76oGfOfxERvgj8ftE+K9qDF4U+IJi8OeKVA+S3vxxYXhHQbv8AUM3/AFzzX0UjblBzXL/Ej4f6N8TvA2u+AtfXNhrtlLZysBloiw+WRPR0ba6nsyg15x+yr8T9V8XeFtU+Hnjl9njr4c3p8P66hIzc+WoEF4uOqTR7WyO+6gD3GsXxJ4a0fxbpN74b8SaXbalpeoxNBc2txGHjkQ9iD3HUHqCARW1RigVz8eP+Ckn7GvjP4eLH8W/C7XfiHw3a7IZb9t0l/pcK/cS5cZaaJfupMx3oAqszA5Gr+wl/wU51LwgbD4TftGajPfaN5iwab4mkbfNadAsVyerp6SHkd89R+sup6XZavZXGm6laQ3VpdxtDPBMgdJUYYZWU8EEEgg1+OP7df7DV3+zb4nl+MPwn8PjWPh1qExOp6RPGXTTS3LRsfveQc/K4OUPy88VLQz9jrDWNP1jTrfV9Iuoruyu41lhmicMrqRkEEVk+OPH/AIT+GvhPUvHHjjWoNK0XSoTPdXU2dqKPoCSfYcmvxz+CP7eGufsx+C1T4Z3P/CY+C711CeHfENwUu/D94RuaKGVcmW3K5w2FyeMA1ytv8V/2g/8Agon+0Do3w71nXbmw8P6zcRG60XTmcWFlZQ/PNIVzy20N8x5JIFTYR+mM3xs+Pn7RJh/4Zf0rT/C/gu4jEi+PvE1m7falI/5cbFgGkKsCC0uF9uK0NP8A2c/2hIZBqWo/treMrrUTyyjw9poss+nkFDx/wKvfNB0PS/DOh6f4c0O0W107SrWKys4F6RQxqFRR9ABXimg/Ezw18Yv2om8L+EbmS6t/hBZXJ1jUYJSbeTUb5RElmMDDFI45XZskBgq4zzTsM5v4pfBX4ueNfCV14G+LuieE/jL4WlwvmWVsNF1u3J/5bw73e3aVeOA8QPevmTTvEH7Rn7EVjPceENb1nxJ4Q0wiUeCPFsLrNcaapw0+n3HzMpjBHmw4ITO4B0IYfqGY2Pv+ANcZ8V/hR4R+MXhG58H+MbN3gk/eWt1AdlxZXAHyTwv/AAuuT6gglSCpIJYR5F+zp+3z8Cv2iYrbStK1lfD3iqRV8zQdYkWCZm6HyX+5MMg42nOOoFfRZO47s5zX8/n7Wf7PfxA/ZQ+JE3hrWoUuNM1OSS60fVI4WENwuc+bEQcxTLkbkB4OCMgjPR/Bb9vn9oHwTc2K6z451bxBb6TaGziglYC4WFm3BmlcMHCEfxj7pPIqRn7zDI6U7g5Ffnx8NP8AgqHo+qmCx1TT7DWbzavnwyTjSb9T3AjcPBKfTbIpPoK9x8Pf8FEv2W9Yuv7N1vxrP4Vv+FFtrtnJb729FkUNG31DUCPWviV8DPhJ8YNPbTviX8OtB8RREYRryzRpY/dJMb0PupFfIPxJ/wCCQn7NesvPqvg/XvFPgqQhpHEFyt3bR4/upKN4/wC/mPpX194d+PPwZ8Whf+Ec+KnhPUGf7qQ6vCX/AO+c5/SvDv25v2ztK/Zp8Jabpum+HLfxHrPiqC7WCGa7WG1it40/eSO2CX5ZFCgcluoppjPxZ+KQex8T2/hO3+IeueKdI093e1fUPMxboXO3YruQC0ex224HzAduP3j/AGOPhBovwU/Z/wDDfhDR547sXMTapNdhNpnkuWMpYg88BguD021+PH/BOfwFovxb/a40Gx8U2X23T7OK71aVGOV3RIWQHP8ADkgY9hzX7421vFbRJBDGsaRqFVVGAoHQAelWgMPxb4J8M+N9Il0PxXoFhq9jMPngvIBImQchhn7rA8hhgg8jmvKLvw18Svgx5g8Fya1468CzxmC48PXVz5+raUrDAksriQ7riNRgeRIxYKPkbjafeaa8YcUxXOK1/wAJ3t/8O5fDPh9rOOY2It4Yr63EkEqbceVMhySrr8rd+DX4+/ED4m/8Kf8AGerfDufwrf6PYWtzFdR6Zc3E6xaZc95oJF2uiDrFcxESJu2yeaoxX7arCF4GBXzb+2z+zR8M/jV8M9Y8TeJNLubfxF4d02e6sNV02ASXiiNS/lFePNRtuNpI68HsQVrnzz8M/wBt3T7a0sPCH7Q+m3GuaLFAJrDxLb4fVbSJuBLMIMCeNen2u1OeP3iKd1fWWg+J/GSaJa+MPhN4jsPir4RvU8yGI3yLfpEed0NyCIrgjIykojfrmQnivym/ZR8Y/CLxh4fb4P8AjHxDDZQqXutL0nxBc+TAt+f+WumakNrafOx25Rw0bnqK14/+F6/sma9P4++EHjG5NtDdGLxFpm+K5WGQclL61iJikJBUrcwgEryUBzQI/XTwN8ZvBXj65m0jTbqWx12zCm90TUYzbX9qT03wvhgPRgCp7Ejmu6Bz9a/OL4d/tzfBD9qGbT/Dfxp8N2/g7xfEdmm3wvGjRpehax1JADE3zf6uQlDnDEmvpfSviF8UvhnZm41iK5+Jfhy2AE99YWyw65YRcENNaglLsYJ/eRspPZWJoA7j9pj4jN8KPgT418eQnF1pukTmy55N067IQPcuy1+eX7ZXgm3+En7JHwT+CEzP/a99JJresSxgl2ljge5nZ+cnEzAcn+Gvub4j6t4A+Pnwy0qLQdUstd0bVdf02N5EJzbOlyjsJIz8yOArZRgCO4r4n/4KA39x8T/2ttL+H9k25fDXhZbWTB4WbUrlYCPqEkP4GgD6i/YI1DSvAvwI8CfCLXrCfRPELaSNZhjugFi1RLhjKZrd+j/6wbk+8vcYwT9VbjXA+I/hN4a8UeB9N8H3ls9oukQW40y9siI7vTZoowqSwSdVYAY9CMg5BIPM+BPiXrvhfxfB8Hvi9cwJr0yk6NrXlmG08RRL1MechLpf44Mn+8pPNAHWfGX4QeBPjt4B1H4c/EPRYdQ0vUE43L+8t5gPkmibqjqeQR+oyD+VHw9+InxG/wCCWn7Rt98KfiG99rPwu16T7Qrqm8PauSEvrdcgeauNsqD72wjqFNfsYefx4r43/bx+D9n+05Lpfwl0LTVm1zwzYy+JdRv1UNJa2h+SG0T1luJFLKPSBv7woA9Z/Z8sJfGq6l+0TrbLJfePQraRGGDCw0ND/okIwcBpAPOk/wBp1U/cFeX/ABzZvjv+178OvgBB+/8AD/w7X/hPfFCjlGuB8thCw6Z3MXAP96vi/wDYj/bK179k3xtcfAP41TyTeCZbgmyvm3MNLd/mWSMHkwSDqvVSPXcK+7P2H/CV3rdl44/aV8RR7tW+LeuTajZM6nfDpETFLKMZ/hKDeB/tCncdz6it4ljRURQqqMADoKmpqDCgZ5p1IQUUUUAFZ2t6va6ParcXT4DuI0H95j0FaBOBmvnn9qL4nWPg21v55izReFfD13r92oPDSOGhto/95sXDD3QetAFr9ltD4j1H4lfEybc6654ql06zdv8An00+NbdAPbzBOfcsa99rzH9mjwbceAfgT4L8N3/zXy6TFeXz4xuu7jM85/7+SPXp1ABRRRQB8z/t9eMD4W+C0FpA7C61rV7ayhVWwWzu3D8ia9f+Busy+Ifg54I1ueQvJe+H9Pldj1LfZ03H8818o/8ABQzV49e+J/wN+FULMZ7/AMVWN9MgPDQNcrE2R7AOa+jf2Up/P/Z98FpnJtbFrI+xgleH/wBp0AetUUUUAFMb2p9cr8Ur86X8PPEWoK7IYtNnwynBBKEDH4kUAfGP7dOj/bfj54ZtVTMXiXwDruiNxw0jQzrCD9JZYz9QK+vPgl4n/wCE1+D3gfxasnn/ANreH9OvHkJ5aR4EZvyYsPwNfMv7cca2vxD+C+uN0eW5SU9/LW4sWbn6M3516L/wT2159X/ZU8I2Ezl5vD5u9FlyeQYLhwoP/AClAH0ceM4Ga+Zf2ifjrB8B/iLDdaixFt4h0e3WHnAMtvNceYfynj/Svpqvhv8A4KEeAtT+Kms+D7PwnqUD3OgpfrqEKjc0JmFs8e70yqkj8aVgPjP/AIKLfsxT+EfFf/C7vB+nY8PeIJMassS5Fpd/xSEDor9c4xu4zlhXnPwp/a+1XwX+yb8S/wBmjVLy6lk11Yk8PzKNyQpNKq3kWRyFaM7h759a/W3UdJ0rxBpN7oGv6fDf6ZfxGG6tZkDJMh6qwPbv9QD2r8o/2zP2SLH9nLWdM8e+CtS+1eF9Y1PZb6fN/wAfFo4+cRbj99DtO1sfXpX5rwJxhHMaUMvxcv3qVl5+Xk/z9d/pc5y32Cdanstz1X/gjvYtp/7Q/jXS7jDS2uhYB7B1nVc/kTX6rnxTNp/xbj8KXe4Ra5oRvbLJ4M1tLiZB77Z4z+Fflt/wSZ1q28R/tXeO9ctY/s8Or6PcXnkf88i86tiv0G/a80rxNY/DY/EvwJeva+IfAry6hbzogZvsskbRXQweoEbebju0K1+ntdz5xamB+3h+y1p37TvweurKwtY4vGHh9ZL3QbjA3NJt+a3JPVZAMEHuFPavyA/Y78Qax8G/2qfBes6xaT2TabrsWlapFJ8jwidmgZG/Hn6Cv2x/Zb/aD8KftJ/CTTfGug3sL6hbotnrVkpG+zvEGHQgfwkjejAYKsuOQa/JX/go74YuPhn+2L4vutPQ28XiKzstctiBwbgRoxkHv5sLc+7VK0dhn7OfFXQdS1zw2uqeGFDeINDmTWNHG7AknjVgYiemJY2eM54AfPat/wAH+KtK8b+GdO8VaLIzWmowiVAww6HoyMD0ZWBUjsQareEppNS8IaFfzNukl0+3dpc9SY1JP51534Pv5Phn8YdV+G9623RfGXn6/wCHs/KsN2CDeWijGOSRMoGBzL3wTIj2Wvkr9pN739nD43eGv2rtHimbwvrIi8KfEOCJM+XaMwFrfnnA8p+Cf7uAOpr61BBGR3rC8b+DtB8f+FtT8G+KLCK+0jWbSWyvLeRciSN1wfp2P4UDNeyu7a/tIb2znSaCdFkjkQ5V1IyGB9CCDU1fLX7KHizxT8NvFuu/sifEi6ludR8GWv27wlqM5YtrHh4uFhOT1eAkRN9F4xyfqQHPbFAmLVDXNE0vxFpN5oet2EF9p9/C1vc206B45Y2GGVlPBBHar9McnNAkfg1+39+xtqv7MPj5tR8NQyz+APEtw0mk3BGfscuCzWkhz1XDFWP3l9wa9A/4I56BrN/+0frGu2cO+w0vw5cLeP2BlZVjX8SD+Rr1L9vf45+Pv2qvi9bfsWfAHTodYsba6jk1i4hVW+0XURDE+ac+XDBglnA5br0AP2p+xv8AsjeD/wBk/wCH7aLpbrqHiPVkhl1zVSObiVV4jTPSJSW2+vU80rDPLP8AgoP+2tp37Ofh+D4c+GJGm8ZeJLSV2aJwG020MbqsvP8AG74C+i7m9M4X/BHrwidO/Zu1XxzdiRr3xX4kuZpZZDuaRIUSMNk9ct5lfN3/AAWc+Ht5Y/FHwb8TrKJnsNc0p9MkbH3LmBzhSfdHXH41+iX7E3gmz+H37Lfw48NWqbHTQ4Lu4GOTNcZmcn/gUhH4VIz3HgcdK5vR/Gug614k1jwnb36rrOiLE95ZPxIscgzHKv8AejYdGHfIOCCK6ByR0r5n/a4j1L4Wah4Z/ar8MRO0/gaT7B4ot4hhr3w5cOBPnGCxgcrMmThcyf3jQB2H7V37Ofh39pn4TX3gXVoYV1GAm70i8dcm2ulHykHsG+63qpNfg18Zvgx4z+BXi6Twx4s0m706YlzbiRSBgH5kDdHABXkHBBU9xX9Hujavp2v6VZ65pF5Fd2N/BHc208TZSWJ1DKwPuDXhP7ZH7JPhX9qz4cP4eu5F07xLpxa50PUwpJimxzHIepjfABHXIUjpyAflZ4T8L/B/9o34f/D3UNT2eEvFmk69b+DvFmqaZGA80N0hTTtUki4UhZEWGVsgkspJ4xWZ4g/ZA/aq0jwRH4z0LwtJ478Ow3V9Zyvp8Zvbi2a1uZIJBJbkecCGiJ+XcMEe9eMa94a8f/A3xfrvgXxXp9xp2rWjnTtRsScGT5g8UkfaQB0SRWH90etftf8A8E9vHNv41+F/iKSKTzCuvvqSvnhkvYIrgkDt+9eapA/EXT7rwTp2ojT/ABx4U8R6TJFMVun0m/FvLFj737mZGAYf3crXefGr4f8AhHSvhT4e8deFp/iK0N9q9xpdsPFlvHFHLAkMUoe12cMNz4c8jhMHk4/fzxZ8Lfhv472t4y8CeHtbdGDB9Q0yG4YEdMF1JHWvzl/4LXWIt/DfwiNnGkNrbXmrQRwxoFSPMdrgDHsn6UwOR/4IpeC7e68d/EPx3cxIZNO0210y3crnY8zs7Ef8BjA/Gv1wHWvzM/4ImQWx8IfFKcnM51PTv++PKlr9MwADgdKqIDqKKKogKiuYI7mF4pY1dHUqysMhgeoPtUteS/FP9pb4e/Bjx/4Z8D/EdL/R7XxZHIthr80OdNFyp4tpJQSY5GHI3AA560DR+FP7Z/wkm+Cf7SHjTwNHZyW+nrftfaZn7r2s4EqFT6DeR+Fef/D74oeLPhxrTa1oV75huMLdW9wPMhuk/uyKeD9eo7EV+8fx8/Ys+A37UPiLSfHPxCtb+e70+0e3t59NvvKS4hfJTfgHdtJyCCP8PxX/AGtP2avEv7Lnxfv/AIfau73WmTD7ZompFMC9smYhHIHAcY2svZh6EUDNC28LeF/jlFcT/DWaDTfFU/z3Phi8faLqT+9aScCU9PkO2Xg4Mteg/s//ALePxm/Zr1WHwf4u+3+IvDdhKIv7M1BnivrFQfmEE5G5OSfkJKHJ4Ga+RkuLiObekr+ahBR1OCpB9a9+8LfF/wAE/FSyi8FftJ2MtzMiCLTPG9mi/wBq6fjolyePtkI/6afOOz4xQFj9Vvht8QPhR+0GP+Fx/s4+LrTw/wCN1CtqdnJ+7tr5gOINUtezHJC3KAkE/K/Va8L+H+mz/Ev9svxR4r1ywMVxqfijTbQxuS2yO1ZnKAkAEZteo618KeK/h18YP2XfEtj4/wDB/iCeTSWdjpfinRJd1rOh6xyDnaWXAeJxgg4IYV9ifsYftveCPGvxYnvfjtbWtl4kv0sI9Iu03R23nwRSx5Xn5GYSsfLbK8/KQTigk/WJSQBz/F/9auO+Kfwp8M/FzwtN4W8TLKke9bi0vLZjHdWNyhzHcQSD7kiNyDXQaTq9lq9pHeWFwk0MgDKyHIINaAOeaAPmz4Z/H/WPhtd6x8H/ANpXVbe38UeGbCXU9N1sKI4fEmkxLxcRjOPtC42vGOd2Mda9E+AnhzVrbw9qHxC8W27ReJPHl42tXyPktaQMNtrZ5POIYFRCOm7e38VeX/tg/CG3/aGutA+FGhfZbHxNYbvEsesupLaasB/dRtjnbNLhT7Ixrov2V/jxqXxV0HUvBPj6ybSfiN4Kk/s3xBYOgTzWHypcxgcFH744BJHoSAfDP/BWL9nfSPDtzpfxG0DTWWXXL77Pbx26lm85gzzxYznBx5i4GAfMH8eK9J/4JVftjf8ACaeGof2cfH93t1nQLX/inrqUhVvLNODb5/56R5UAd1Psa95+I/gvQ/2gv2px4N1+3FzoHw18JTXM6KPuarqTeXEwPZ44I5HBHILCvyH/AGgPhz4+/ZC/aJluNGu5rC90TVRqmkXkYIX725HAzgqw7dCGIIoA/oaB7VIOlePfsqftBaD+0v8ABjRPiZpHlwXkyG11axDZazvY+JYyOuM/MpPVSDXsIoAWiiigBrnC1+dnxs1gfGTxn4Y8G2V15n/C4PiEltGoPzL4b0dgrPt6FJWiupB2y4PXmvsT9ozx1feCPhbqdxojN/bmstHoWjIpwzXt2wijYf7m5pD/ALlfNHwB8JWXib9tLX7uwTf4c+AXhKy8FaWxOVOpTx7rqQepG2RW92FAH3EqJCEjhjVUwFwOAABgCpelMUZb2FSUAFFFFAH5w/Ha6uPHX/BVn4W+ELeTzIvDNnb3sqdQoWG4nJP0LJX1p+x/N5vwOsY85EGs65Cvsq6pdAfyr46+DrS/EL/grv8AEPXY5AYfCml3NvuxnBSOCDb7ffb8q+v/ANjhw3wW2jonibxEo+n9rXVAHuFFFFABXmP7Sd8dP+DWvSK+GmNnbAD+LzbuGPH/AI/Xp1ePftQ77nwPoOjRn5tW8XaHa49VF7HKw/KI0AeDf8FC/Mt4Ph5eIdrafp3iC5GO3lW9q/8ANa3/APgnndSaf4O8SeFiCsMb6drUQ9ftcBV2/F7c/ka4L/gq74ni8I+F/BOpOrYuI9d035Tj/j4tokrr/wBh+cw6voq5wmr/AAv0a8Yf3pIr27UsffEgoA+xq+GP2ofi5pfwJ+P2rz6wsUlt4s0XTL+ASPtAlia4gkxwedscX5Cvug9a/Jb/AILXabIvj/4Y38ScTaRqEOf9yaJv/alAH3QDg5r5Q/4KV6D/AGh8BLHxHHCsn/CP+ILS7kDDI8psowI9Mlfzr6vrzf8AaN8Ef8LE+B3jPwqkYknuNKmktlIzmaNTIn/jyD86/lHhbG/UM4w9R7cyufouY0pVsLOKPjz/AIJc+KNH1T9tPxfe6NYQ6fp+t6PeS2dnF9yMCWNtq/T5q/UT4/8AgbUviP8ABbxj4L0acRahqelyJa5ziSVP3ixNj+BygRvVWIr8Rf8Agnr8W/h18C/2irfxx8V9cu9I0qx0+7txNFbySjznACqyIC2Dz2r9n/h3+1x+zZ8WJksvAHxh8O6neuMrZNcfZ7lvYRTbXznjpX9Zc3NqfntraH47fCr4+eIv2Svi83xN+F1jc/8ACK6jOLfX/DspI2xljugkGSRLC4kRW9UUn7/Pt/8AwVQ1HwH8Yvh18Jf2nPhvfJdabrEVxo8zggSIoIkEUi9nVjIpHb6YrL/4KUfAOX4JfGpfi1pNj5/gD4kOy6rbovyW98V/fgY4UvgSqR/EDXxD4un1vw5af8K+k16e88Px3Q1ewj3fuZDLGAJ1HTLJ8p91NDXUD95v2CPi4vxj/ZZ8D6/PcibUdOsRo2peoubX92SfdlCP/wACr0T43eB9Q8YeD/tvhu4W18T+HZ11fQrgjO28iBKxnplZATGR0w5r8zf+CMnxrOi+OvFHwI1S622viCAa1pSO3C3cACzKPd4tjf8AbHNfrmQD15qGI5/4e+NdJ+Ifg3SfGOjSA22qWyzhM5MTnh4z/tKwZT7g10eM14j4WJ+EXxlv/h/J+68OeP2l1zQf7kGqJg31oPQOMTr058z0r21SGAI70hnz5+2D8LvFniPwrpvxY+ECpb/Ez4dXJ1bRpVUbr63CkXNhJ2eOWPjaehAK4NdJ+zR+0v4F/aU8C2viXw1ewwarDHs1bSHk/wBJsLhcB1Zeu3ceG6EGvYMDr6V+Lf7VunfE39hH9sAfGLwHPLbWmv3c2p2+Bttb+3kYGaCUD5d24sGGODscfeWgD9pK8t/aY+Mvhb4DfBnxH8RPFhSS3tbVre3tCxDXlzINkcC45+YnkjoAT2qn+zN+0h4I/ad+HVp8QPBlx5UhAg1TTXbM2nXQHzRP/NT0Iwa+fP2wvCOr/Hn9qv4KfAy9s538IWEd14x1VuRFcCBtojb8VVee0jUCsa//AATo/Z1fwH4N1H48eM9Gt7Txt8TWN7LFHFsXTtOZt8Nsi/wbuHbuTtB5WvsnAxgcU23ght7eO2tolijiUIiKMBVHQAVyHgP4o+FviPqfifTvCl4t5H4U1L+yL24jYNGboIHdFI4O0MueepxQB45+398GNM+LP7LXjaxbSkudT0Ozk17TXVQGint1LuQepzGHBHfI9K+DP+Cfv/BRuT4T2mmfBH443Es3hiFlt9I1rILaShPMcyj5nhB6EZK/7tfsFLHHMjwzxrJFIpR0dcqykYIIPUV4b4p/Yh/Zb8WLI9/8HNAtLhyz/a9KiawuA55LCSEq2fxpNXGbt7+1d+zVp+kprl78dPBcdm5YB/7WiLkjr+7B359sVu6Z4i+GX7QHw7v/AOwNY07xN4V8QW1xplxNbSb0ljdSkqcjjhsV4v4X/wCCdn7P3hB2/srR2v7ZlKpba5ZWWpogJ5w00Bkz778+4PNfNn7Rfwg+Ln7Dni7S/wBpP9nO1iXwZpL+R4l8OWkkv2BYZWUPJ9mkZjCshABZCQjBG4GaVhHqP/BOr4q6t4c1Txx+xt4/1APr3wu1O4h0QyN811pfmHG31VSQw/2JFHQV9ygYr8m/hF4/07x1/wAFV9F+I/w63f2F460JNRk5yVik0otIjY/iWSMqfdTX6ymkM+cP2o/2XPA3xg1vw58TrrS1TXPC9yguZ4x89zYFhvBHRniOJk3cbo8HIJBofs+eDfD3we/aO+JPwx8KW7W2k6roek+JrWEuSBI8lyk+3sF3bCAOFBA7V9OFFPBUHNfP2squgftq+DZ4htj1/wAB6rprf7TW1zBMg+oVm/WhgfQgGBivgT/gsj4LfWf2btF8XwJlvDXiKFpDjlY7iN4j/wCPmP8ASvvwdK8l/at+Fv8Awuj9nvxz8N44BJcarpEzWZIztu4sSwEe+9FrS10B+eX/AARb8W/YfGvjjwTIu1NT0W21JCTw0sE7xt+O2UZ/3a/WZfuivw9/4Jm+L38H/tLeBLO9SOIag2reHbhGOJA8kYkiBH++hAzX7hL90ZoYElFFFIgZXnXx4+Cfg34//DfUvh342tFktbtRJbzAfvbW4XmOaNuzK2D6HkHg16LQQD1FA0z8VvD/AO2n+0X+x18ctW+EPxF8QRaz4f0LUPsV3ZNaxtEkIAKT2+ACpKFWKAgEkjg15d+3H+0N4j+NnxEurnWTpuvaI1pbHwvqkVs1t5VlvdpWjUMeXkLK+/LAx4wO/wBe/wDBVf8AYsuNXaf9p74bWEtzfRIieKbCNd2+FFCrdqB/dUAP7AH1r4p+EHg3RvjT8OLvwAk8Fj4g0SV57F5mwH3MTn2Vv9W4HQ7GHJOerC4WWLk4QfvdF3Iq1PZR5rHzoqnJYNj8aYxJPLZrofE/hHxB4N1K50bxDpUtjc2rmGZHGCD/AFHoawsBeBkgVjVpypScJqzRrCSqR5ou6Pbvgz+074p+Hdn/AMId4njXX/B1zD9ln064iSXy4jwQFcFZFAzhHyB2216L8Qv2cPAPxM0dfHv7OlzGs8qGQ+GopmdLsqu51sXclhOnzM1tId2BlC3QfJ2RXW/D34meJfhvqL3eizCW2uCv2qymZvJuApyMhSCrDqrqQynBBrMHE+tv2V/+ChHxE/Z41q18GfEy51LxD4Ljk+yedKhF5pwDcqd3Lbe6P8wzwelfsV8O/ib4P+KHhCy8beDtbttU0q+j8yO5tm3JwASD6MM8qcH2r8O9S1bwV8edCvfF8yXVnrkSR295qM8Annyw/dpfKuFvoyUYLcR7bkfxJLjfXK/s6ftJfFz9mjXLzVfhZq0eoaTJJt1Xw9eKZLa7jDEHKAqwPBAdQGFBB+8PgK2bUdU1nx5ex7pdYmENkWHKWEOViX6M/mPnuHFeH/tT/D7WvA3ifSf2qPhfGLfXfDjJB4jjUfJfaWTh5JVGMhP4zj7hLdUGcj9nD/go98C/jPo0Fv4kMvgHWoykEtrqZzZmQ8ARXIAXHoHCHtyOvvXxx8S2vh/4J+M/E9u9vcxwaFd/Z2bbJDLK8RSIYB+YM7qPxoA89/Y3v4fH3hHxd8dRH5c3xI8SXF5FHv3tBZWuLW3hYjjKrE3TrkHvWf8Atmfsd6D+1F4LEVu1tYeKNPRjp9/Kp2ngkI+O27v6EjvWB+y7oOq/s563H8BNflD6db6dZzWcj4wwdABN+EgeB/pbt/Ea+tiNwIFAH4t/8E/PjD4u/ZT+PWu/CT4iLPaaZd3ostf06U4+yzD5Y71B6L8gf1icHB21+0qEsAfbNfAf/BRn9mbV7y/0r9rP4SxXNp4u8Fywz6ytlHulurGI/wDHyFxhpIQSSP4oy3pX2h8LvEo8Y/D3w14rXVLLVP7Y0q2vmvbP5Yp/MjVgwHvnpnjp2oA7AdKDzRmvOv2hPi7pvwJ+EXiL4palAk66JamSGFs/vp2IWKP5efmcqvHrQB5F8fPH2g23xNudd1i6B0X4H+HLjxdqUDHMcmpXCNHYRsO7YSYj3daf/wAE/Ph3qXhX4AWnjPxUr/8ACT/EjUbnxhrLOPnaW6bMan6RhK+ZPHGieLfiV4T+Hvws163e38XftL+LB4t8URKTvstAtdrxwZbogjwF6ct+FfpTpGm2mkafa6VYQrFbWcKQRIowFRQAAB9BQBoqMD60tIOlLQAVBdTpbQzXEjhVijZ2J7ADJNT1wPx98Tf8IX8EfHnisEBtM8O6hcIS2MMLd9vP+9igD87P+CfHiX7Z8cPjp8c7s+Z/a/irTdDglfv9sv5N2D/uhf0r7d/Y2H/FidOuV6XWs67cfUPql0w/SvzQ/Z6m1D4UfAn4d+KJLj7Mvjbx7capfxnhZ7fT7MXkbfUMoH49a/TT9jO2Nv8AsxfDyRgd15pC3xz1JmdpCT+Lk0Ae3ClpB0paACvFPj/I1/4/+DHhuM/8fPjBtRdezJa2cz8/8CdT+Fe114N4+cat+1t8L9BJyNG0DWtaI9C5jgU/+hUAfIn/AAWw1AQ+B/hhYBiJLnVdRlHPZI4M/wDoQr2n9ky1Onaz8ICet78Gs/8Ak9FJ/wC1K+TP+C1Xixb/AOJnw48GxSk/2XolzqEqZ6NcTKqnH0hNfafwUtltfGfwN+zEeR/wp7yh/wCSLUAfVR5Fflb/AMFpHD+KfhZEByljqpP4vbf4V+qAOOa/KP8A4LSXAj8d/DJc4H9k6h/6OioA+3D1oIBBBGQeCKD1oHFfxnTdtftH6k1fQ/IH9s39ljxV8H/H2p+ItG0a7ufBurzSXtneQwMyW+85aKQj7mDkjPavmVElhYNFvUqchh1/MYNf0K31paajaS6fqFpBdW067JYZ4xIjj0Kng18ofG7/AIJ1fCP4j/aNW+HqDwbrTguREC1lK3vF1UnnlSPpX7lw14k0alKGGzFWkrLm3+9b/dc+Wx2RzbdSg7+Wx+f2nftZ/Fs/DbU/g9401UeMPBuoQiOPT9ZYzSWMi58uW3nP7yNlJ45Ixkd64Gyv4PEnhn/hHrtnS/0pmk0t16yRO2ZLcnucncv0YcZr3bxf8I/F/wACpB4U/aL+EbeIPC7BorbxDo7bbm1HZ4rjG1sDnyphzjtya8y8efBK98N6OPiT8O9aPi7wP5qlNWtEKXGnu33Yr2EfNbuP733GyNpPSv1fD4uhioKpQkpRfVHztSjUou01Ywfgn8StW+DHxb8K/EzSlY3PhvVIrtozx5qBsSRkZ6MhZD/vV/SV4O8X6D498K6V408MXyXmka1aR31nOhBDxOAR04yM4I7HIr+YbU7651K7kvLjb5kpy+0YBPTOPfGfrX6t/wDBH79pj+2dD1H9mzxTqGbvTg+o+HTI3LW3/La3HrtPzgehNbNXMz74+OPgG/8AiD4AubHw/Olr4k0qaPWPD12xI+z6lbnfCcjorfNG3+xIwrH8FfGqz8U+DfB/jGS0+zwaxdDSdYiPyy6VqedjQSDnG24Uwn3dT0r1XO5Mng180+OPDdp4J+KmteCLtjZ+EvjnAwtZkYqlh4qgiG1lPQNcRxxupGMyW/cvUgfTGQeR3rxP9rv9nLw/+058H9R8Bah5UGswq15oN6wyba8UfL/wFh8rexz2rpvgP4+v/H3gK3uvECCHxFo88uia/BjBi1C2OyTjsHG2Qe0grsvEkN6+mSXWlgm/tAZrYD+Jxzt/4EMr/wACpCPwD+APxG+Nn7JHxg1G58MWNza654euZbXxN4bn3GO+toX/AHisvfbyysOQPmB25z+v3wn/AGrv2avjHaeHfirpXiayt9anjTSGtLh8XdhLcuMW7qOgMg4fhTx618B/8FTvCJ8HfGXwX+0V8P4zDaeN9OWR5UXCtd2+3O8Du0UiKeeQh9Ofl7w5bWM1trHiLwtCbNNW0yS8spYrxoBp2pW7x3DwAfxnEalAfXjpmgZ/RerBgGU5B5Br5V/Ya+DSfBbxH8cfD9tqErWVx44eexsnLEW9s0QeNueMt5hXPUiJSe1ek/sk/GSP48fADwh8SWKC81CxEN+itkJdwkxyj/vpCfxr1iz0vT7G6vL61tY4p791kuXUYMrKu0Fj3IUAfQCgC5gelcB8Tfjx8Ifg/Gh+Inj7R9InkG6KykuA13N6COBcyOT2wK4f9sL9oW5/Z9+F/wDavh6zjvfFmvTNpnh+2kPyfaChZ55P+mcSK0jdsDmvkb/gnF+zh4m+Kfim9/bK+O2q3+tanf3M48PLfAkSqcq91sYYCnlUA4AB46GgD6em/bm8EXTBvCnwi+LniO37XNh4Nu/JYeqsyjd+Fc54c/bv+EXxO+J0/wCzp4k+HfivStd1uT7Auma1ozEXMLpl/NQHMa7M53AYxX1jHGFXEQVB/sjj+lfnf8S/2RfHWv8A/BTPQPij4MvrjTNFWxtPFGp6hGCEjMTG3NpnuZfLwQP4XNAit+w/+zHbeA/2y/in420LStR/4QHws134f8MXl380bTmQCeOJ/wCIRDz4+Bjkcmv0a+lV7HTbPTYDbWFrDbxebJL5cUYRdzsWZsDuWYknuSasDipYwr53+OM/9j/tO/ALWTkJc6hrWlMfXzrBio/76QflX0RXzl+1cy2vxI/Z61HGDH8R4Lct7S2syY/PFID6RU5pkq7hiiMk9aew4zVkH4n/ALQngeL9l79vGPVtOzaaLN4m0nxrYlI8KkMt1i5XPYLulP0xX7UW1zHdW0dzEwZJgskZHdW6H8q/PL/grt8LJdS8K+DPi1Y2yebp1zceHtQkUlMQXcZ8piR/dlRPzr66/ZO8byfEb9nH4feLrnd9pu9Dtln3HJ8yNAjfqtMo9cpaQdKWkSMopT1pKAK2oWNrqVpNYXsCTQToY5I3XKspGCCO4INfiv8At4fsieKP2U/iNF8YvhFPNb+Ctavibd4FO7SLlgS0EnUeS3AUng8KeRz+2Ncx8Q/APhf4neDtV8BeNdJh1HRNatntru3kHVWHVT/CwOCGHINaUqs6M1Ug7NDlFTVmfiHov7SfgT4gaTH4K/aE8KiGfCImqW6fq6j5l65BGR6YritW/Z3+Fuo77/wh+0N4WWxz8sWpSeVIg98Ma9e/a4/Ya8V/s/W13fX1hP4j+H6sW0rxPaRs93o2SSIL2L+OIk4D5wOowcg/NXw8+E2ifEYf2ZpvxE0PTfEH2jZFpmqSfZIb6PsYbsgxbz/ck2fWvalm8cVC2LgpNddn95wLCeynzUpNd10ZhfEDTvAGn31rpXgLUrrUxaRGO81GQFIrqXjLRRnlV68k8+grrfgT+yr8cf2jdSWz+GHgm7vLMPsm1W4Uw2EGOu+cjbkf3Rk+1fe/wI/4JP8Awu1x7fV/iN4r8WTtbAfaNI+xx2kcjFQSY50LiaLnG+M4yMZr9JfBXgfwr8PPDll4N8EaHa6TpOnRiO3tLaMIiKPYdTXjYitCpLmgrHbGbW58A/Br/gmTrHwJ8J6t4m1zX7fx3qt9bCPU/B4h26Xq1kPmeAs3zeePvRSDbtdRyAxNfOPxu/Z9+C8tk3iv9mvUtY8G+N/D4jmufCetyeTcLFllbcJWLJMHCxlWOx/lI4cV+1wBAAPavD/iZ+xp8B/i18QIviX4y8LS3OuJp0umyyRXTwx3UTrt/fIhAkKgnGfb0Fc/Mx89z8s/B/xH+Fvjq307wr8bNBu/g78RZbTy9J8eWFgbayvgrMnlajaH93LE7AgsFxyc+h+q/C+oan4O+HOh/BjxNHeTah4o8W6QtxDFHnT9Ss4blLiSbS50JgkjZIDuhCowDcqOa8i+NHwB+IWrfD7Vv2VL6O01PxV4L1Qan4Q1W/hDTazpLg+Xbx3B/wBVOQGXaTslK7Mhsk9n/wAE7fjr4c8b2cH7Ovx+8MpFrHhPUsaDcanER/paK4S3lU8x3SgyiNjgsqlcsy1Y2uqPuTxbomkfEmLQ/G3hN1vtS8PXG2RI3CPJbSbVurV16oSoDgMAQ6KRXqcBycVxfib4cQ6peHxN4U1afw94jCjF9bLujnx/BPC3yyqRxz8wySCDXO6f8Zb7wvexaB8atDHhm8kfy4Ncjbfot6ccFZutux5PlzYx0DPzgEepzIkivFKgdHyrKwyGB7Ed68e+BHw81/4Ma14i+FtrbPN4D+0PrXhWZRxp0c0jGfTmP91JG3x/7LsP4a9ijkjuEV0dTuAZWU5DA9CD3qVVx7UABJzXxZ+1NczftI/tF+BP2UNIuXPh/QJU8XePWiJxHBF81vbOR0Lk9+PmHpX1F8YPifoHwa+HWtfEbxIx+x6RbNKI1OGmlPEcS+7OVX2znoDXwhYX/jH4G/sn+Mfjr4j+f4yftAajHBp6cCSL7VlbaGMHkBIt0v5elAHp37L17b/Hj9qr4q/HyGASeHfBkcXgXwnJj91tjZjcvGOmCQo47Yr7RiXpx7mvGP2Rfgta/Ab4C+F/h9HFi9jtxe6nIfvS3c3zux755A/CvaV+UUASUU3d7UbuKAHV8tf8FKfF0nhv9lDxLo1pJi98WT2vh+3QHBc3Eqqw/LNek+IPiei/tMeE/g5BIVa58Kan4gu1DdVE8EMQI78+bXzT/wAFA9Zi8Y/Hv9nf4J+YRBdeJl8R6op5RLa1YZZ/bb5h/CgD4/8A25tct/hFpPw0+BtkCk3hnwjd3s6RnH2a81I4AP8AtCIY/wCBV+t/wA0NvDfwO8A6E6bXsvDmnwsMYwRAmf1zX4tnT9X/AG7f25Nan0iN5LPUb26uIA3KxWFnGVhHuCwQf8Cr93NOtYbK1isrdNkNvGsUa+iqMAfkKALQ6UtFFABXzJquom4/ak+I3iMSMyeCPhlBbhwfuSyy3M7Aeh2JGfxr6br4Vl8fi38L/thfFk4MUGoHw3bMf7kNjHDj/vqegD8x/wBtb4iSfET45z3k8kjnR9F0rR1Z33EtDap5h/7+vJX60/s3Xf8Aad18ArrP/NJXJ/7+Wa1+Hnjm5bUNVg1aUt5uoxNeNuOTtkldkyf93H5V+2P7ENzHrGnfCWU5b+z/AIRRKCT0L3yr/KGgD7HfhTX5Ff8ABbbUinxM+Genqf8AVaFezkem+4Vf/adfrs3Oa/GH/gtLqsd1+0J4Q0lWJfTvCaeZz3ku5yP0AoA/SGiiiv4ytrc/UQpMdD6dKWio6jIL3T7DVLaSw1Syhu7WZdssM0auki+hBBBFfLnxK/Ymg0vWbn4jfs1a5F4M8RSRsl1o80Yl0fVIiPmgliYEBW6FWDqc5+U8j6sHSg8jFfQZNxBjsjqKphZv0ez9TlxGAo4iPLJH4YftC+B73wj46uItR+Hd34Ivbj5rvRWBazt5uhNpJ/FA2NyjJ25KgkAGs74A/FjW/gb8W/DnxO0JyLrQ71JpI16TW+cTRH1DISPwr9q/il8H/h/8a/DMnhf4h6BBfWrKfKn2gXFq396KQcqenHIPfNfl1+0L+wR8UPgzaXniXR2TxN4aikcpdWUbtPBD2M6Y446lcj1xX7twzx3g87gqNf3K3bv6Hx+PymthJOUVeJ+7fhLxRo3jbwvpfi7w7eJc6bq9rHd20qHIZHUEc/jXK/Hf4Yx/Ff4Y6r4Sjn+y6kqrfaRfAfPZX8LCS3lX3DqM+oyO9fFH/BJ79oS/fw/f/sw+PfPttZ8PI+o6GtycNLYMQzIvqFLAjnGxgRxnH6LAk4Gfevu1qjyj41+A3xw0+/8Ajha3d/H/AGbe/EHTo9K8V6UfkWw8V2IZSVX0mhic5HULFzwa+zDivzT/AG+vhjc/CP4x6Z8bvDrGx0fxtLFZXM8akLZa3ERJaz8dA5iAYj+Hf36/dvwH+LGl/Gr4XaL8QdOQRSX0RjvrbOTbXcbFJoz9HU/hg96QHy3+2R8JP+Fh/Dz4gfCizsxc6p4aKfEnwgMfNJCWP261Q9gHL8DPFygr8q9BbT/AniRfD2rw3N74X8WW0NzCkZyZbaXIRoz1WaFidjDq6FDwxr90P2gLYeE5/C3xmiQNF4R1L7Nq6bdxm0a92w3KMP4gjeVNg9PKr8cv29PhVrvwc+Kl74BSJZdAsLiXWvD90nLrp99K0iRb+6JKJQB25oA+/wD/AIJKePtOu/hL4s+Ekd2kt54J1+eWIdDLZ3R3RyY7fMsmfTivWf20/wBpnxn+ypZeGPiHY+DrfxH4PvL19M122jYw3ULyLmGaOXlR90qQw6kcjNfmP+zR8ebj4LfEbwl+0MkbW1vfeVoHjmzjUqt7aSPtTUYxnDnKrvxyskZH/LTA/ajxn4I8F/F/wZc+EPFulWuueHdZg2TJIMrJGy5VkP8ACwyCGFAj8g/22f2hNO/ba+J3wo8O/ArUtRlF1bNZLp1xC0M1pf3Mu1/M7EeVjJBI2gn6/sN4A8HaZ4C8E6H4H0a3SGx0Gwg0+JVGPliQKPx4JJ7k1+cfj/8AYl0b9if44eEf2p/Ast5q/wAPPD2ph9e064HnXWmQTK0RuFIGJIkMgY9CoH41+lujaxpmu6ba6zo19De2GoQrcW1zCwaOVGGQynvQBdu7u00yzmvry4jt7a2jaaaWRgqRooJZmJ4AABJNYXgPxZ4f+IPhyw8deGbhLnTdYhE1pOMfvYtzBWB7qeo+pr4M/wCCqf7WyeFfDH/DOHw91EN4k8TRD+2J4HybSzLqRFkcq8hUAjsuc9a9O/4JY/Fqz+IX7MOm+FZJf+Jp4EupNFuo2PzeST5kD49NjbfqpoGfZNFFFBAV80ftinHij4B/9lT0v/0VNX0vXy9+2LcfaPif+zloMRPm3PxIgucf7EVtKSfwyKTVykfUKDHT0px6U1OtPpknlX7Tvw6h+KnwG8Y+DWgEtxcabLcWYIyRcRfvIyPfco/OvAv+CXvxMh134Oap8Jby5Z9T+H2qS2SrI+XazlJlgbHoNzp/wA19mMAcgjIPBBr4J+Dfw/T9mn/gor4m8HwlG0P4q+HH1bReeYmhmJeD6gmT8MU0NH32tLTR1p1ITGtSU49KbQAUUUUAUtR0qz1K2ms7y2ingnUpLFKgdJFPUEHgivzc/ae/4JQQzahP48/Zi1D+zbiaQyXHhOW4EMEm4/P9mnbIjXBP7twV5+8Oh/TCimnYbsz8SPB37TP7Yv7M3jb/AIRaPSwE0R/+Jp4OurV41eLIxIIDwmR83mWvynncK+0P2Kf+CiGt/tH+N7nwV8QfA+meGTeLIdBubSeRo7iWMbpLZy54kCgsOm7DYHBr0z9tj9jXS/2pdD0fV9IurbS/GfhiQtp19IWRZ4GIL28jp8wGRlWH3WJ7E185/B/9jwfCWzvNKWe/v9ctrgX09hPFHHqWnSxZMd9o12rBbtUbHmRydRkHB+9WjJsfpPRWF4Qur248PafNqEzz3LwJ58phMReTGCSh5BOMntnpW7UNEnmHxd+FsviuSw8YeHY4H8TaEjRwR3GPJ1K1Ygy2U3B+VsBkbjZIFPTIrw39oP8AZasviXDB8evhF4e+wfEG2tgmqaRcSNAuuwIVL2lxIpDR3SMgMVwMlZEUndX2DUXk/wC0fzqVoUpWPCP2YPjunxK8JwWWtXV3NqNnI9hJdXlv5E7XEX+stbuMcQ3kfR0+64AkT5Wwvt+o6Xp+sWcun6pZQXdpOu2SCeMOjg9iDwa8p8YfDrXvC3jef4qfDGwt5ptSKL4p0E4SPWIk+7cR9lu4xwp6ODtbsR6jouoJq+nwanHbXECzxhvLnGx0PdWXOAQeDVFM84b4Na34J868+C3ioaJExLt4d1GNrrRpT6ImfNtsnk+SwU90PGC1+NV14WkjsPjJ4P1DwgwOz+00Y32juexF2igxg84E6Rke9esjjpTZI45UaKVFdGBDKwyCPcUCPlf4k+AfF37VHxM8PQXCQj4N+H5/tk0pnVv7buV/uovLREnYG/urIQfmFXh4Ts/2gv2kZtY1G2WTwZ8Gw2maaNuIrvXZ0U3DAdD5ERjT2Zz6HPuuvaBqOkeD9Tsvhnaafp+qi1m/syGQGOzjuGXCMyKpAUHnCr+FYPwy8FwfBzwDpfhCOGW+FqrTXmoIN0t5dysZJ7iQdSzyMzE8nnHagD0JEAGBXyd8Yv8Agox8Ifhlr2oeENF0XWvF+uWRaOK20ZBItxKoJZVfngd2AIFcX/wUS/axvfBWgWXwY+FWteT4i8TxM+rajCm6XS9PJCEIp5M8u4hFxn5SeMA10P7D37LWj/Dnw+3xC8ZaDax+JNYtEtrSwmAln0rTjk7Jn/iuZizPK3YtsHAoAyLv47f8FHviBblfhp+yroHhGN/u3PirVkaQj18kPGR+R/EVzGr/AAB/4KnfFD/SfFH7S/hTwbDJ/rLDRd8BQdxvgh3H8ZDX34u1QBH8oXgAdh/n618t/tgft6+AP2XXj8L22nt4l8ZXcBnXTYZ0SOzjIOyS4c/dy2MIAWYenBoA+cv2APhh8S9M/a/8b6l40+Id943/AOEN0688PS67czyyiZ1njUxoZCWwJBLyx58s4Hp5B+3T8dDa/tY/EvxJaXJe68KeGI/BukbTwlzdRETSr7qk8vPqBX1z/wAE59Pu/Cvwn8aePfGMjQ6heyDVNTLDAgLwC4ER/wBtY5Ed/wDbmYdq/JP4javq3xm+LniTxLpaSSPq+o3GptgbwzzSnykB75LRxj3oA/QP/gi/8GpLe18ZfHLVbbLXDpoWlSMMcD57hh6gkoufVTX6kAYANeQfspfB6L4GfAbwf8OQY2u7DT45dRdRzJeSDfMx/wCBMR9BXsFADh0oPNLRQBR1q+j0vRr7UJXCLbW8kpY9tqk1+Q3xM+Icvhr/AIJrajq0szf2p8Y/iDqOqKwODJbtOWJ9wFjSv0W/bX8eJ8N/2X/iH4pEpjuF0aaytSDgme4IijA99zCvy2/a20W7so/2Yf2Y7fLjTvDmm3d3EOAZ9QmG7I9QoP50AfJvxU06fSfEq6RKyn+yrSz09tox88dvGG/Wv2Y/4Jhf8Tf4Qabr8ibvsHhvTNFhkP8AsS3UkgH/AH8jr8gvipoF3f22tfE1AV0++8XajpsCsfmxEFYfgA4H4V+y3/BLLRxp37ImgameusXt3cqfREfyVH5xH86APrg9a/Cj/grVria3+2Jq9nHJuGkaNp1mw64YxmUj/wAiiv3XPWv54P28NeHir9r74o6ksu/ydcaxBzkYt40hGP8Av2aAP2iooor+Lz9TCiiigAoooqigBI6UkkMNxE9vNEkkcg2vG4yrD6UtFKM5QkpReq2BpSXK9j8+/wBsD4YXP7LfxR8H/tTfBmB9PitNRUXtmrsYElA+7jkLHIm9CuMc9K/UH4IfF3wp8dPhfoPxN8H3izWOs2qyPFnL20w4kgkx0dGyCD14PQg14l8Yvhzpnxe+GGv/AA51VIxHq9sUhlf/AJYzrzHJ+DAE+2R3r4F/4J3ftD6t+y38d9T+BvxKmktvDfiPUfsFy0zYj0/UYzsWbPZWICN2xs96/pDw9z+Wb4D2FZ/vKenquh8NnmB+qVfaRXus/Uz9qD4I6f8AtC/BHxN8M7qKP7Ve2pn02ZhzDex8xMD25yp9mNfBX/BML4/6t4a+J+s/s9eOpHtLzW3keOKc8rrFqAlyo95Y1R+ONyv3PP6mwn92DkEHoRX47f8ABSv4Za3+zr+0zoH7Rfw/WS0tfEV4mqq0IIW31a3K+Zz/ANNAclehDNX6BueKnc/W/wAYeGrDxl4W1bwtqkYa11WzltJQewdSufqCQfwr80P2qfAE/wAWv2cNC8Ta3Bu8U/DS5uPAniI9XMayKlvMx7jzFgbPpMfUkfoh8E/itoPxu+FXhj4p+HXU2fiLT47pot2TBNjEsTe6OHU+618xfGPT9L8PftGeI/g/qrrb6B8b/D/nW7sxVF1RVaAyAjoQ4tG/WkM/OL9lfwnZfHDwd47/AGdtWvfsHiO0sLjxF4QvGHK3FuB9rsmPeKaMRtt6Bod/UHP6l/8ABNj4vzfFr9lbw09/cGTUvC4Ph+7LHLt5AHlMe/8AqmjGe5U1+Q82ua18B/2k9J8fWVo6y2041G4tk+UkFWhvYAO/zLcKR+Havrj/AIIvfEb7J8QfiD8MJ53+zavYprNmjnH72GTY4A7EpKv/AHzQI/VrW9D03xHpV3omsWkd1YX9vLa3MMi5WSKRSrKR7g1+EGtftP8A7TH7JHiTxt+zt4B+JV5Y6FoWr3en2qSxRTyWsayFMwuy/JlcHjp25r98K/Ir/gqv+x5rNj4ql/aO+G/h66utO1kH/hJ7e2j3mzuUA/0kgchJFGCQCAyEk8igNz86Nf8AEeteJdbufEmuazdX+pXkhluLq5kMk0rnuzHk1+h3/BFXxo9r8T/iB4HmuGK6po8GpRRk8boJSrt9cSr+Vfm2FJbaRg55zX6Yf8EVfh1qE/j7xz8TpoB9gstNTRopD18+R1kZcdvlVTQB+uVFFFBIV8o/HyQ+Jf23P2evBkQJ/sm21zxHcEHhQkComR7ktX1dXyX8M5P+Flf8FAvib4wB86x+Gnhiw8LQP/Cl5csZ5Svvt+U/SgaPrROtPpi8dacelAmNNfG37ZuPCH7Sv7MvxOicpIPFN14duH6fuLuIIAT6Asxr7Jr4x/4KOk3N/wDADSbPnULr4n6Y9uB1KI6mT9CKFoC0Ps8dadTVp1A2IelNpWpKBBRRRQAUUUUAFUrnSrW8uYbqeGOSa3JMLsuSmQQcHr0NXaKB3sOCgADAGPSloooEFFFFAETLlskcjpQq7eAMD2qQgGjaKAAUtFFADDx0rk/id488O/C7wHrfxB8V3i22laBYy31w7HG4IuQgP95jhQO5IrrW61+Vn/BUT9oHX/H/AMVtG/Y58Jzx29g13ptxrUy/M0txKweKJvREVkkI9duehwAT/sqfs9+Jv2wPjRq37UnxgkmGgS6ib22t45JIGlnH+ohjdMZjgjCA5P3nIHev0YsPDOteGiLXQNdinsQAPs2oQ7nH0mQhj9XDH3NW/hp4A0T4W+BNI8CeHIBHZ6TaJbpxhpGA+aRvVmbLE+pr5S/bm/4KBeEv2evDFx4Y+GOradr3xDvi0EUSESw6UvGZpscFhkbY+p6nA6gHY/te/tu+Af2VfCr2d3cW+r+Or+3Y6dodrcbvLYghZrhuCkQOeoyxGAD1r8Th8UYfH3xlk+K3xtm1DXFvb9dS1aK2KLJd7WBEClyQiYVVHXCjvXG+JvF/iDxt4iv/ABV4u1m71bWNSmae7vLqQvJK59Seg7ADgAAAACsdyGPAwKAP198Z/GrSfhx/wTSufHMd0lp4g+L1zqE1nArjzBNf3Ll1UDGVhtwBngAIo4yorxL9gf8AZgbVvGfgF/EGnOst9Ivj7Vlk+Y22l2smNNhPGM3Fxumx1McQbGDXz148+M9t+0l4m+EPwwsdJ/4Rjwr4P0uy8PwwlxIEcuv2u8OAPmcKp+ka1+zv7Knw/bRfCmo/EW70z7Df+ObiK8jt3Xa9lpUCeTp1rjsFgVXwP4pmoA91ghWGMIoAwMcVLSDgYpaACiiigD4w/wCCj18/jCx+FHwCsdzXPxC8b2UM8YP3rS3bzJSfYZQ18JeLfGNp8Xf29PG/xDt2EmhfDzT9SuLZC2EjtdNtnhiAboP3xVh7kV9H/tSfFCKH9rrxf46Z/OsfgH8Prma3Gfl/trUE8u3A/wBrdLEf+AV8h/sz+FtT1D4JfErxOrh9X+Iuu6P8PrGRx8xN1cC4vGHtsjGairUjRpurJ6I0pw52QfH7wDceBv2P/g/c6hbiPUPEWqatr9z6n7SkLICPaMKK/WH/AIJ56d/ZX7G3wzttuN2nyz/9/LqV/wD2avhX/gqhptvovwu+HOkWqKkVje3FtEg42xrBEoH5Cv0M/YvspdN/ZU+FtjPEY3XwzZSkH/bXf/7NXj8PYz+0MF9Zf2pS/N2OrHQ9nNQ7JHsWp3Udlp13eTSBEgheRmPQAAkmv5nfG+vP40+JHi7xVcEs+q6xc3hLdSZJXb+tf0OftO+MB4B/Z8+Ifi/zNj6d4dvmibPSR4iif+POtfzX+a2Wlz99if8AP517Zwn9ENFFFfxefqoUUUUIYUUUU0IKKKKlAABPAr80v+CnPwUbw/4s0744eH7R0tvEDi01gx52xX0Y+SU+hdAOneMnvX6WHOOOtcX8Zfhlo/xf+HOt+AdYjQxapbMkMjDmG6HMcg78MBnHUZFfXcGZ3LJMzjVk/clpL07nmZphliqLj1OS/wCCZn7Wk3x7+HUvw38c6kH8b+D4Uhd5G+e/sOkc3u6H5W/A98161+3H8B4Pj7+zp4l8Jx2wl1nT4Tq+juF5F5ArEKD/ALaGRMdyw9K/E/4T/EXxx+yD+0NZ+Jljmhv/AA1qMljqtlnAu7UttmiPYqy5KnjnaeO39B/w5+IHhj4qeCdH8e+Er5LzStbtI7y3dTkhWH3W9GByCPUGv6ipyU4qcXdM+AlF05OL6H5qf8Ecvj3cQ3viP9m3xDeHJaTXNFWRvuOMC6gGeT0WTHbEh719Bf8ABT/wRqV98E9N+LnhyR7fXvhtqsWqQzR/e+zMypKOOcA7G/A18Q/tZeFNZ/Yh/br0r4teE4TFoesX48SWUY+RGR5CLu29OrPx/dkFfrzqdl4W+OHwqurJGS70HxpobLG5AOYbmIlTj1AYHHYimxH4l/taXFtqx0j4taAkax381priALkLDqtv57L9BdQ3y/8AAq9G/wCCS3iWx8EftFW+na/ZQofHuhXUGl3EyDcksU27ajdi3lsOMZyK878ZT6N4X+Dt78K/HCXdxrGlvq/gexEEW6RdQs9ShurEsCRhNtxdR5zkBvumvGfBvxK8X+D/AIgeALmwtjpereAr7yYHf5W3i5Z2SQeoLOp5/wAKBn9JlV5LOO4gkguYo5Y5VKyI6hldTwQQeD/L2rK8C+JYPGXg/SPFdsNserWcV2Eznyy6BiufYnFbtBOx8Cftef8ABLj4ffE+wvfGfwNsLPwt4wT9+1ghKWOpMOSpTkRMRwCoCk8kDk1D/wAEkPAni7wL4W+KVj400abRNSh8VR2tzpjxlBFItshLAdCCJByMjiv0B96hisrOCaa4htYklnYPK6oAzsAACT34AoC5OetJQaKBHLfFH4gaJ8K/h54h+IfiGYR2GgafNfS84LbF+VR7s2FHuRXif7BHgTW/D3wVb4h+NI3Hi34o6lP4w1UyKRIiXLFreMg9AsW3A7bq8++MGpS/thfHKy/Zv8K3DzfDvwHeRav8RNVhG2C5uUObbTFbdhiWOXH+y/8AdAP2haW8drCsMaIiKAqKgwqgDAAHYAYAFBWxYHHWj6UwtsHzHcahubqGCB7me4SGKMFnZ2CqoHcmgksE5r4Z1XVI/wBqb9vbQdM0CYXvgn4BxS3t/cRtuhm1uXKiJWHDFCF79Uqz8ZP2qvFvx18T3X7N/wCxsjatq0zfYfEXjdQx03QrdjtkaKTpJLtLDI6Y4LdR9E/s5/s9eC/2bvh3a+BfCYkupyxudT1Scf6RqN2xy80h9STwOgFA0epjtxin0wdafQIa1JStSUAPooooAKKKKACiiigAooooAKKKKACiiigAooooAwfHnjTQ/h14N1rx34lmeLStAsJ9RvHRcsIokLMFHGWOMAZGSa/nT8cfHfxF4z+P3iD42s8n2vWdXuL3yQ2CLUkhYQ3VcRAKGBBXAPWv25/4KJ+LIPCP7HfxHu5g5a+sI9NjC93nnjTr9Ca/J/8AYx+G3h+90DxZ8WPih4dt7v4a6G1npWsXco/eW81zOiwzwjv5RKNIv8UcjAEE0AfXXxa/4Kr/AA/ufgNdW3wsOpp4t1jRza2yXr/6RplySFkMjAYkVYyzRuMEkcjI5/KHU5NSkY3up+aZrsmUySNuaQscliepP1r67/bi/Ynt/gVJc/Ej4fTPfeDdVv4pbJophPFb2lxGGjAfqyhw4B7qVNfIOsX95qt413eSBnOBwMAD0AoAoj1NFFFAH2L+y78IvhTcWPwz+MvxOtr238PadreuDxHcQK8onWyigni3qORGRKyuR2B5r917GW2kt4xabPJCKY9mNpXHBGONvpX52fsP/CiHxT+xt4M+GeuO1vH8SbXxY8pAyRFKEiSX6gKmPYkd69H/AGQPjR4s+F3iMfscftHXyWnjPw3EsPhbU5XJg8Q6WOIvKkONzqAAF+9gbcZU0AfauR60tQiQdMEU7cPWgCSqGuazYeHtHvtd1WYQ2WnWst5cSH+CONSzH8gavDpXyD/wVF+MafDD9mTUfDVhemHWvHk66HZojYcwEhrlh7CMbSfWQUAfmP8AHb4pX+t/BrVPE1/Ky698dvGl34mvRjDLotkxitYj6Dzi4HHPkCvp/wDZS+FV9o+nfBnwRqEAjj0zTb74l6rGy8i8viLayDe4hiLAe9fH2g6JaftPftG+B/hz4WsZ7Lw9Z2+m6HbxTkF7XT7SPdcyuBxy3nyt7ue9fqh8F4oPEdz4j+KkVgLWy8QXostAhxxDodkogs1U/wB07ZJAP9sHvXx/HWarLMnnb4paL56HqZTS9tiEkfL3/BVKym1Dwb4Bt0I3JqGouxI67YoT/wCzV+nnwp0FfC/w18KeGlTb/ZOh2FkR6GO3QH9c18b/ALVPw40P4vXHwv8Ah7fW+brXfGdtbRzKuXhtEVprvGPWOED8q+8Y0EahQOlYeH1RzyOnfpf8ys7SWMduyPjX/grJ43bwp+yNq2kw3Hl3HifU7PS1UdXj3+a//ooD8a/CgHjHpX6nf8FsfH4ab4dfDKG5+dPtWtTovAKkiOPP4q9fmdrvh6TRtF0G/nXY+sW0t4inr5YlaNT+JjavtzyT+gmiiiv4vP1UKKKKENBRRRTQgoooqUAUZwPxz+NFFaXtqjNK5+Zv/BUb4Y6PonjnQviTpkYSfXrRodSRAADLGQEkOD1YFs8fwivS/wDgkJ+0/JpeqX/7N3ijUA1rfCTUfDbStgJPwZbZfQMBvA9Q30r6T/aG+CmgfGX4Z+JdEurCJ9Yl0t1066I+aKWMmSMD6sMf8Cr8TtA1zxD8PPGFh4g0a5lsNZ0G+S6t5RkNFNE+QfzH5Zr+lOAM5eZ5WqVR3nT0/wAvwPi86wvsq3PFbn9AP7X3wa8LfHr4L+MtCu9BsbzxJpWj3P8AZk8kQaa2lIEi+W2MjJiHI9CK8l/4JOfFq5+IP7ObeD9VvTJqngXUZdLeOTPmC2YCSEtk9izr/wAArt/g/wDtA6X8XbL4V/GXSpIfsfji3m8La9CpyLPVo0Z4xjoMOkyj1WZPWvE9LGm/slf8FJZtCithYeEfjXpqyRqh2wpqG9vyG5W/7+Zr7hO54aZ+fH7ZEd14f/at+KjW0rrHZ+MJb1UJyoZnJ3Afj/KvO9O8QwH44WvivUZLa/tpfESXk5CYhnSWcNJ8vYEOR1r2b/goHphsP2rPjChTBfUbK6+qSxKc/wDj615P8VfgJ8Q/gnq/huw8aWaWa+JNOsdZ0u6JxDLDOqtjPZoyyhl6jr05plH7GeH/AIvH9krxvD8O/izq93/wq/xPIj+A/EMwBt9LifBGmXBA+Qpn5JGJBTaO1fXdle2uoWsV5Z3Ec8M6CSOSNgyupGQQR1ryfxF8IPDPxl/Z+svhb8SLa31Cy1PQbSGeeAh/LnEChZ4WPQq3zKfT61+Y3hD4/ftFf8Ey/ilN8F/iXBceKvh+ZTcWUE7ZE9mzYWeylbOwg/ei6Bu2CGoEz9l6K8o+A37T3wc/aM8NjxF8NvFdvcvEim906dhFe2THtLETkD0YZU8c9qs/GL9o/wCEfwK8Pf8ACRfELxZaWqTM8dlZwN513fSLx5cEKgs7Z49B3IzQKx6VPNHBG800qxxoNzMxwFA7k18hfGj9oHxz8bvFV3+zn+yTfx3GqBvI8W+NY+bHw3bnhlik6SXDDcAF+7WG3h79pX9t4sPHEmqfBr4OzkNFpSEDXNeiyeJ2OPIQjGVx0P419YfDb4W+AvhD4Ss/BPw58N2miaTYoEjhgXlj3Z2OWdj3ZiTQUY3wI+B3gv8AZ8+Hlj8PfBcEjxQZmvb6fBuNQun5luJm7szc+wwBwAK9D9PbpXmfxy/aM+E37Ovhk+Jfih4ogsA6n7JYx/vLy9YfwwwjlvqcKO5FfLz6l+2j+2ojHRLeX4EfC6+xi4uIyde1O2I6gY/cqwOR06/xCgmx7l8e/wBtX4JfAJ20bWNYk1/xVIdlt4c0Qfab6aTsrKvEf/Avyrw2L4V/tY/ttTw3vx01a7+EnwrlcSp4Q0mb/iZ6pF2F1LjKKR1Vsjn7p4I+ifgJ+yX8F/2ebAf8IR4ZSfWZQDea9qR+06jdyY5dpW5GTzhcAdq9kWIRnOf8/wCPvQPY5L4XfCTwB8GPCdt4L+HHhuz0bTLZceXBEA0zf89JW+9I57sTn6DArrwCOppaKAvYfRRRQSFFFFABRRRQAUUUUAFFFFABRRRQAUUUUAFFFFABRRRQB4L+3N4Gm+I37KXxI8O2tmZ7qLRpNQtkH3jJbMs4x74iNfnx+0dqPhT4Sf8ABL/4VeBPAc0WPiTNbahqdwgAa6kVRcXJY99kywxH2XFfr1cRRTxtbyxq8cilXVgCGB6gg9RX4Gft1+A/F/we8dx/A7U2L+FvDE+o6t4RfcSP7N1CdZfLAPXy3Dpn69ugBP8As1ftCaRqthZfBj45a1czeFVhk02wuLmRpILe2uCpmtpVz93fHHJG45jKEfdY48T+Onwf8S/BPx/f+C/EEYkijPn6ffRcwX9o5LRTxN0KlTjqcEEV5+kjRNuU16d4O+LNtdeGW+GvxPtrvXPC3L6e4fN5olwf+W1o5Bwh/iiPysPQgGgDhtD8K3mvQ6pPbOFXS7GS+kyPvKpHH45/PiqGnWs2oSDTLS3826u5Y4oFB+YuTgADvkkCvbG0Sx8B/s8+KtbttQg1RPG2t2ug6VdRo0byWtqRdXEm1uV+f7OpHP3jyRXU/wDBOL4MS/GX9qfwxBdWXn6P4YZte1EuuVAg5iU+5lKcdwDQB+1nwI+GFl8OPhp4E8JLbRG68K+HbfTQ2OEkdEabGefmK/rXiP7X3wn8JfFf4x+BNG8URXFvu0HVnsdTspjBd2N7E8Ekc0TjncME4r6+UbWc45PT6dq+bvjPcR6h+014G0iOQGTT/DGr31wn/PJZGhiQn6nP5V8/xTiamDyqrXou0lsd2X0o1q6jI+evHvgr/goHpdhY2vw1/acs9csdJkEsCXlpBaXk8Y4VJm2FJRgdS3Ne7fsp/tLeOvHd4/wo+P8A4Rn8MfEjT7fzo38rbZ61Amd01uwJXePvMgPQ5GQDjqCACQO3FZ+saVFqMcEyogu7GZbqzmK5aCZejr6HnHuODxX5HlXijjcO1DGwU491oz6XE8P06sb0nZnvmp6zb6PYfbbgbhuSNVBwWZmCgfma/FD/AIKU/Hhvi98eNVh0e7Mvhz4dJ/YGnndlJ718m4lx0J3ALn0QV+m3xU0vxr8Vfh3b+D/CvjGPwvqzXsU39oPB5/lKoYNhcr2bI54IBr82/jP8Kk+Lvxv8PfsffAxZG8I/DVGg1fWpUDm4vZGzfXs8g4Zt/wAijP3gQOtfrmW8R4LMcK8XGaUYq712Pmq+X18PU9nJa9PMzv2CvhXqUunat4it90Ot+NopfD+n3W0l7HSRsOpXvopZSLdGP3mlkHGCa/TfT7Gy0TTbbRtIt1trCxiS2tYEGFjjQbVAH0A/Kue+G/w08HfDDw7aeHvCOjw2lva28VsJcbpZFQEAsx65JdjjAy7HGTXTXN5Y2KCW/uo7eLPLucADua/B+M+Jp8QYr2dN+5HZd/M+uyzLoYWHP1Zyvg/S38Y/tY6DFtL2fw68NXWpy91F5qDrDD+PkwzH8TX1YxwD9K+af2QNV0DWdK8V/Ec69psupePPEE99bxfbEa4j0yAfZ7JNuc48uMuM4/1h4r6C8Q6zbaDoOo67dsEh06zmuXZmwAEQsf5V+7cK4SOByulh0/eSu/VnyWZ1Pa4mUj8Iv+CjnxBuvjF+2F4hs9H33aaRND4c0+CPnc0eEIX3aRm/OuB/bL8PW/gP4zn4XWrK8XgXQ9K8PmQfxzRWkbzk+/myyZr1f/gnx8MLz9oD9sOHxhqtubvS/D19N4n1OWUZRpPMZoFPoTIcj2U189ftE+KpPHvxy8d+MWkL/wBreIb65BJ6gytj9AK+iOA/eGiiiv4vP1UKKKKACiiigAoorg/in8Qn8I2NtpejywJrGpJLMJrhsQ6fZQjdcXkxB4RE6YySzKBya6sHg6uOqqlRV2Z1KipxuztpLuGGKaaWRY0gUu7ucKqjqSe1eJal+0lrOu+IG0P4KfC3WfHdtbStFd6za4i09COySuMOfyHuaNC8H+IPjzFa6543jv8ATPAMC+dpnh+aQx3WrEn/AI+r/b/Cx+ZYQed2WJ5Fe1WFlYabZwafZWUVra2sYiggt4xHHEg6KqKAAPYV684YPKW6daKqz001Sj809X9xzU51MQ7x0R53D8XvEumRi78X/Bnxlo9nGAZ7mGKC+EQ7s0cEjOEHqRX5V/tn/DbTvCXxg1LxJ4TuYLvwx4pc6rplxAwZAXP72EjqjI/BQ4IBHrX7QAqPuxj/AD/n6+9eCftVfsweHPjv4C1Cz0i1h0/xNAj3tjcINv2m4ABKS+u8cbuucE5r6jgriShluY3cOSE9Hq2vLR7WPOzfCTq0dXdo+D/2H/jzqHhK18S/B26uVEOtGDxB4e3dYNesHE0IX/rqqGM+5XOQMV+k/wC2x4b07xt8HvB37Tvh6NF1P4c3lh4vt3Ay8lgzRtNEPU7SGAPHBzX4eT2er+E9dMF5HPYajYz56FZIZUbr7EEV+6P7A/xJ8M/H/wDZMsND1CG01GTTY59D1jTbhd6EZJCsv91o3wPYV/QqcGlKDumfEtOLsz87f+Ckc/h/VP2mfEnifQ9Rt7y08ReENI1NVhOQWxBjnvlADn3r9OPiT+zl4C/az/Zo8NeGfE9vHBcz+HbC60bVEjDT6dctbIVdD3U5AZehH5j8nv2qvhnpN5aXvx1+E/w91Xwv8ModXfwXZRXt3JczzXsYdnba7N5MAZJIlAJwY+Otftl8B7a9sfgj8PrTUIfKuIfCukpKh6q4s4gw/AiqGfJ//BPX44eKNC1DWf2MvjdI9v43+HzyQaVLOSDfadGcDYW++EG0qepRh1wcfTXx2/Z4+Ff7RXhNPB/xT8PJqVpDJ51rcRsYrm0kxgtFKOVyOo5B44OBjxj9tv8AZv8AE/iyXRf2jvggn2P4pfDuVb63EA2/2vaIcvbSY+820EL6gsvcYd42/bI/t/8AZf8ADHxC+EdrHdeNviRdweF9B06VPns9akyk6zLk7RAVZmB7bfWgZ8CeOP2FtR0f9qSH4FfsxfEfUtXtbqNZPEM3zq/h+2Z+Y7uVNschC8qvD5IBAzmv0x+Bf7FfwQ+Bthp8ll4ej8T+IbFzN/wkOtxJc3plP8UbsP3SjoAmPUknmul/Zy+A+hfAH4d2/haykN/rV85v/EWrzHfcarqMnMs0rn5mG7IUZ4AxXrQXIA2jHTFAEY3thV+UDgLjAH418+/tW/tO33wUttF8C/Djw4PFPxN8aStbeHtHBJRAMbrmfHIjXP4468Gvf9RvYNM0651G7bbBaxNNIfRVGT/KvjT9hLTr/wCOHjPx/wDtl+Moo57rxTqUuieFopV3mw0q2Yr8hP3d7dcf3ep7Ajp/gJ+xZBo3iVPjl+0RrY+IXxXuylyby8TfZ6Q3UQ2sRyg25wHxkdVx1P1UkQXHA44AHQCncjinUDHdKWiiggKKKKACiiigAooooAKKKKACiiigAooooAKKKKACiiigAooooAKKKKAIJwetfkZ/wWH+Ifw18TeOfDngLw7C134x8L20kutXUXEVrbSKHjtyf4nB+fH8O4dSSB+gH7WP7RifAzwfZWHhixfWfH/jCf8Asnwnosa5e5vHwBKw6iKMkMx6dq/BX446P4n8P/FvxbovjHxB/a/iO11GWLWbsOXWS96zgMeyyF05xwtAHAdcAd+lXtG0vUda1S10XSLSS6vr+ZLe3gjGXkldgqqB6kkCtjWPDP8Awj3g/Rtav4it34gaS5tEbgpaxtsDkdwzbgD32Gvrr/gm98H9IsrzxN+178SbdB4P+FNpNdWnmAf6TqYjygUHhtobgf33j9OQDyn9snQY/hn4x8Ofs82zxmH4b+H7W0vTEciTVbpRc3khbuS0kafSNR2r9M/+CVv7Ok3wg+CL+P8AxLY+V4i8dst4UddskFiARCvPILA7z9QO1fJX7Ff7MXiH9sf47a5+0v8AF+yJ8H/23NqMsM7cald7tyQL6xICAx9AAPWv2OAgtYEt4I1REUKqqMAAdAB6UAS5r5F8G6ynxO+MfxC+MUH7zS1ki8H6FNnKy2loxa4mQ90Nwz4PfYK6P9oL4y6r4u1m8/Zy+C2o5168hCeKPEEB3W/h2xkHzLv6G6kTKogOV3bjjirnhnw5o/grwzpng/w9ZraabpVslrbQr/BGo7+rMcsx7kmvynxJ4ho0MN/Z1J3m9/I+kyHCTnP20loadFIOlLX4OfYklrK0E6up5zkVz/hf4d+A/h/Pqt34M8MWmlza7dte6jLECZLmZiSWdjk4yThRwM5AzzW570Ek9a66eNrUqEsNF+5LdGdWhCpJTktRBjA4qO4t4L63msruJZbedGilRhkOpGCD7VLSAY6Vwq6kpLoWopKxz0vgLwPPZQ6NJ4Q0h7CBBHHC1nGwRRwMHGfSsLU/hVeWOm3Np8LfHeueEZbhGie3N417p0kbghg9pcb1IIPIQp7YrvKK9fB5/mOCnz0qrv6nPUwNGqrSiee6Dp2r/Bv4L+PbPwv8KPB9p4hnsBBY3vhG3NtFqSmMRCaeNhuiMQZ3bLMp2sfavza/Z4/YQ8fftZweKPGHhPxRomh6LpGpjT7e51WGYi+kAJcx7B/CBGTn/noK/Wgxx3Nvc6fdIslreQSW9xG3R0dSpH4hiPxrofhLo/gn4a+C7LwN4L0SHR9J0tSsNvCcAlmLM7H+JiSSWPJr9o4S49pYym6OYO0117nyuY5O6Ur01oYFFFFfgJ9mFFFFABR05oooQAB2/wA818reHoNR/aO+PfjOW7WRvA/he/h0i6JPGoG2betopHWMzZkkHcRxg5yc+4fHL4hf8Kt+E/iXxvGoe6sLMrZRn/lpdOdkKj33MOPTNZf7NnhK18G/AzwdYwxEXN/pseqahK3Lz3dwPNkdj3PzAfRRX1eVSeVZbVzDeU3yR8usn8lb7zgxKVetGl21Z6b5UUEKW1vGqKihVCjAAHQCmvlRjPNKpKjdSIDK2018s3KpJyerZ2qKpxstkIp4rG1Pxv4H0e/Gmat400Kxuv8Anhc6jDHL/wB8ls187fGP4heN/jR8Vp/2afgp4ik0WDTITc+L/EcHElrDwPs8RHR2Jx15PHavnXxdrH7Mfw3utS8O/DX4IQ/E+70aQw614m8Rau9vbPcj74SQsATuz0OfSv0HKOCpYylGWIk1Nq/LFLRPZybatfoeRicx9nLkgk/Un/4KY/BPSLG90X44eD4ovsOsyvZap9mw0ZnJ3rNuHGXLOD7gVQ/4JR/Gg/DX4y614Q1K9ZNK8R2AlaNmwnmwNkkds7GZvcIfSubj+LvwM8d+Cdd+GEsOsfCWfV49yJHqB1nw3czKcoZI2JltznpLGcKTyDxXzN4M8V6v8OfF9p4p0uFZ7vSZH3R7iYpUZGjdSR1UqxGa/dMkw1bB4KGHrO/Lon5eerPkcdNVKrkla5+xv7Mngnw54/1L9pD9mX4l6JBrPhnTPHb6ha2sudi295umi8sjBGGiLDHdj619r6Xp0Ok6fb6daoEgtIkhiQdAqgAD8hXwF/wSa8X+Jvi2/wAW/i54tWEanquo6Pp87wx7VkNrasAxySS5Dgsc8k8AAYr9Cq9hHEmMwCCCOD1r4j8JfADw3o//AAUT1G40CV4/DehaBL42k0cN/o1prmoytaGWNOil44WfHZhxgcV9v14T4CgRP2xPiy54lk8J+Fz/AMA33/8A7NupjPc1UE7iOnSn0AbRj0ooE2ebftKXt1pv7P8A8Q9RspCk9t4a1GRGB6EQOf6Vwn/BP/TrbTf2O/hdHaxhEl0Xz293eWRmJ/OvZ/HfhyLxf4M1zwtOFMerafcWTBumJIyvP514J/wTq1G6k/ZV8NeGNQUrfeELvUPDl2p6iW2upFIx9CMe2KBn0xRRRQKw+iiigQUUUUAFFFFABRRRQAUUUUAeY/E/4++BvhBrnh6x+IUt1pGleIZ5LS31yWInT4LsY2wXMo4gLgkqz4B2kZ9fRUuUkCsuCrdCK574g/DfwX8U/Cl/4I8f+HbTWtF1FNk9rcplTzkMp6qwOCGBBB71xHgbwr42+DFvF4XGo3fi/wAF2w8uxuLh9+q6bCPuxSNj/SY1H3XGHAGCGoA9gFLWN4e8V+H/ABPC0uh6rBdGP5ZY1bEkTDqHQ4ZT9QK1vMGcZFAD6KKKACiiigAooooAKZT6ZQB8tfBD4OeJPG3xv8S/tP8AxosmOoxTzaL4K0yYErpOmRuVM4DD/Wy4yW9M+pr8Yb7w3e/Gr9pbW9GtJF3eIvFOoXEtxJysNubh5JZmP91YwzE+imv6JvHGu2vhPwbr3ie7kEUGlaZdX0ztyAsUTOf5V+CHg/QZ/hh+zh4q/aFv7i3/ALV+I95c+DvDUQJ82KMnfqNzyBtxHmFWB6u3tQBw3ii31T9ob46WPhX4c6eZLe+u7fw54atAPuWUREcJPoSoaV/Qs1fq78Tv2YtS/wCFMfDX9hj4bS/YNGu2j1LxxrSRYK2UDBnJ7NNcT/dHYRkkACvB/wDgjX8BbbUdQ8UfH/XNPDLpwGjaBI4+7M43XMi+4ARc/wC0fWv1E8Ra/oPgrw/feKvE2oQ2OmabA9zd3c7hUijUZLEk0B6GX4N8GeDvhT4N0vwh4Y0+20jQdEtRDbw7guyNRyzE4BOTkk45NfNXxD/aN8Y/HLVdQ+HX7OF02m+HLd2tNb+IcigwxtnDwacp4mm6jzfuqeR61x+teJvHH7bOo+e8mpeFPgdBI32azRzBf+LArY8yX+KO04Py9xnJ549n0XQ9D8NaRaeHvDul29hp1hGIre3t49kcaDoAP6nk1+Y8X8dU8tTweBd6vV9F/wAHyPdyrKamIkqtXSPYyPhv8O/Cvwr8LQ+G/CNrIsbO09zdXEhluL24bl7iZzy8jHkk/kOK6Ukk5JyacFGKbX4PisRWxlV1q8ryZ9pSpwpR5YKyH0UUVgaBRRRQAUUUVLQBRRRSLA9aKKKdJ+y1MXq9QooopFhRRRQAUuMnFJS55zVrqB4j+1ZpMnibwrp/hBAX8+PWNVZAeG+w6VczJ+UpiP4V6B8HL5NT+Enge9UfLceHdPkHsDboP6VB4t0ePW/ih4Ds7naLbUYNf0l95wN1xpr7fzMWPxrnf2WLm4n/AGevBdhcNm50m2l0e5B6h7WZ4SPbhDx9K+3x1CmuGaNWnup6/O55VGd8dNPsj1ZhjIrG8X+ILfwj4R1vxVdECLSrC4vGyccRxl//AGWtlup5zXk/7WM8tt+zZ8RZoWw40OdQfYjB/QmvmMooRxWYUaEtpSS/E7sTPkpSl2R8r/D/AFXVvhr+xN40+N0tw48UfErUJw90cCSOORzGuD1Axvx74PatD9hz9lvwv4q8BWvxb+Ktg2tLcyumgaRc5+yQwqdpuWj6O7nPJ7DOKl+JmiG9/wCCZXhlLRMCC1tL1sehuZAf0evrX4KeHk8HfBzwb4aChfsWh2nGOhKhj/Ov1HPc4q5fl9aWHfLOpVcbrflglou254WFoKpOKnrpf7zE8S/sy/s++MdKfSdc+FOgxI42+dY2otpV+jx4I/WvzC/a1/Z6j/Zg+J0dhoLXN94c1myNxaNcFWYZ3K8DOAAWU4OfQ1+xXDDcBjPNeEftm/Cbwx8Rfgd4j1nWLSSTUfDGm3F/psqPt2SfKWDccgheleJwRxZi8FmEaGJqOdObtZva/X5HRmmV0JUHOCs0eZf8EUPiJZ/2f8QfhY8Cx3AuINeibd99GRYWHPXb5an/AIHX6i1+X/8AwR5+F9hq3hi8+MNtqDWd5oGtapoc9uIwVvIJ7WydAzdV2OpI9dxr9QK/oZHw7Cvnnxrqw+G37ZPgLVbssmmfEzwze+Fml6L/AGjZOLq2Dn+88b3Cr6kV9DV89ftu/DXX/iF8EL7V/Be9fGHgW9g8VeHpIwfMF3atv2pjuyb19w1MEfQtFeY/s6fGzw/8fPhDoHxO0OYBdVgAurfOWtbpAEmhb3Vw34Yr06gLB1r4D/Zl+P8AafC79sP4vfs2eP4LXR18SeJZ9b8Oup2RSTSoGeMdv3i7WHPLbh1Nfflfl5/wUK/Z4bxn+1h4M1HQb86Vr3j3RLiDQLxWKBdasQJYkY9jIpCg+oHrQM/UOivkv9gv9rd/jp4XvPhx8SFfS/il4KY2Ot2NyNkl4qNs+0ovX7w2uOzHPQivrSgY+iiiggKKKKACiiigAooooAKKKKAEwPSjA9KWigDgfHvwi8I+PJUv7p7/AEbWrf8A499Z0a4a1vYuRgbxkOP9l1ZfavLNb8Y/tM/BnV4YtdsPD/xD8Gy7k/t0v/Zl/YAHgXgG6MqenmIoGfvAV9IEDHSoJbSKZWVlBDDawIyCPQj0oA8M/wCGw/ht4du4dP8Aitpeu+AJLghYrvWLQvps2fumO9h3wlT2LMtd34Y+Pnwd8ZTLb+GviLod88n+q23ar53OP3ZbAf8A4CTXD+O/hT4y8MWV3qHwZTSNQsW3SXvgbX0D6XfA/eFu+C1pIT9YiSMqOTXyyfgF+yn8dteu/DfhdNe+AnxaiZnvvDgZYo5ZCeXW2f8A0e6iY8h4tuR6HigD9Gw2RlTkHpTgfWvyK+Inxd/bQ/4J4+MtM8I6p4+0T4gaBqNq17bWl8srLJbq218ByHgweMIxX0GK+oP2YP8Agp38H/jpfW3hDxlaP4D8VXGEhgvbgPZXcmeVinIAUnsr4z0BJ4oA+1cijIqvDcLKoZWVlYZUg5BFSgkmgB5OBTaUnNMlkSKNpJGCqgLMT2AoB6HyB/wVG+M0Xwv/AGWtX0W0lRdU8bzroFuGbBELDdcOPbYu0/79flr+1Ze3nhzwN8EfgWVMJ8L+DYNVvYgel/qrm5YN/tLGYh+Nehf8FAf2hIv2m/2mNN8C+Frprrwv4XvItB0+RG+W5upJQs8/uCcqD3Cg964r4/2up/E79uy68PbmuDL4l07Q4EC7gkUIhhRAPQKmKydVKqqT7XKjG8eY/Zv9kn4W2nwb/Z78EeBba3RJbbSYLi8KjBa6lXzJWPqcvj8BXzv8V/EFz+2B8Y9S+GNpNKfhF8Nr2NNbERKjxDrKni2Ld4IjjcB1bOf4cfS37R/xDh+DHwC8Y+PEuFgl0bRZUtAOjXLJ5cIA9fMZcfSvCP2afh+vw4+DHh3Q7hGbUru1Gp6nMxy015cZklZj1zuYCvjeO89lk2WP2LtUnovLu/ketk+CWKq3lsj0m2t7SztI7GxgjhghQRqsahVCjgKoHQCplVQMY5pi5B96dzGfev5pnUlNuUndvd9z7mEFBcsdhaKM55HeioNAooooAKKKKACiiigaCiiihDYUUUU2Q0FFFFIYUUUUAFFFFAGB43guBp1jr+nwPNfeHNSttatkQZaQQtiWMH1eFpk+pBrkPhSLfw546+I3gC1lEllJq6+LtGYHiTTtTXzdy/7KzCRT6E16ceRg9PSvIPiJav8ADzxz4W+J9o7JosEkuha0mPlgtbuQMkn+4k+1h2Xc3rx9VluZ/WMBVyyr9rWL810+Z59ehyVY109tGev15r+0tpcms/s+fEPT4hln8P3bAY7qm7+lelHiszxDpCa/4e1TQJcbNRs7i2bPTEiEV4+VVvqmYUKsvsyX5m2KXNQlbsz5R8MW3/Cd/wDBNtLC2BaaDw9P+D29xvb9FavpH4Rate6v8MfDv9rRhb+DTbaKcg5WQeUuJFPcMOa8A/YFU638BfFPwu1ThtC1nUdHmjfqqTIV6emd9ey/s6X0knwm0nQ70D7d4cebQ7hT95Wt5CgB/AA/Q19hxQ2vrFBr4at16SX/AADzcFq4S7r8j0gDK4FebftKXX2b9n/4gEdf+EeuT+hWvS68q8WfBL4jfGPxj4qvfBvjmw0izs/Dkfh5tOv7L7Vb3NzJJ5sglTIwm3Yp74J9a8fg/LauOzSEabV1rr1sztzKtGjhnzdTjv8AgjLA0f7N/ieVhxceNJ2B9QLW2H9DX6CHrXwv8AvH1/8AsbeE7z4afFb9nTxN4X0a21CfU5vEPh0NrOjlpmyWAX99DEMYAKttHXFfV3w1+OPwk+MNiNQ+GvxC0HxCmMvHY3qPNF6h4uHQ/UCv6lWx+dM7vIqOWJJFKkA5GCCOCKdRTCx8F+GXuv2Iv2urrwbdyi3+EnxqvJLrSpD/AKjStaON8GT90Ox4HGd467a+8YXDoDnOK83/AGivgX4a/aJ+FGs/DPxGxgN7H5theoP3lleJ80Uyn/ZYDI7jNcT+yP8AFTxF4i8LXXwn+KafY/iT8PXXStdgk4N3GB+4vY/78csYBDDjII7UDZ9A18hf8FLPDuoW/wAIPD/xn0CNxq3wt8RWevRSJ94W5lRJl/Ebfyr69rk/iv4Is/iT8OPEngLUI1eDX9LuLA7ugZ0IVvwbafwoBH54ftx/DTxR8PNb8K/8FBv2dZWguZEtLzxBHZoTFKsoXbPIg4dJAQkvH91uD8w+2f2Wf2k/B/7UHwtsPHvhqRbe/RRb6zpbOGksLwAbkPqh+8j/AMSkdwQPM/2ANag+Jf7JVl8PfGVkl5L4Ze98HapbXQ3eZHA7IquD1/dMn51+cvxBtfir/wAEw/2qpb7wFeSzeGtVk+1WMUzH7PqumM5LW83YyRHC7hgglWHBxQB+5FPry/8AZ++P/wAPv2ivhzYfELwFqazRzqqX1k7f6Rp9xtBaGVc5BHY9GHI616YDkA+tAWJKKKKCQooooAKKKKACiiigAooooAKKKKAI/K9DXmfxt/Z2+HHx50ePT/GWmmO/tSHsNXsyIr6yccgxyjnGcHacj2r1CmZoA/Fn/goP8G/2jfBGkaVpXxH1ibxr4P0G4mOg+JpImknt4pAoNtPL1AwgYK+QSDhiM48O/Zd/Zk139pbUPEXhHwhpVzPr2l6bDcCe51GO0tbEtLtMkg2s0vB4VQDxnPFf0G6hptjqllcWGoWkFzbXSGOaGeMSRyA9mU8EV4j8Jv2Pvhl8DfjFr/xX+GaS6LD4l037Be6JAP8AQg/mq4mjU8oeCNoOPmbjngA+fPhh+xh+2/8ACLQ9O8PeEP2v0FlLEIr2G/s2u4tPTsLUTBi/cclFHoc19R/C34X/ABP8IXVtd/ED48ar43e2tngEEmkW1jA7tj944iyzMMEdQOelesZzzSYAoAaDkZr4T/4KZfthRfC7wa3wM+HN5JceOfFsSwzSWg3Pp9nIcMRjpJIAUUehJ7V7D+2P+1dpv7NXgJU0m3Or+PPEhNr4b0eIb3lmOB5zAZPloWB6cnC96+Sf2Zv2O9Y/t2T49/tE6lc6p8QtZka8ijnkDfYZpVIEsxHBkAPC5wmBivJzfOcLk1FVcTK13ZLq2dGHwlTFvlpo+CPgP4D1nUfjj4E0qdZEuU1y0vL+N42aS3SK6Ct5i9cnaeeg3DPrXtfwa8S+FdI/4KaLrnjePdZy+NdQtoCzYWK5eSSK3diewcofwrkNH0Xxh8N/21LDwr4j1O7sL2TxJBZX14rFTeWzTKQ5x95HG32NcX+1rpc/hT9pzx9HFI9tMmvzXcBU4Kh2EiOpHQ/NkGpp4qOJx0HDaULr70XKPLDl7M/Yj/gpcZB+yfrrL/qo9U0tp/8ArkLpC2a6bSpIJdJsprYYhe1hZB/s7AR/MV5Z8PfH0H7dn7BGv6C11E3iaTRm0nUon++moQqHikPf5zGrA555qb9lvx+vxF+CHhzVZt66lYQjR9Tic/PFd2+EkVh2Py5+jCvgPFbB1KmEp147RbT+Z7fDtRc8os9Vooor8FWx9eFFFFMAooooAKKKKACiiigaCiiihDYUUUVTQgoooqRBRRRQAUUUUAFUdd0HTPFGh3/h3WrZZ7HUrd7eeMnkqwxke46j0q9RVU6sqU1OPQmceeLizjPhzf8AiK208eEvGQeTWNHTyBeBCIdRtlOIrhD3YjAcdmrsxwcig89aBx0q6lVVKjmlbqKEHGHK9T5g+A2nn4a/tZ/F/wCHzxmG18Qw2/iixHRWBYK+PcMxr1nSbceDfi5qtosRi0nxtH/ats5b5Ev4lC3KY7F0Cyj1KyVyvxjs4fBPxl+HPxrdcWz3R8Jay4GALe6GYXb2WRAP+BCvZNQ0yy1OCO0v4RJFHcLPE4OHjdfuup7HBIz6MR3NfXZ1jViPZYm141IJPXqtH+SfzPNw9P3XHrFlzvil+DOr6Zofxb8X+DGLLda3Z2viOJmfIkXJtpNo9jGn50yIkyqT6Cvj39ur4teLPgF43+Fvxi8A3T2us2U17a3ESfcvbQlGeCVf4lKj8DyMGuvw/qcuewjte6/C/wChnnMOfBuXY/T0xggqSCO+a+e/ir+wp+z18UtSbxInhy68IeJwd0eveFbk6deK/wDeOwbHOecspPvXkv7PX/BVL4GfFG8vtD+IuoDwXfi9dNNlvVP2e7tz9ws4BET/AMJDHBPQmvtDR9c0TxHp8WreHtYs9TsplDR3NpOssTg+jKSDX9Jao+GVmfHb+DP+ChX7O+ZvAnjTQPjn4Zt1wumeIFFprMcQz8qzKV81gOAWZif7ta/hP/gpL8M7TVovCP7QHgjxN8IfERJSSPXrVjZFhjlbgKPlJzgsoHua+uqwfGXgPwV8Q9Il0Dxz4V0vXdPmGHt762SZTx1+YcHnrQOxL4X8b+EvG+kw674O8SabrdhOoZLiwukmjIPupOPxryn49fCTxDqepWHxs+EX2aD4leE4ibaMnZBr2n53SaXcEfwvyY3IOyTaeh4838Sf8E4/hrpmsf8ACW/s9eOvFHwf19W3iTRLxpbNz6PbyEhh7Zx7Vp+Hrz9u74V3UVl4w0Xwt8YtFUkJf6VcJpWqIo/iaKU+VI2PTFAj2X4LfGPw58bfBlv4x8Nefbne1pqGnXQ2XWmXsZKzWs6dVkRgQex6jIr0GviDxD8T9H+Fnxx074yaHoviPwlH4nlh0n4geHtZ0ia3gn3ELFqkMqKYHnhPD4Yb4y3OQK+2bO7gvbaO5tpklilQSRyIcq6kZBB9CKAPlr9m7SZvhh+1p8e/hV5Zj03XZrHx3pKgYQC7Ux3IUe0sYH4e9dN+3B+zDp/7UPwWv/DEdvDH4o0gNqGgXhADJcKOYi3UJIBtI+h7V0Pjfwbc6R+0j8P/AIu6ftEF7p+oeENWxwfLlC3Ns3uBNAy+3mCvZJl3KR1oEfzh/A79oD4wfsnfEqbWfCV3JYX9nM1lrOj3WTb3aoxDwTx9MgggMPmUjg9a/a/9lT9tv4T/ALT+ixxaHqC6T4ogjDXvh+7kAuEOPmeE9JY/QjkdwK+Df+CsP7JEvhLxY/7R3gjTR/YmuziHxDFAgAtL9uk2OMLJ3P8Ae571+e3h3xBrfhTXLXXfD+qXOnalYSie2u7WUxyRODwysvT/AD24oA/qJyfWpB0r85/2HP8Agp74e+IS2Hwq/aA1KDSfFLFLew1yQbLXUicKqykDEUvTJOFPqK/RSOQMoZGDKwyCDkEUAyWiiigkKKKKACiiigAooooAKKKKACuE+KXxLt/h1o0UsWk3Wtazqs62Wj6NZkC4v7k9EUnhVA+Z3bCqoyfSu6PSspvD+lS6zF4gksInv7eEwQzsMvGjcsFP8Oe+OvegDjPhJ4d+KtoNR8R/F7xnBqWraqyNHo+n26x6fpEY5WKJjmSZgSQ0rN82OFGK9GxSDnnn8aWgArzn45fG7wj8Cfh9feOvFTSzeSRBYadb83OpXb58q3hXu7H8AMk9K6Txx4+8KfDnwvqPjLxnq0WmaPpcfm3NzKeFHYAdSSeABySRXynoula98a/HVt8cfiXZvb2VirDwX4emXjTbZicXtwD967lXaSD/AKsfLyc14ef57hsgwrr4jd7LuzrweEnjKnJA5b4R/BnxN4l8e3X7Sn7QccN38QtW503Tc77fw3ZEfu7eMHgShTgsOm485Jz7zjHApD8vyLnFKOnOfwr+Zc7z3F55ipYjEPfZdEuiP0HBYWlhafJTVrHzb+2F+zHL8XdOsfiV4AtUi8feEmW6sgDg36Id3k+8mQCvrgjvXyz+2R8FNX+LvhXSv2s/BOnzyJfabDD4q07yz51heQKI5X2dSqldjHHB2+tfpzj/AD/n/OaxJfD1tpsl9qGh2UCPqDmW+tWA8m6Y/fJHYsOp59819DkvHOLyyNOE1zKnt/he8fTZrsedi8qhiJynF25vK+p+S/7Bv7WF1+y58W1vNaeWXwZ4jEdl4ghRQzRoCfLuFB5zGWJOOqkjrivt/wAUXmlfsn/HVfiLojRXnwJ+NLpeC+tcNa6Nqr4+fjpG/wArdvlYjnYa8W/ah/YBHiKW6+In7PGnMGdnk1Hw3IfLeKTqTAW6Z5+Q9cDGRXmf7Pn7Q178FtCvv2dv2qfB+o6p8KPEW+CazvIHF1o77iDPa7hkhWAYqOQcEdef3Cjj8t4xwEqcJJqS1i/iX9d9mfLunXynEKUl/wAFH6rwyx3ECXFvKksMgDJJGdyODyCD3HIp1fDPw5+MOq/s4wyQab4tt/i78DQ+dL13S51n1XQoSQQlzbEiRUTDL93bxwRwB9dfDn4peAvitoUfiPwB4ls9YsnHz+S/72E+kkZ+ZPxFfg3EnCGNySs/d5qfSSWnz7f8OfW4HMaOLjzJ2fY6yijr0or45po9Va7BRRRSGFFFFAgooooGgooooEFFFFABRRRQAUUUUAFFFFABRRRQAUUUUbgzl/ib4EsviV4G1jwbeP5R1C2ZLebvBOCGikHurqp+mao/Brxdc+Nfh5p9zqcRh1fTVbS9Yhb70N5AdkwI9yu4exrtslRmvMNYgHws+Ja+LlzH4X8dNFZ6sMfJZ6qBtt7j0CyqPLYj+JVJPJr3cJP65hng5bx96Py3XzX5HLbklzHp/wAi9Dmvzu/4Kp39xf8AiXwF4WsCPMt9NvNSYFsDBYj+SGv0P528da/OD/grJIB4j8Awbv3o064bHoDLX03h3T5s8p37S/I5c6ajg2j4ABKHrhh6etejfCb9oL4vfBTUhq/w18f6toc6sGaKCcmCX2kibKuPYivNMnOc0ZNf0lY+AP1H+CP/AAWZvrOC30r4++BBf7Qsb6toRWOUnu727kKffay44wpr7o+EH7Z/7N3xvjt4vBHxP0v+0J1Df2ZfyfZLtSf4fLlxuP8Auk1/OfRUuKGnY/qdBBAKkEHkEd6Xmv5xvhd+2J+0n8HJYP8AhBPi1rttbQYC2N1cG7tcDt5Mu5QPoBX178Mf+C0PxO0ySGD4rfDPRdfjXAkudLmeyuHHrsO+Mn8BS5WO5+ul/p2n6rAbbU7C2u4WBBSeJXXB9iK5fwXpx8Gs/gYD/Q7RTLpUh6talv8AVe/lkhf90rXzD8Nf+Csn7Kvjx0s9f1DWPBt2+Bt1m1Hk7vTzYiwA92C19Aax448M/EPwgPF3wk8V6Rr2oaUDf2BsbyOUTYHzQHaSRvHy4I+9tpWA6L4meGbfxZ4ZOk3FzeWubmKRLmynaG4tnDfLNE6/ddTggnIxkY5rwrXtf/bK+BkjXCaHpvx08JWxaTzIGXTPEdvDk43Io8i5wBwVVWbrjOa+hvC2v2HjXwxp3iGyysN/Ak3lt9+MkAlGHYqcg+4NbQGBj2xSEfJunftifsmftI+HdY+D3xG1h/Cl/rFu+nan4e8W2/2CdHYYZFkk+Tcrcg5ByAcV+Nv7SnwL1z9nn4r6t8PdUlW7so3NxpGpRcw39k5zFKhBIPHBGThlIr9+fi7+zf8ABL452Bsfih8OdJ1tgpWO7eLy7uL3SdCJB/31X5s/tOf8E+fhR4Yg1J/hp8VtZuJNJspI7fw/rFwsi2M55RTKOYk4f76AHrv4zQB+bSOFIO4qynKsDyD/AJ/Kv0D/AGJv+CnWvfChrD4bfHe9u9b8IoBBa6uEMt5pa4AUNz+9iHXH3lGcZ6H4e8XfDvxn4GuPI8U+HbuxDH93K6bopR6o65VgfUGubwCOmf8AP1oA/qI8LeKfD3jTw/p/irwnrNrq+kapCs9pe2sgeKZCOoI/EEdQQQcEEVrYr+f/APY6/bk+Jn7K+qjTbRjrvg27l8y+0O4n2ohzzNbuc+XJjgjowAB6DH7bfA/9oH4Y/tBeEbfxf8NfEcF/buoFxbZCT2smOUkjPKnPHoe1Amj02iiigkKKKKACiiigAooooAKKKTIoAbVDX9d0fwvol94j8Q6lb6fpmmW73V3dXDhI4YkG5nYnoAAavO6opd2CqoySTgAV8j/ELV5P2mfEA0lJpV+FWh3QkaNcqvim9ibKgkdbKN1z1/euM/dUGvJzjOMPkuHeIrv0Xc6MNhamKny00c5bXutftR+L7P4qeLdNnsPhpo1w0/g3QLldh1WZTtGq3cZ5x18qM/dGCec168ihFCKAABjA6U2KKKBEhhiSKOIiOONBhRgYGB2AXHsKfX8zcR5/ic/xbrVnp0XRI/QMBgKeCppRWvUTApaKK+ePQEpSSepoooCxm3mhQXWowavFdXFteQcCSGQqJF/uyL/H9TWN4/8AhZ4A+KehvoHxC8LWGs2z5I82La0bEY3xsOUbGeQa6uiuvDY7EYSanQm4tdnYwqYeFXSWx8QeOP8AgmfpFhdy+IPgd8T9T8L3xDEW99IZIm/2BIhVgP8AeDV83+Kvgp+0R+zxr0nibXNC12xaAh18UeEDvQ88NLGuM9yd2w1+txAbgjNNa3XYY1OUYYZCMq31zxX3eW+I+YUEqWOSqw6prX7/APNM8nE5HRm+ai+V+R8QfA39pD9rTXfCf/CSWPgTSPjH4esgIbmbRLhINbsz/dntgQ+/H/TNweDuIINeq+Hf28PgndXo0Xx9B4i8AauDsa08RaVLAA/pvAOB7sB74roPHf7OvhvTdUHxS+Enh248PeO7F/Mim0DVBpLXueqOCjwvn0dSGzirHww/bS+Evxc8Xv8AAX9pX4Yx+F/FCkQWyeKLSCW21B+hwSoWJzgEDG05+U54r7XBZbwzxjBzo03CppdJ2t522/D1PJqYnHZZLkb5kemeGfGPhPxnZrf+EvE+ka1bsN2/T72OcAfgc/pWyazvEP7A37KuvzjUtP8Ah4fDGog7kvvDeoT6dIue6iJxH+ams6b9mT4r+BVNx8Lfj3f61bxKfL0jxtareqwHRVvIgkqexKvXhZr4W1KV5YGrzeTX/B/Q68PxDB6VotHRUVx/hzxlrB8SzeAfiB4Yn8M+K4IPtC2skouLW+gU4aaznA/exgkblIDJ/EBXYe9fl2Py7E5ZVdDFQcZeZ79DEU8RHnpu6CiiiuI2CiiigAooooAKKKKACiiigAooooAKKKKACiiimiZB07Z9qp61pWma/pN1ouuWsd1YX0bQzwP0KN29scHPYqD15q5TOtVTnKlLmiKye5ieF7LxBosa6BqlxJqVtb4Wz1ByPOeLssw7uoAG4cNnJwa/Nf8A4Ksambj4zeG9OEu4Wfh2Niv91pJXJ/QCv1EBK/dJH0r8xP2n9Csvjf8At5N8OLzSNX1K0kt7fRSNKTfcWp8ok3IXowiZw7A9VVq/TfDCn7bOZVpfZi/x0PEz2dsMl5nwuetJX09+19+w18Qv2UtWOozCbX/BV46rY6/DFtUEjiKdR/q39M/K3bOK+YjX9Cs+LEooorMAoqWFljkSR03gMCVz1HpWv4j0OXTVtdQgQPp2oqZbWdRwxHDofRlPBHarQGHXSeB/Enifw/rdvL4b8WahoMryqGurS7eBo1zy2VI6DmucII60DPUUwP13/wCCYX7SHi/4ja98YPCE989/DbgeItGNyS8gkYNE4buQxjhY/wC0zetei/E3/go/4M/Z1/aG8S/CL4neHdVn02MWF1FqFgUkNrJLbIZVMZwSucEYPUt6181/8ET9BkuviL8StcKlraDQrSzZunzyzltv5RmvlX9vTxva/ED9rj4la9Y3Cz20WrnT4mQ5GLZFgOD3+aNqloD9y/hJ+1F8BfjjarL8N/iVpOo3RXc2nySiG8T2ML4b8gRXgf7X+teCdVuIdL+Jvw50We7s3P8Ap39rS6ZqENuVyGivYgRHnGAJBsNfh9perajot5HqGkahc2dzEQUlgkKMD9RX0Z4a/b8+Otr4ftvB3jy60X4g6BbqIxZ+KNLhvZAg6KJ2XzAB2+bI9amwHt2ufD610O3l1f4U/FnXNAtJfmn0bx3p0eqaHcA9F+3WayW4HQeZJHE3v6eL+OtK8FrI918W/gEuj254/t/4d6qGsmP9942M8QyccBkPtWp4Z+MfwK8SX29fhpqvgTU7jl7nwP4tlsRuP920vC8BJ9BIM+1O+I3w+8KeN7RhY/HqPTLqU7o7bxp4Wk0KW5bHCPdQeZbzY/vMR1OCOaQHhPiXwp4DjnDeC/HEl7bFflhv7IwTow/hbblSeeorpPhB4j+PXwT1f/ha/wAIbnUIDprBL2508/abdkz/AKu4jXqhP94AD1FY3iP4EfErQUluLfSrbXLKFd7XmjXkd7CU/vgxksF68kCuY0LX/GHgLWBfaPqGo6JqERGfLkaJz7MvGR7EUAftB+yH/wAFNvh38dIbPwf8U7rT/BnjZsRKsrmOwv27GKRidhP91j1zgmvt6GZZVBBByMgg5BHrX83mnfGDw9rsT6d8VPhxpWuQzsHk1TTU+wapA3/PRJEBjf3WSNgR3U819CfA39vb4s/s73EcPhTxbc/En4aQ4H9j64+3UtOhHVFfloyuTgruibA6GgVrn7iUV4X+zf8AtlfBP9pzSYZfA3iKO21tU3Xmg38ixX1uQPm+TPzqCQNy8H68V7pQSFFFFABRRRQAh6VGSc1LXiXxy+KOp6TcWvwq+H16sXjbxDGZVmMfmJo9gpHm30ozxgZWNWxvfAHQ1yY/GU8vw88TW+GKLp05VZqETK+L3iW++IOqXnw10C/8jQbZfK8RX8En7yUtj/QIyOVyvMhHIU7eDmodPsbTTbKDTtPt0gtbZFihiQYVFUYAA+lVtD0PTfD2mRaPpSyeRCWdpJG3STyMcvLIf4nY5JY9TWjX8w8S8SYnPcW5N+4tl0sfoeXYCGEpqy1DJ/Kiigc182ekGB60YHrRRV+xqfymfOu4UUUuPU1m6bjuUpX2EoooqbDuFGTjGaKMZ/PFAw/z/n/P5VwnxZ+CXw3+NeiNo3j/AMOQXjKpFtep8l1anrujkHI5AODkHHIru8EHFA68V24LF18FU9rQk4yXVOxlUpU6y5Zq54l8NtF+P/wHlPhHwh4nbxLpFqnnaXBrcrSWl9Ev3oS5Pm2dyBkKQWibP3Qa+ovhR8XfD/xZ0q4udOtLvTNW0uUWur6NeptutOuDk7JB0KkKSrj5WHSuH7/T9P8APtXL+H7p7H9qTwe+hBFvta0DVV8QIB/rbCHY1u7jsUuCUUnJwzjOBiv13grjXHZhjlg8WuZNb9UfLZvllKjTdSnozoP2xVg0nwb4U8aQnbq2ieK9OFkw4LrcSCGaL/daNySP9gVbDBgGU5B5B9ua4T47eMbP4t/HPw38FtE33WmfD66j8V+KblMmJLlUK2VnkcFiZHkIBz+7AIwa7o4HyqAMeleL4o1qE8whGn8Vrv5nTw9GapSckA6UtFFfl59GFFFFGwWCiiigQUUUUAFFFFABRRRQAUUUUAFFFFAmFFFFAhqlQwLkBQcknoBX4hfEP4y+I9L/AGl9Y+MPhLVHs9Y0/wARy3ljMDnb5cpCgjupAwR0KnFfsJ8cvFq+BvhB4v8AFxl8o6bpFw8b/wDTRl2pj33EV+Dk0z3Vw9xO5d3YszHqWPUmv2/wmwLVOvjJLdqK+R8nxHWso0z+hX4Q/HD4b/tZfs5HxbdeHhrtjf2ZtPEPh8RfaZIpguJYfL79yuMEjpzX5/8Axh/4JFeL7nUtS8SfADxfpWp6NPM81rourM9rfWsZORCXcbWK9OdvSviH4V/HD4r/AAS1aTWfhb451Xw/POV+0LaTlY7gL0Eifdcc9692tP8AgqF+2VbRrE/xLt51X/nrpVuSfqdua/YdUz5hSVjzPx3+xr+0t8OppU8S/CLX1ii/5eLa38+Ej1DJnivJtV8Pa/ochj1nRb2yYHGJ4GTn8RX1PH/wVJ/a8W4Z7jxho91E3DRTaLAVYfgAf1ql4q/byl+J8ItvjF+z78PfFCgcywxXGnTE+u+Bxz+FO5V0fK2TXffDbxP4cVJ/A3j9rhfDWrsGe8gG+XS7oDCXiJ/GBnEidXTp8yrXdjxZ+yF4lljXU/hJ418JtIfmk0XxBHeRx/7sdxGSfxYVNffC/wDZi8QL/wAUF8btVtLh/uWvibTxanPp5kIeP8yKfNYDnfiF8CvFHh2Oa5t7Rbue1gW7nNmDLDd2bf6vULVlyJbdxjcVyUbO7HbySMHO0j7/ABX1X8NLz46/CVorLw94es/iT4XhYvFZWmpw3wtw333tGt3+0WrEfe2hQ38SmvX4P2tf2V/hso8V3/7GtyvxEj/eWia3a26QRT9pC3lKXOfUbvfPNUmmM9R+Ct7B/wAE9P2D9T+JHidEs/iF8TJGuNL02UYlRmQpbBlPOEjJlbjgvtPv+VN9d3OoXc1/ezvPc3MrTTSucs7sSWYnuSSa9I+P37QvxP8A2jPGT+MPiXr8l3Mm5LSzjJW2sYif9XCmcKOBk9WPJJrzLHB9qLAMwKKKKQCgkdCRWpbeKvEdpavZQa5frbyABovtDbCB/sk4/SsqigC/ba1qNlMLqxvri0uFOVkt5WiKn1G3GDXZj47/ABOm0uTRNW8Qw6xZSKFZNX0+3vnIHYSzI0i/8BYV57RSsBckm853l2opck4RcKM9gOwr3b9mrw98CfiBb6j8N/iJdXug+KtZuYf7A8SIxeCzYE7o5IhjdvyBknjFfPwB7V9PfsOfs8wfG74jCTxPpesnwzpcLzXF5aN5UazqMxxmQ8HJxwpB56ivOzXE08Hg6lepPlSW504Sk69VUluzf+Ln7C/7QXwGvl8eeBL+58QWOnuJodW0N3iu7Zhg7zGp3KBnO5SRXuv7K/8AwVm8V+Eri28D/tM2lzrFjFtgTxDawgXlsoGMXMQx5oz/ABDDDuGr7qsNMtdNsLbTbTzPs9rCsEQeQsdqjAyx5Jx614j8cv2NPg/8cLSa41LQ7fQtdYEprOlwCGRm7eag4k+vWvy7JfE2nKSo5jH/ALeX6r/h/Q97EZGnG9N6n2d4A+J3gb4oeHrbxV4C8Tafrel3aK8dxaThwMjOGA5U+xrpfMHYivwyuPgp+2Z+xT4obxd8KtU1C+0qN9zXGjEyW06DnFxanI791OD3r66+Cf8AwV9+GOsWMOj/AB48M6l4V1uL91NeWMJuLKZwcE7ch4+2Rhuc1+q4PH4bMKaq4Wakn2Z83WoVKEuWasfosrZpa8/+Gnx0+EPxetjdfDT4i6H4gUDJjtbpfOVfVojiRP8AgSiuu1nxFoXhuxfVPEWs2Gl2cf37i8uUgiX6s5AH512WZicZ8dPjX4R+A/w51X4i+MJnFpp8ZWC3iP769uiP3VtEO7u3A7Dqa+fvg54Y8U22lXvxH+JY3eO/HMgv9XGcrYQAYtrCIfwxwx4GO7EnmvJfH/iW5/bO/agtItF1Nb34QfCy9gmhkhBEGq6oqlnKseJFVtq56bfrk/T7PvkJxgDgCvxvxK4iSccqw713nb8EfU5DgL/vqi32AcDApaKK/FEktEfXhVfUdRtNJsZ9V1O4S3sbOJ57q4c4SGJFLM7ewAqxXxv/AMFKvjYPBXwvtPhboOpiPVvF0ga9EZw8dimcqfQSEj8FIr2+HsplnWPhhY7PfyXc4sdXjh6fPJln4Oatr3/BQ74u+LNNudd8QeHvg/4OhSOOLSbk20up3MjMqCWT73KCR8dBtXIOa98sf+Ccngfw2of4ZfGr4p+FZwuD5euLcQMfVonTaa6v9gX4Dj4Ffs5eHdDvtPittf1uIa3rRC/N9omAZYmP/TOPYuOxB9a+k44tg65Jr+nsHk+DwlBYaFNcqVtt/N92fn+IxdadVzUj4d8afBD9uj4ZWf8AaXw9+JHhf4oWMGS1hrelLZXrIP7pQhGb/gQzXhcv/BQXxz8PNRk0L46fs4a74evbdtszWpcA/wC0FdcY+jGv1YPvVHVdC0bXLc2usaXaXsRBBS4gSVcHqMMCOcc15+L4QybGq1Wivlp+RVLNMTRekmfnt4P/AOChn7NHilo4rrxRe6FO2N0eqWDKq/8AbSMFfzNe3eHPi18MPF8Uc/hb4g+HtTWT7ogv0LH/AICTmu68efsT/stfEaKRPEXwW8NJLLnNxY2a2k2fXfEFNfKfxR/4I3fD69Emp/Bb4jat4ZvVJkitdQ/0m1B7AOuJV+uTXyuL8LMrq3+rzlB/f/kenDiOrFWlG59OhgQMMMHkEH+v/wBequo/2gbcnR/9d/yz8wfI7fp+ea/MT4jfs+f8FCv2YY5r611vxVqehW2WF9oOoT3duqDu8XLoB3yuB61zPhD/AIKS/tH+EEWz1u60zxCkR2lNTslEnHYumGP5183ivCjHUbvD1IzXzT/X8z0KXEVGXxxaP0r/AOFz+HdDuxpPxFtrzwnel9kcl/Cfstx6GKcfK2fTtXRW/j7wJdwie28ceHZkbp5epxH+tfK3wV/bsuPjTZz6Rqvwfgv3VxBc2Ntq8G6cuOBFBdAJL/u7s+ma7nUNZ/ZZ066LfEL4Ez+C7x22SHWvBbww7u+JoY2jPXrmvDr8G4rC3+s0Zp94+9/kdNPNKU/gkdL8S/2q/hr4Ku08NeHdXsPE3iSdf3Vna3ai2gz/AB3FwPljQegJJ7Dis34beKfiEttq2pfDLS313x14sMa6v481m1e00jTYULeXa6dbuvnTxxBjjAVWfLsecCndftB/sRfDGCK70zxD4Ktix4XR9KSecEevlpx/wLB964Lxh/wVB+A+iBo/DOh+JfEDDhS0K2kR+hJLY/CvaynD5jlytlGClzvec1+XZfM5MTUpYiXPWqadkfSvwx+GmifDDw/LpthPcX+p6jcyX+s6tdnNzqN7IcvLIewzwFGQBwK69Rk1+Y3jT/gqt8R9QkeLwF4D0bRIf4Jrp3u5vx3YX9K8R8UftyftN+LS4ufilqenpJ95NOYWi49P3YB/WofhvnebVpYnGVIqUnd31/qxcM7wuFjyQjsftOXRfvMB9TWB4h+IHgjwnB9p8S+LtH02LDfNc3sacjqOT71+GGrfGT4q60SdX+JHiW9z18zVJm/m1cveatqWoHdfahcXLdczzFz+terS8JKfMpVq+3Zf8EwrcROX8KJ+wnj7/goL+zZ4LLw2HiqfxDcpx5em25Zc+m84X8s15PP/AMFWfh8LgrB8OdZaEfxm4jBP4Yr8yCxPVx+ApM5719ThfDnI6EeWcHL1Z5888xfc/YD4cf8ABQ79n7xzdpp2pand+HLmTAX+0IQsRY9vMAx+dfTml6hput2Uep6PqEF9ZzgNFcW7iSORSOCGBr+eMcdK73wf8ePi74B05tJ8HfEXXdJs2bcYLe7YJn2GeOpryMy8LcDWfNgpuHk9Ub4biCdPSorn7zUUUV+AH2gUUUUAFFFFABRRRQAUUUUAFFFeeftCazqPh/4FePNc0m4aG7stAu2icdUZo8bx7jPFdmAw0sbiIYaP25Jffpf5GdWfsoOp2PkH/goF+1p4K1rwdffAnwBfHU725ukbVr+A4toFRgTChyfMYnGSBgY6jv8Am4pIGSa6LXddt7/SbHTotOSKa0a4kubo5824lkcHL5/uqqgfjXOEkLX9WZBktDIcHHC0Nt231fVn5zj8W8ZWc3sHmHsTSeYfU02ivbOSw7fRuzTaKAHbhShv9qmUUgLcF/cWzLJb3U0bKcgq5BH+fwrrtN+M/wAT9MtxZ23jjVZbUDH2e5l+0RY9NkgZcVw1FFgO9f4pLfDZr3w88H6hnO6WLTTYSnPU7rVoxu9ypqtPrHww1BiZPCWuaUD1NrqqTrn6SRbiP+BVxeT60ZPrQF2dDPpvhCYlrHxHdwAn5VvLAqAPTdGzZ/75qjNpCpk2+q2NwP8AYl2n8nANZg61KCcdaY7itC6nBK/nTCMUpz2pAM0DuJRTttbvhbwF418cXgsfB3hPWNbmPVLCylnI+uxTigZipg4zX7G/8E9pNGb9lXw4mkRqkq3t6NQweTcecSAe3EZT86/Oe1/Yt/ajtbez1a9+DXiCytprqGKKW5twgLs2FyrENj14+uK/TPwF45+Af7Pk2j/s+z+I9N03xXc/Z5byztlkaKbUZlVWbcAVTcyg44wCvHNfm/iPOdfL/qmGTlO92o66Le/3nuZJThGt7SXyPeATjGaduLcMcj0poxgEHIpa/nR3R9nuMlVV3RooVT1CjaD+I/8Ar15f8Qf2Z/gP8UHebxp8NNKvLhxg3cK/Zrn6+bFtJr1IjPBptdOCzPGZfU9phqji/JtGdSjTrR5ZxTR8Z+Lf+CZ3w4Mw1L4U+PfEfhC+Vty+ZL9pjU9tpUo4/FjWVp3/AATZ1zxDq1tN8WP2hNd8S6dbsGe3WOTzJAP4Q8srhPrtNfceBSqpByor62HH+e06PslV+bSb+84Y5Ng5Sb5TC8FeAfCXw58N23hPwZpFvpWmWeRDDCnrglmP8TFhkt39BW2q4Oc07rQAWztGSK+Qq4qtiKjq1pc0nq2epCnGlG0dgpCQOtZniDxT4d8Jac2reJ9atNLtUPzPcShPyz1rw/xn+3f+zL4Qt52k8cPq9zEDsttOtZZHdvTdt2j65ruwWTZhmP8Au9GUvRGU8ZQp/FJI9j+IHjnQPhr4M1fxz4muRBp2j2r3Mp7uR92NfVmPAFfnh+yT4E179uT9r6f4p+N7WSfw54cuU1fUImGYwUbNnZ+m35fTBCEEc1w37Yn7aD/H3QtO8HeGLKXRtBt5/tE0Es++e4kVdqNKFG1QOyhj71j/ALIP7Uvxj/ZY1S9u/BXga48ReH9ZZJb+yezlAdlGA0ciA7TjPtX75wJwp/YeGeIxCtWlv5Lt8z4zNsb9anyw2P36igSDbHGoVVGAAMAVLkjjNfll4w/4LLa9p9h5On/s83Onaif+greMqf8AfPlgn868kP8AwWR/aV/td7pfCPg3+z3IKWbWcuVHp5nmc/lX6BY8bluftPkeoor86fgV/wAFiPhn4quItG+N3hWfwfcuVX+0rMtdWQJ/vgfvE/I4r788J+M/C/jrQbXxN4Q12z1jS75BJb3dpKJI5FPuOh9R1HenYTibmBSFeKAwNLkVJNiF4g+dyK2fUCvnr48fsG/s4/tAiW/8WeC003X5Adut6QRbXW7sXCjZJj/aU19F8GjA9KabWwuVH40fEX9hP9rL9i/XLn4ofADxI/inRrMiWZ7G2VrkQqd4FzZuGWZRjkgEc5wtfd37EH7W8H7WPw8ebxD4aGn+I9HIt9TWOMNZzuekkeQSmc/cY54bHAr6mkhSRSpUEMMEEZBHpX5X/tUfDz4kfsCfHsftU/Ai2dvA/iO6H/CR6IhYWqSOw8yJ1B4SQ7mRgPkckdOCp+/uNaH3L8a/2PvgH8d/D91pHjL4f6Sl9MjCHVrO2W3vbeQ9HWVME/7rZU9xX42fHj9jH47fBDx9efC/S/AN14osbm5FxpGvaboxnkuombEal0UmNuzLnghsEgZr9g/2V/if41+Onh1/jFq3i7wxc+H9Xgjh07RtCjkcWEiM3mi4mlwxl5AKBABjqc170Ap6ODWS02Hdn4Vat/wSp/a70/wVaeMR4Z0u/vLkbp9Dtb9G1C2XAILK2I2PP3UdmHpXy/8AED4WfEb4V6s2ifEbwRrPhy9BwItQtGi3f7pIw34E1/TsPYfia81+PHwG8E/tC/D3VPh348023uLa+gkW1vGiDTWE5HyTwngqykA4zg4weKtT6E2P5quTTK9i1X9nPXdF8e+IfhprHjDwppGv+G9Wm0ma01PUfs7zMhG2RCV2srAgjnNekWn/AATv+NGp28c+meIvBV15ihgsWuR9D9cVz4nG4fB64iaivM2o0Z1b8qPlWivqq8/4JsftRW3MPhzR7lSAQ0erwYI9iWArGuf+Ce/7V1sSF+GbXHvDqNq4P/kSuZZ5lj+HER+9f5nQ8FiH9g+cRz0ppUjtXt+ofsWftPaYT9q+D2unb18tEk/9BY1gT/szfHmB9lx8JvEyN6fYHrojmWBqL3a0fvRn9RxEd4n7q0UUV/HR+mBRRRQAUUUUAFFFFABRRRQADqPrXmv7SP8AyQH4hf8AYs33/olqKK9zhz/kZ0P8cfzMcV/u8/Q/Cqf/AFkv0FQt90UUV/WyPy97jKKKKYwooooAKKKKACiiigAooooAB1qUdKKKAEPSlSiigEbvgb/katP/AOutfvZ+yd/yTb/tyj/lRRQWtzmI/wDWap/1+n+Qr8mPE/8AydUv/YxQf+jloor4mf8AyMq/+B/oephdl6o/aX/4kfzp9FFfzXi/4kvVn3S2CiiiuLqPoA61IOlFFaLY0jsLSWf+tb6UUU1uZ1tj8t/2+/8AkfZ/+uJ/lXxUv3pKKK/pvgb/AJFVI+IzT+J9513wS/5LH4M/7Dlp/wCjFr99vBf/ACCLP/r3SiivuEeV1POP2jP+Rcuv+uT/APoNfij8Vf8AkdLr6n+tFFDEcMOpr9k/+CNX/JEvEf8A2EV/k1FFSJ7H6FRfd/Gn0UUxBRRRUEBXzl/wUC/5NC+Jn/YFl/8ARgooo6MD50/4Ivf8ka8ef9jEP/RAr9E4/u0UVkwJaKKKFuB/Pv8At+/8nn/Ej/sMxf8ApPbV9h/AP/kXND/69/8A2UUUV8Lx7/u8fn+h7OUfFL5fqfR/ww/1F5/13H8q9Ag/170UV+JVN0fUw2LMfanw/ef60UV6VEykf//ZRrKsCAAAAABQamCOoZVnBUPLikI4HUKd;" vertex="1" parent="1">
                    <mxGeometry x="-95" y="-220" width="509" height="497" as="geometry"/>
                </mxCell>
            </root>
        </mxGraphModel>
    </diagram>
</mxfile>